<?xml version="1.0" standalone="no"?>
<!DOCTYPE svg PUBLIC "-//W3C//DTD SVG 20010904//EN"
 "http://www.w3.org/TR/2001/REC-SVG-20010904/DTD/svg10.dtd">
<svg version="1.0" xmlns="http://www.w3.org/2000/svg"
 width="1280.000000pt" height="1280.000000pt" viewBox="0 0 1280.000000 1280.000000"
 preserveAspectRatio="xMidYMid meet">
<metadata>
Created by potrace 1.14, written by Peter Selinger 2001-2017
</metadata>
<g transform="translate(0.000000,1280.000000) scale(0.100000,-0.100000)"
fill="#000000" stroke="none">
<path d="M6173 10866 c-133 -44 -262 -159 -433 -391 -25 -33 -47 -62 -50 -65
-6 -6 -12 -15 -142 -202 -51 -73 -111 -160 -133 -193 -22 -33 -48 -68 -57 -79
-10 -11 -18 -23 -18 -27 0 -4 -17 -36 -38 -70 -83 -138 -293 -547 -299 -584
-2 -10 -7 -22 -11 -25 -9 -6 -29 -53 -103 -240 -28 -69 -54 -134 -59 -145 -12
-28 -71 -202 -74 -217 -1 -7 -8 -23 -14 -35 -7 -13 -10 -23 -7 -23 3 0 -1 -16
-9 -35 -8 -19 -13 -35 -11 -35 2 0 -3 -19 -11 -42 -17 -47 -42 -138 -50 -178
-3 -14 -10 -43 -16 -65 -22 -86 -49 -202 -53 -235 -2 -14 -13 -74 -24 -134
-12 -60 -19 -111 -16 -114 2 -3 0 -12 -4 -21 -5 -9 -12 -45 -15 -81 -4 -36 -9
-83 -11 -105 -29 -238 -47 -697 -30 -725 3 -6 1 -10 -5 -10 -6 0 -9 -4 -6 -9
3 -4 8 -62 11 -127 3 -66 7 -144 10 -174 10 -126 17 -197 21 -230 8 -59 12
-93 18 -145 8 -66 17 -120 31 -190 7 -37 15 -76 21 -114 3 -18 8 -43 10 -55 3
-11 7 -32 10 -46 3 -14 11 -47 19 -73 8 -27 14 -52 13 -55 -1 -4 1 -14 4 -22
6 -16 82 -292 83 -300 0 -3 3 -10 7 -16 4 -6 9 -21 11 -35 3 -13 17 -60 32
-104 15 -44 28 -85 29 -92 1 -7 5 -16 9 -19 4 -4 7 -14 7 -22 0 -8 6 -28 14
-45 7 -18 18 -45 24 -62 6 -16 13 -39 18 -50 4 -11 8 -24 10 -30 4 -17 74
-187 100 -243 13 -29 24 -57 24 -62 0 -6 5 -10 12 -10 6 0 9 -3 5 -6 -3 -3 3
-23 14 -42 10 -20 19 -42 19 -49 0 -7 5 -13 10 -13 6 0 9 -3 8 -7 -2 -8 68
-150 112 -227 11 -20 29 -53 41 -73 11 -21 48 -81 81 -133 32 -52 65 -104 71
-115 7 -11 15 -22 18 -25 3 -3 21 -27 39 -55 19 -27 37 -52 42 -53 4 -2 8 -10
8 -17 0 -7 3 -15 8 -17 4 -1 30 -32 57 -68 28 -35 59 -74 70 -86 11 -12 49
-55 85 -95 74 -83 194 -200 260 -254 25 -21 47 -40 50 -44 8 -11 123 -97 200
-150 68 -47 74 -49 130 -46 32 2 87 11 122 20 34 9 68 18 73 19 14 2 109 50
115 57 3 3 12 8 20 11 20 7 177 134 187 152 4 7 27 35 50 62 54 64 102 123
133 164 14 18 33 42 43 53 9 11 17 23 17 26 0 3 10 18 23 31 12 14 38 48 57
75 19 28 38 52 42 53 4 2 8 10 8 17 0 7 4 15 8 17 20 8 312 472 312 496 0 7 5
12 10 12 6 0 10 7 10 15 0 8 5 15 12 15 6 0 9 3 5 6 -3 3 7 27 22 52 56 97
248 498 256 538 2 6 17 42 34 81 17 39 31 76 31 82 0 6 9 30 19 54 11 23 31
80 46 127 15 47 33 101 40 120 12 30 38 118 51 170 9 39 63 235 64 235 1 0 3
9 4 20 2 11 6 34 10 50 3 17 8 40 11 53 2 13 7 32 10 42 3 10 8 33 11 51 2 19
7 44 9 57 7 33 12 62 20 112 3 25 10 63 15 85 4 22 12 69 16 105 4 36 9 79 11
95 2 17 5 48 7 70 2 22 7 65 10 95 10 100 24 314 28 435 1 25 -13 297 -17 327
-4 32 -14 134 -20 213 -2 22 -6 56 -9 76 -3 20 -7 59 -10 85 -4 27 -8 63 -11
79 -2 17 -7 44 -9 60 -3 17 -7 41 -10 55 -3 14 -7 41 -10 60 -3 19 -10 60 -16
90 -6 30 -13 66 -15 80 -3 14 -12 57 -21 95 -8 39 -17 79 -19 90 -2 11 -4 20
-5 20 -2 0 -4 9 -5 20 -1 11 -15 63 -29 115 -15 52 -29 104 -30 115 -2 11 -16
58 -31 105 -15 47 -28 90 -29 95 -1 6 -5 16 -9 23 -5 6 -6 12 -2 12 3 0 -1 13
-10 30 -8 16 -16 33 -16 37 -2 10 -3 14 -37 113 -27 78 -57 156 -85 220 -6 14
-11 27 -12 30 -1 5 -19 45 -62 144 -25 57 -140 286 -204 405 -15 29 -35 61
-43 70 -8 9 -15 19 -16 23 -3 24 -228 368 -274 420 -14 17 -26 33 -26 37 0 3
-10 18 -23 32 -12 15 -35 44 -52 65 -16 21 -37 46 -46 54 -8 9 -22 26 -31 39
-20 28 -151 173 -238 262 -70 72 -81 77 -285 129 -108 28 -114 29 -235 35 -75
4 -117 1 -147 -9z"/>
<path d="M3046 9923 c-3 -3 -26 -8 -50 -9 -83 -7 -239 -70 -249 -102 -3 -9
-18 -51 -32 -92 -24 -66 -59 -183 -71 -232 -9 -39 -14 -64 -19 -88 -3 -14 -7
-36 -10 -50 -2 -13 -7 -42 -10 -65 -3 -22 -8 -51 -10 -65 -15 -87 -25 -199
-29 -346 -2 -56 -6 -106 -10 -112 -3 -6 -3 -13 2 -16 6 -4 8 -61 2 -61 -1 0
-2 -26 -3 -57 -1 -32 2 -58 7 -58 5 0 5 -5 0 -12 -11 -16 -11 -68 -1 -85 5 -7
4 -13 0 -13 -10 0 -9 -83 1 -99 4 -6 3 -11 -3 -11 -7 0 -7 -8 -1 -25 6 -17 6
-25 -1 -25 -6 0 -7 -5 -3 -11 3 -6 8 -145 10 -308 2 -163 6 -323 8 -356 3 -33
7 -96 10 -140 3 -44 8 -100 12 -125 3 -25 7 -67 10 -95 6 -72 19 -173 28 -225
3 -14 7 -43 10 -65 3 -22 13 -74 21 -115 8 -41 20 -100 26 -130 6 -30 25 -109
41 -175 16 -66 31 -131 34 -144 3 -14 7 -28 10 -33 3 -4 7 -18 9 -30 11 -53
116 -374 145 -443 5 -11 32 -78 60 -150 28 -71 65 -158 81 -193 16 -35 29 -65
29 -67 0 -12 144 -301 151 -303 5 -2 9 -10 9 -17 0 -7 25 -57 55 -110 30 -54
55 -101 55 -106 0 -5 4 -9 9 -9 5 0 11 -8 14 -17 3 -10 14 -31 24 -47 27 -45
193 -297 204 -310 5 -6 32 -42 60 -81 45 -60 89 -115 214 -264 34 -41 272
-275 306 -301 18 -14 42 -34 53 -45 12 -11 39 -34 61 -50 22 -17 42 -32 45
-35 17 -17 121 -90 129 -90 5 0 11 -4 13 -9 4 -10 218 -143 218 -135 0 2 9 -4
21 -15 25 -23 59 -33 60 -18 12 133 2 189 -59 315 -17 34 -28 62 -25 62 3 0 1
6 -5 13 -25 30 -234 557 -258 647 -2 8 -17 53 -33 100 -16 47 -43 132 -60 190
-17 58 -36 119 -41 135 -5 17 -11 41 -14 55 -2 14 -9 36 -14 50 -5 14 -10 30
-11 35 -1 15 -62 278 -68 295 -3 8 -7 28 -9 44 -3 17 -9 47 -14 67 -6 21 -10
41 -9 46 1 4 -1 19 -5 33 -4 14 -9 39 -11 55 -2 17 -4 30 -5 30 -2 0 -5 20
-26 150 -9 55 -17 114 -19 130 -2 17 -6 55 -10 85 -5 30 -9 66 -11 80 -1 14
-3 25 -4 25 -1 0 -3 23 -5 50 -2 28 -6 79 -9 115 -21 232 -30 432 -30 685 0
193 10 482 20 575 2 25 7 74 9 110 7 96 14 170 20 210 2 19 7 64 11 100 3 36
10 72 15 81 4 9 6 19 3 22 -3 3 -1 29 5 59 6 29 13 64 16 78 3 14 8 39 12 55
4 17 7 37 8 45 1 8 4 29 8 45 6 30 42 224 52 280 2 17 7 41 10 55 4 14 7 36 9
50 2 14 8 53 15 88 7 35 14 75 16 90 2 15 6 36 8 47 2 11 7 36 10 55 18 101
24 135 27 135 1 0 3 18 5 41 3 23 11 72 19 109 13 61 13 70 -2 84 -8 9 -16 14
-16 12 -1 -3 -12 2 -26 11 -14 9 -37 22 -52 29 -15 8 -62 32 -105 55 -211 110
-505 255 -523 258 -3 1 -30 11 -60 23 -89 37 -286 82 -384 88 -37 3 -73 8 -79
12 -6 3 -7 1 -3 -5 5 -9 0 -9 -17 -3 -14 6 -28 7 -31 4z"/>
<path d="M9547 9923 c-3 -3 -32 -7 -64 -9 -135 -8 -275 -58 -498 -179 -56 -30
-191 -101 -350 -184 -38 -20 -71 -39 -73 -43 -2 -5 -12 -8 -22 -8 -10 0 -20
-3 -22 -7 -1 -5 -21 -17 -43 -28 l-40 -21 1 -134 c0 -74 4 -155 8 -180 4 -25
8 -54 10 -65 2 -11 6 -30 10 -42 4 -12 9 -31 11 -42 3 -12 7 -30 10 -42 2 -11
7 -29 10 -39 3 -10 8 -28 10 -41 2 -12 11 -45 19 -73 8 -28 17 -68 20 -90 4
-21 8 -42 11 -46 2 -3 7 -20 9 -36 3 -16 8 -40 11 -54 3 -14 8 -38 10 -55 3
-16 9 -39 12 -50 3 -11 8 -29 9 -40 15 -94 21 -130 24 -130 1 0 3 -13 5 -30 2
-16 6 -41 9 -55 2 -14 7 -41 10 -60 2 -19 8 -57 12 -85 3 -27 8 -59 10 -70 4
-18 12 -83 19 -145 2 -14 6 -61 10 -105 3 -44 9 -91 11 -105 3 -14 7 -47 8
-75 2 -27 7 -111 12 -185 5 -74 9 -295 9 -490 0 -310 -4 -434 -20 -605 -2 -22
-7 -71 -10 -110 -3 -38 -7 -79 -9 -90 -2 -11 -7 -49 -11 -85 -4 -36 -9 -74
-11 -85 -3 -11 -7 -40 -10 -63 -3 -24 -9 -54 -14 -67 -5 -13 -7 -25 -4 -28 3
-2 0 -25 -6 -51 -5 -25 -13 -63 -16 -84 -3 -20 -8 -44 -11 -52 -3 -8 -7 -24
-9 -35 -7 -55 -41 -192 -75 -309 -12 -38 -22 -76 -24 -85 -3 -14 -54 -163 -73
-211 -3 -8 -6 -17 -7 -20 0 -3 -18 -57 -40 -120 -21 -63 -40 -119 -41 -125 -2
-5 -21 -63 -43 -128 -22 -64 -37 -117 -34 -117 3 0 1 -6 -4 -12 -9 -11 -33
-75 -39 -103 -1 -5 -19 -62 -39 -125 -39 -122 -54 -169 -56 -185 -1 -5 -15
-48 -31 -95 -15 -47 -28 -86 -28 -87 0 -2 0 -4 -1 -5 0 -2 -2 -10 -4 -18 -2
-8 -11 -39 -19 -68 -9 -28 -22 -73 -30 -100 -8 -26 -17 -55 -21 -64 -5 -13 0
-19 22 -23 15 -4 33 -8 40 -10 6 -2 14 -1 17 3 4 3 26 5 49 4 35 -2 49 3 86
33 192 154 333 289 536 515 36 41 119 142 155 189 14 18 31 39 38 46 6 8 12
16 12 19 0 3 7 14 16 24 47 53 74 88 74 100 0 6 4 12 8 12 4 0 16 15 27 33 10
17 24 37 29 44 28 31 36 43 36 47 0 9 114 181 122 184 4 2 8 8 8 14 0 5 25 50
55 99 30 49 55 91 55 94 0 3 11 22 24 43 27 41 117 210 166 312 18 36 36 72
41 80 5 8 14 26 20 40 6 14 23 50 39 81 16 32 26 60 23 63 -4 3 -1 6 5 6 7 0
12 9 12 20 0 11 5 20 10 20 6 0 10 6 10 14 0 12 12 41 76 184 32 72 54 124 59
142 1 3 9 23 19 45 19 45 69 197 86 265 6 25 18 64 26 88 8 23 13 46 12 50 0
4 1 14 5 22 6 17 27 103 33 140 3 14 9 39 14 55 4 17 12 48 16 70 4 22 8 45
10 50 1 6 5 27 9 49 4 21 9 48 11 60 2 11 7 36 10 55 3 18 8 43 10 55 2 11 7
37 10 56 2 19 7 49 11 65 3 17 7 46 9 65 8 76 12 116 17 145 5 28 10 66 22
183 16 155 25 296 29 474 2 69 7 131 10 137 4 6 3 11 -1 11 -10 0 -10 41 0 57
4 7 3 14 -2 18 -7 3 -7 15 -1 29 5 13 7 26 4 29 -3 2 -7 76 -9 163 -4 151 -6
186 -21 349 -8 91 -12 129 -20 190 -4 28 -8 65 -8 82 -1 18 -4 33 -7 33 -3 0
-6 6 -6 13 -1 49 -25 176 -79 417 -8 39 -34 132 -44 160 -5 14 -12 36 -14 50
-3 14 -12 43 -21 65 -9 22 -18 47 -21 56 -3 8 -24 20 -47 26 -65 18 -101 27
-112 28 -5 1 -23 4 -40 8 -61 15 -82 17 -152 21 -40 3 -76 7 -81 10 -5 3 -12
3 -15 -1z"/>
<path d="M1670 7360 c0 -3 -28 -6 -63 -6 -54 -1 -125 -7 -207 -18 -96 -13
-401 -101 -408 -118 -2 -5 -11 -8 -20 -8 -9 0 -86 -34 -171 -76 l-156 -76 -2
-46 c-9 -192 -1 -335 31 -532 4 -23 33 -155 41 -190 31 -123 104 -348 136
-416 10 -22 19 -43 19 -47 0 -19 160 -356 220 -462 89 -159 102 -180 206 -345
43 -69 82 -126 86 -128 5 -2 8 -8 8 -13 0 -6 5 -15 10 -22 6 -7 51 -70 102
-142 114 -162 178 -236 393 -450 172 -171 257 -249 388 -355 11 -8 35 -30 56
-47 20 -18 39 -33 42 -33 3 0 17 -10 31 -22 47 -43 68 -58 78 -58 6 0 10 -4
10 -8 0 -5 12 -15 28 -23 15 -8 33 -20 40 -26 24 -23 270 -183 281 -183 6 0
11 -4 11 -10 0 -5 5 -10 11 -10 6 0 23 -8 37 -19 82 -58 566 -297 617 -305 6
-1 15 -4 20 -8 24 -15 376 -133 424 -142 14 -3 78 -18 141 -35 63 -16 131 -32
150 -35 19 -3 49 -9 65 -12 17 -3 39 -7 50 -9 11 -1 20 -3 20 -4 0 -1 18 -4
40 -6 22 -2 58 -6 80 -9 75 -11 125 -16 208 -21 l82 -5 -1 40 c-1 49 -18 84
-50 101 -13 7 -24 16 -24 21 0 4 -4 8 -10 8 -5 0 -20 10 -33 23 -38 36 -86 77
-92 77 -3 0 -13 8 -23 18 -10 9 -35 31 -56 47 -49 37 -136 110 -256 215 -209
181 -526 500 -691 695 -19 22 -36 42 -39 45 -3 3 -23 28 -45 55 -21 28 -42 52
-45 55 -3 3 -21 25 -40 50 -19 25 -41 53 -49 62 -28 31 -41 47 -41 53 0 3 -22
35 -50 70 -27 35 -50 69 -50 74 0 5 -4 11 -8 13 -10 3 -212 303 -212 313 0 3
-8 18 -18 33 -50 73 -83 128 -150 252 -21 39 -39 73 -103 190 -7 14 -14 27
-14 30 -1 3 -33 70 -72 150 -39 80 -90 190 -113 245 -23 55 -51 119 -62 143
-58 133 -193 500 -234 637 -8 28 -19 59 -25 70 -5 11 -11 29 -14 40 -3 16 -42
150 -124 430 -5 17 -19 68 -31 115 -13 47 -27 89 -32 95 -4 5 -36 11 -71 12
-124 7 -257 8 -257 3z"/>
<path d="M10968 7364 c-4 -4 -40 -8 -80 -9 -40 -2 -76 -3 -79 -4 -5 -1 -25
-56 -35 -93 -1 -5 -2 -9 -3 -10 -2 -2 -4 -13 -7 -25 -8 -44 -9 -48 -16 -53 -4
-3 -9 -17 -11 -30 -3 -14 -24 -86 -47 -160 -45 -149 -44 -143 -55 -185 -4 -16
-10 -34 -14 -40 -3 -5 -6 -15 -7 -22 -1 -6 -17 -58 -35 -115 -18 -57 -33 -107
-34 -113 0 -5 -7 -23 -13 -39 -7 -16 -14 -36 -16 -45 -2 -9 -6 -23 -9 -31 -3
-8 -17 -49 -31 -90 -25 -75 -88 -252 -99 -280 -4 -8 -23 -58 -42 -110 -52
-136 -207 -494 -217 -498 -4 -2 -8 -9 -8 -16 0 -6 -30 -70 -66 -141 -37 -72
-74 -143 -82 -160 -8 -16 -24 -42 -34 -57 -11 -16 -16 -28 -11 -28 4 0 3 -4
-3 -8 -6 -4 -25 -34 -44 -67 -19 -33 -38 -63 -43 -66 -5 -3 -9 -10 -9 -15 -2
-27 -307 -472 -330 -482 -5 -2 -8 -10 -8 -18 0 -8 -6 -14 -14 -14 -8 0 -16 -7
-18 -15 -9 -40 -363 -421 -519 -558 -30 -26 -61 -53 -69 -61 -8 -7 -41 -34
-73 -60 -100 -81 -123 -101 -216 -184 -41 -37 -101 -92 -133 -123 -33 -31 -69
-66 -81 -76 -64 -58 -338 -354 -345 -373 -4 -10 140 -2 253 14 22 3 58 8 80
10 22 3 90 15 150 26 139 25 145 26 189 38 20 6 36 8 36 6 0 -3 8 0 19 5 10 6
31 13 47 15 16 3 61 15 99 26 39 12 77 23 85 25 108 28 416 149 597 237 34 16
65 29 69 28 4 -1 10 2 13 7 3 5 44 29 91 54 47 24 87 47 88 52 2 4 8 7 12 7
13 0 264 153 315 193 6 4 64 46 130 92 65 47 122 89 125 93 3 4 30 26 60 49
30 23 69 54 87 70 17 15 51 44 74 63 93 76 243 236 454 484 28 33 56 65 63 72
6 7 12 15 12 19 0 4 6 12 13 20 14 15 29 34 77 95 19 25 38 47 42 48 5 2 8 10
8 18 0 8 5 14 10 14 6 0 10 6 10 14 0 8 3 16 8 18 9 4 62 74 62 82 0 3 9 16
20 28 10 13 49 70 86 128 36 58 75 117 85 132 10 15 19 29 19 32 0 2 23 44 51
93 51 88 186 359 191 385 2 7 6 16 11 19 4 3 9 14 12 25 2 10 16 48 31 84 30
72 84 225 89 253 2 9 6 21 9 26 7 11 57 188 61 218 2 11 6 30 10 42 3 11 8 33
11 48 3 16 9 44 15 64 5 20 12 58 15 85 3 27 7 51 9 54 4 6 17 105 21 155 1
17 3 30 4 30 2 0 8 80 14 187 l5 86 -117 58 c-64 32 -119 59 -122 60 -3 0 -23
9 -45 19 -22 10 -44 20 -50 21 -5 2 -53 18 -106 37 -84 30 -184 59 -214 62 -5
1 -26 4 -45 8 -93 19 -181 29 -272 31 -37 1 -71 5 -74 9 -4 3 -14 3 -23 -2 -9
-5 -25 -5 -36 -1 -11 4 -32 4 -47 -1 -16 -4 -28 -3 -30 2 -2 6 -7 7 -10 3z"/>
<path d="M12070 5113 c0 -7 -54 -84 -93 -133 -7 -8 -26 -33 -42 -55 -17 -22
-36 -46 -42 -55 -7 -8 -25 -31 -40 -51 -33 -44 -194 -242 -202 -249 -3 -3 -21
-23 -40 -45 -94 -111 -192 -215 -352 -374 -202 -202 -276 -269 -469 -426 -25
-20 -53 -42 -62 -50 -40 -33 -248 -184 -303 -220 -33 -22 -62 -43 -65 -46 -4
-5 -50 -34 -188 -116 -92 -56 -161 -93 -171 -93 -6 0 -11 -4 -11 -8 0 -7 -62
-43 -80 -47 -3 0 -25 -11 -50 -24 -25 -13 -47 -23 -49 -22 -2 2 -7 -1 -10 -6
-8 -12 -204 -102 -396 -183 -11 -4 -36 -15 -55 -23 -19 -9 -47 -19 -62 -22
-16 -4 -28 -11 -28 -17 0 -5 -4 -7 -10 -3 -5 3 -17 1 -27 -5 -21 -12 -327
-119 -362 -126 -13 -3 -55 -16 -94 -29 -38 -14 -73 -22 -78 -19 -5 3 -9 1 -9
-4 0 -5 -6 -9 -12 -10 -7 0 -24 -3 -38 -7 -14 -3 -32 -8 -40 -10 -8 -2 -15 -4
-15 -5 0 -1 -7 -3 -15 -5 -8 -2 -76 -20 -150 -40 -129 -34 -147 -38 -205 -50
-13 -3 -37 -10 -52 -16 -16 -6 -29 -10 -31 -9 -7 3 -122 -23 -118 -28 3 -2 1
-13 -4 -23 -7 -11 -7 -20 0 -24 6 -3 6 -15 0 -29 -11 -31 1 -46 70 -84 58 -32
302 -155 310 -157 6 -2 12 -4 119 -46 40 -16 81 -29 90 -29 9 0 21 -4 26 -8 8
-7 47 -21 105 -37 3 -1 23 -5 45 -10 22 -4 45 -10 50 -14 6 -3 21 -7 35 -9 14
-1 36 -7 50 -12 14 -4 57 -14 95 -21 39 -6 79 -13 90 -16 46 -8 87 -14 235
-30 86 -9 453 -10 560 -1 87 8 95 9 190 23 30 5 62 9 70 10 8 1 29 4 45 8 17
4 41 9 55 11 14 2 48 10 75 16 28 6 60 14 72 16 12 2 33 8 45 13 13 5 26 9 31
10 4 0 8 1 10 2 1 0 9 2 17 4 8 1 42 11 75 21 33 10 62 19 65 19 3 1 12 4 20
8 8 3 49 17 90 32 41 14 82 28 90 32 8 3 17 7 20 8 5 2 47 19 95 40 116 51
434 212 445 226 3 3 21 14 40 24 45 23 259 164 284 187 11 10 23 18 28 18 4 0
21 11 36 24 35 31 59 52 113 98 177 147 310 274 424 403 39 44 77 88 87 98 9
10 48 65 86 120 130 189 236 422 287 627 2 8 4 15 5 15 10 0 18 109 10 131 -5
11 -11 36 -15 55 -7 38 -13 64 -15 64 -1 0 -3 11 -6 25 -18 100 -87 256 -148
335 -58 74 -173 183 -284 270 -14 11 -33 27 -43 36 -9 9 -41 35 -71 57 -30 22
-61 47 -69 54 -24 24 -69 51 -69 41z"/>
<path d="M536 4807 c-36 -35 -66 -62 -66 -61 0 2 -40 -36 -88 -84 -89 -87
-192 -211 -192 -230 0 -6 -4 -12 -8 -14 -11 -4 -74 -128 -66 -128 4 0 2 -6 -4
-12 -15 -19 -56 -164 -69 -244 -13 -82 -8 -192 12 -264 2 -8 6 -26 9 -40 40
-204 120 -307 540 -685 6 -6 38 -33 71 -61 33 -27 69 -57 80 -66 66 -56 187
-146 295 -221 69 -47 130 -89 136 -94 5 -4 23 -15 40 -24 16 -9 70 -40 119
-69 88 -52 274 -147 368 -189 61 -28 247 -101 267 -106 8 -2 42 -12 75 -24 57
-19 188 -57 228 -66 10 -2 26 -6 35 -9 30 -9 77 -18 95 -18 9 1 17 -2 17 -6 0
-4 10 -7 23 -8 12 0 38 -4 57 -8 121 -23 246 -40 375 -50 11 -1 25 -5 32 -9 6
-4 14 -3 17 2 3 4 23 5 45 1 32 -6 526 -7 526 -1 0 1 45 4 100 6 138 6 322 22
370 31 36 7 110 17 128 18 9 0 17 3 17 6 0 3 8 6 18 6 24 1 67 10 137 28 56
15 82 24 130 42 11 4 22 8 25 9 3 0 27 11 54 23 27 12 50 22 53 22 2 0 45 25
96 56 97 59 184 130 251 203 23 25 49 53 59 63 20 21 22 38 5 39 -32 3 -95 14
-108 19 -3 1 -9 2 -14 1 -5 -1 -32 3 -60 8 -28 6 -63 13 -78 16 -16 3 -39 7
-53 10 -14 3 -35 7 -47 9 -37 7 -202 38 -213 41 -5 1 -21 5 -35 8 -14 3 -68
15 -120 27 -124 27 -128 28 -175 40 -22 6 -51 13 -65 16 -73 15 -369 103 -539
160 -172 58 -296 106 -428 165 -24 10 -45 19 -48 19 -8 0 -339 163 -345 169
-3 3 -21 14 -40 23 -72 35 -165 90 -168 99 -2 5 -8 9 -14 9 -19 0 -287 177
-406 269 -41 31 -81 61 -90 66 -19 12 -50 36 -66 51 -6 5 -56 48 -111 94 -55
46 -112 95 -126 109 -15 14 -57 53 -94 86 -36 33 -81 74 -99 90 -18 17 -63 57
-101 90 -37 33 -73 65 -79 71 -16 16 -198 176 -220 194 -10 8 -34 30 -53 48
-19 17 -36 32 -38 32 -2 0 -15 10 -27 23 -48 45 -129 117 -133 117 -2 0 -21
15 -40 34 -80 76 -92 86 -103 86 -6 0 -40 -28 -76 -63z"/>
</g>
</svg>
