<svg width="764" height="314" viewBox="0 0 764 314" fill="none" xmlns="http://www.w3.org/2000/svg">
<g clip-path="url(#clip0_732_505)">
<path d="M33.206 20.108C33.038 20.108 32.876 20.096 32.72 20.072C32.564 20.06 32.39 20.03 32.198 19.982L32.306 18.794C32.51 18.842 32.708 18.866 32.9 18.866C33.44 18.866 33.872 18.656 34.196 18.236C34.532 17.804 34.784 17.144 34.952 16.256C35.12 15.356 35.228 14.204 35.276 12.8L35.456 7.4H44.006V20H42.692V8.192L43.034 8.552H36.302L36.626 8.174L36.464 12.764C36.416 14.024 36.326 15.116 36.194 16.04C36.062 16.952 35.87 17.714 35.618 18.326C35.366 18.926 35.042 19.376 34.646 19.676C34.25 19.964 33.77 20.108 33.206 20.108ZM52.5408 20.09C51.5568 20.09 50.6928 19.886 49.9488 19.478C49.2048 19.058 48.6228 18.488 48.2028 17.768C47.7828 17.036 47.5728 16.202 47.5728 15.266C47.5728 14.33 47.7708 13.502 48.1668 12.782C48.5748 12.062 49.1268 11.498 49.8228 11.09C50.5308 10.67 51.3228 10.46 52.1988 10.46C53.0868 10.46 53.8728 10.664 54.5568 11.072C55.2528 11.468 55.7988 12.032 56.1948 12.764C56.5908 13.484 56.7888 14.318 56.7888 15.266C56.7888 15.326 56.7828 15.392 56.7708 15.464C56.7708 15.524 56.7708 15.59 56.7708 15.662H48.5448V14.708H56.0868L55.5828 15.086C55.5828 14.402 55.4328 13.796 55.1328 13.268C54.8448 12.728 54.4488 12.308 53.9448 12.008C53.4408 11.708 52.8588 11.558 52.1988 11.558C51.5508 11.558 50.9688 11.708 50.4528 12.008C49.9368 12.308 49.5348 12.728 49.2468 13.268C48.9588 13.808 48.8148 14.426 48.8148 15.122V15.32C48.8148 16.04 48.9708 16.676 49.2828 17.228C49.6068 17.768 50.0508 18.194 50.6148 18.506C51.1908 18.806 51.8448 18.956 52.5768 18.956C53.1528 18.956 53.6868 18.854 54.1788 18.65C54.6828 18.446 55.1148 18.134 55.4748 17.714L56.1948 18.542C55.7748 19.046 55.2468 19.43 54.6108 19.694C53.9868 19.958 53.2968 20.09 52.5408 20.09ZM60.1578 20V10.55H61.4358V18.056L67.7538 10.55H68.8878V20H67.6098V12.476L61.3098 20H60.1578ZM64.4418 9.182C63.6498 9.182 63.0078 8.984 62.5158 8.588C62.0358 8.18 61.7838 7.598 61.7598 6.842H62.6778C62.6898 7.322 62.8578 7.7 63.1818 7.976C63.5058 8.252 63.9258 8.39 64.4418 8.39C64.9578 8.39 65.3778 8.252 65.7018 7.976C66.0378 7.7 66.2118 7.322 66.2238 6.842H67.1418C67.1298 7.598 66.8778 8.18 66.3858 8.588C65.8938 8.984 65.2458 9.182 64.4418 9.182ZM77.3383 20.108C76.5703 20.108 75.8863 19.982 75.2863 19.73C74.6983 19.478 74.1943 19.094 73.7743 18.578C73.3543 18.062 73.0363 17.426 72.8203 16.67C72.6043 15.902 72.4963 15.014 72.4963 14.006C72.4963 13.106 72.5803 12.32 72.7483 11.648C72.9163 10.964 73.1503 10.376 73.4503 9.884C73.7503 9.392 74.0983 8.978 74.4943 8.642C74.9023 8.294 75.3403 8.018 75.8083 7.814C76.2883 7.598 76.7803 7.436 77.2843 7.328L81.5323 6.338L81.7483 7.526L77.7523 8.426C77.5003 8.486 77.1943 8.57 76.8343 8.678C76.4863 8.786 76.1263 8.948 75.7543 9.164C75.3943 9.38 75.0583 9.68 74.7463 10.064C74.4343 10.448 74.1823 10.946 73.9903 11.558C73.8103 12.158 73.7203 12.908 73.7203 13.808C73.7203 14 73.7263 14.156 73.7383 14.276C73.7503 14.384 73.7623 14.504 73.7743 14.636C73.7983 14.756 73.8163 14.936 73.8283 15.176L73.2703 14.708C73.4023 13.976 73.6723 13.34 74.0803 12.8C74.4883 12.248 74.9983 11.822 75.6103 11.522C76.2343 11.21 76.9243 11.054 77.6803 11.054C78.5563 11.054 79.3363 11.246 80.0203 11.63C80.7043 12.002 81.2383 12.524 81.6223 13.196C82.0183 13.868 82.2163 14.648 82.2163 15.536C82.2163 16.412 82.0123 17.198 81.6043 17.894C81.2083 18.59 80.6443 19.136 79.9123 19.532C79.1803 19.916 78.3223 20.108 77.3383 20.108ZM77.4823 19.046C78.1543 19.046 78.7483 18.896 79.2643 18.596C79.7803 18.284 80.1823 17.864 80.4703 17.336C80.7703 16.808 80.9203 16.214 80.9203 15.554C80.9203 14.906 80.7703 14.33 80.4703 13.826C80.1823 13.322 79.7803 12.926 79.2643 12.638C78.7483 12.338 78.1483 12.188 77.4643 12.188C76.7923 12.188 76.1983 12.332 75.6823 12.62C75.1663 12.896 74.7583 13.286 74.4583 13.79C74.1703 14.294 74.0263 14.876 74.0263 15.536C74.0263 16.196 74.1703 16.79 74.4583 17.318C74.7583 17.846 75.1663 18.266 75.6823 18.578C76.2103 18.89 76.8103 19.046 77.4823 19.046ZM83.7148 19.982L83.8048 18.884C83.8888 18.896 83.9668 18.914 84.0388 18.938C84.1228 18.95 84.1948 18.956 84.2548 18.956C84.6388 18.956 84.9448 18.812 85.1728 18.524C85.4128 18.236 85.5928 17.852 85.7128 17.372C85.8328 16.892 85.9168 16.352 85.9648 15.752C86.0128 15.14 86.0548 14.528 86.0908 13.916L86.2528 10.55H93.1828V20H91.9048V11.288L92.2288 11.666H87.0808L87.3868 11.27L87.2428 14.006C87.2068 14.822 87.1408 15.602 87.0448 16.346C86.9608 17.09 86.8228 17.744 86.6308 18.308C86.4508 18.872 86.1988 19.316 85.8748 19.64C85.5508 19.952 85.1368 20.108 84.6328 20.108C84.4888 20.108 84.3388 20.096 84.1828 20.072C84.0388 20.048 83.8828 20.018 83.7148 19.982Z" fill="#213457"/>
<path d="M36.112 47V36.504L36.432 36.824H32.176V35.8H41.216V36.824H36.976L37.28 36.504V47H36.112ZM46.2272 47.08C45.3526 47.08 44.5846 46.8987 43.9232 46.536C43.2619 46.1627 42.7446 45.656 42.3712 45.016C41.9979 44.3653 41.8112 43.624 41.8112 42.792C41.8112 41.96 41.9872 41.224 42.3392 40.584C42.7019 39.944 43.1926 39.4427 43.8112 39.08C44.4406 38.7067 45.1446 38.52 45.9232 38.52C46.7126 38.52 47.4112 38.7013 48.0192 39.064C48.6379 39.416 49.1233 39.9173 49.4753 40.568C49.8273 41.208 50.0033 41.9493 50.0033 42.792C50.0033 42.8453 49.9979 42.904 49.9873 42.968C49.9873 43.0213 49.9873 43.08 49.9873 43.144H42.6752V42.296H49.3792L48.9313 42.632C48.9313 42.024 48.7979 41.4853 48.5312 41.016C48.2752 40.536 47.9232 40.1627 47.4752 39.896C47.0272 39.6293 46.5099 39.496 45.9232 39.496C45.3472 39.496 44.8299 39.6293 44.3712 39.896C43.9126 40.1627 43.5552 40.536 43.2992 41.016C43.0432 41.496 42.9152 42.0453 42.9152 42.664V42.84C42.9152 43.48 43.0539 44.0453 43.3312 44.536C43.6192 45.016 44.0139 45.3947 44.5152 45.672C45.0272 45.9387 45.6086 46.072 46.2592 46.072C46.7712 46.072 47.2459 45.9813 47.6832 45.8C48.1312 45.6187 48.5152 45.3413 48.8352 44.968L49.4753 45.704C49.1019 46.152 48.6326 46.4933 48.0672 46.728C47.5126 46.9627 46.8992 47.08 46.2272 47.08ZM59.1579 47L55.7019 42.84L56.6459 42.28L60.5019 47H59.1579ZM52.9979 47V38.6H54.1339V47H52.9979ZM53.7819 43.256V42.28H56.4859V43.256H53.7819ZM56.7419 42.92L55.6859 42.76L59.0299 38.6H60.2619L56.7419 42.92ZM65.9979 47.08C65.1659 47.08 64.4192 46.8987 63.7579 46.536C63.1072 46.1627 62.5952 45.656 62.2219 45.016C61.8485 44.3653 61.6619 43.624 61.6619 42.792C61.6619 41.9493 61.8485 41.208 62.2219 40.568C62.5952 39.928 63.1072 39.4267 63.7579 39.064C64.4192 38.7013 65.1659 38.52 65.9979 38.52C66.7125 38.52 67.3579 38.6587 67.9339 38.936C68.5099 39.2133 68.9632 39.6293 69.2939 40.184L68.4459 40.76C68.1579 40.3333 67.8005 40.0187 67.3739 39.816C66.9472 39.6133 66.4832 39.512 65.9819 39.512C65.3845 39.512 64.8459 39.6507 64.3659 39.928C63.8859 40.1947 63.5072 40.5733 63.2299 41.064C62.9525 41.5547 62.8139 42.1307 62.8139 42.792C62.8139 43.4533 62.9525 44.0293 63.2299 44.52C63.5072 45.0107 63.8859 45.3947 64.3659 45.672C64.8459 45.9387 65.3845 46.072 65.9819 46.072C66.4832 46.072 66.9472 45.9707 67.3739 45.768C67.8005 45.5653 68.1579 45.256 68.4459 44.84L69.2939 45.416C68.9632 45.96 68.5099 46.376 67.9339 46.664C67.3579 46.9413 66.7125 47.08 65.9979 47.08ZM73.4172 47V39.288L73.7052 39.592H70.2332V38.6H77.7372V39.592H74.2652L74.5532 39.288V47H73.4172ZM84.5273 47V38.6H92.0793V47H90.9433V39.288L91.2313 39.592H85.3753L85.6633 39.288V47H84.5273ZM99.2445 47.08C98.4338 47.08 97.7032 46.8987 97.0525 46.536C96.4125 46.1627 95.9058 45.656 95.5325 45.016C95.1592 44.3653 94.9725 43.624 94.9725 42.792C94.9725 41.9493 95.1592 41.208 95.5325 40.568C95.9058 39.928 96.4125 39.4267 97.0525 39.064C97.6925 38.7013 98.4232 38.52 99.2445 38.52C100.077 38.52 100.813 38.7013 101.453 39.064C102.103 39.4267 102.61 39.928 102.973 40.568C103.346 41.208 103.533 41.9493 103.533 42.792C103.533 43.624 103.346 44.3653 102.973 45.016C102.61 45.656 102.103 46.1627 101.453 46.536C100.802 46.8987 100.066 47.08 99.2445 47.08ZM99.2445 46.072C99.8525 46.072 100.391 45.9387 100.861 45.672C101.33 45.3947 101.698 45.0107 101.965 44.52C102.242 44.0187 102.381 43.4427 102.381 42.792C102.381 42.1307 102.242 41.5547 101.965 41.064C101.698 40.5733 101.33 40.1947 100.861 39.928C100.391 39.6507 99.8578 39.512 99.2605 39.512C98.6632 39.512 98.1298 39.6507 97.6605 39.928C97.1912 40.1947 96.8178 40.5733 96.5405 41.064C96.2632 41.5547 96.1245 42.1307 96.1245 42.792C96.1245 43.4427 96.2632 44.0187 96.5405 44.52C96.8178 45.0107 97.1912 45.3947 97.6605 45.672C98.1298 45.9387 98.6578 46.072 99.2445 46.072ZM112.153 46.456V39.592H108.105L108.009 41.464C107.988 42.0293 107.951 42.584 107.897 43.128C107.855 43.672 107.775 44.1733 107.657 44.632C107.551 45.08 107.396 45.448 107.193 45.736C106.991 46.0133 106.729 46.1733 106.409 46.216L105.273 46.008C105.604 46.0187 105.876 45.9013 106.089 45.656C106.303 45.4 106.468 45.0533 106.585 44.616C106.703 44.1787 106.788 43.6827 106.841 43.128C106.895 42.5627 106.937 41.9867 106.969 41.4L107.081 38.6H113.289V46.456H112.153ZM104.921 49.032V46.008H114.601V49.032H113.529V47H105.993V49.032H104.921ZM120.815 47.08C119.983 47.08 119.237 46.8987 118.575 46.536C117.925 46.1627 117.413 45.656 117.039 45.016C116.666 44.3653 116.479 43.624 116.479 42.792C116.479 41.9493 116.666 41.208 117.039 40.568C117.413 39.928 117.925 39.4267 118.575 39.064C119.237 38.7013 119.983 38.52 120.815 38.52C121.53 38.52 122.175 38.6587 122.751 38.936C123.327 39.2133 123.781 39.6293 124.111 40.184L123.263 40.76C122.975 40.3333 122.618 40.0187 122.191 39.816C121.765 39.6133 121.301 39.512 120.799 39.512C120.202 39.512 119.663 39.6507 119.183 39.928C118.703 40.1947 118.325 40.5733 118.047 41.064C117.77 41.5547 117.631 42.1307 117.631 42.792C117.631 43.4533 117.77 44.0293 118.047 44.52C118.325 45.0107 118.703 45.3947 119.183 45.672C119.663 45.9387 120.202 46.072 120.799 46.072C121.301 46.072 121.765 45.9707 122.191 45.768C122.618 45.5653 122.975 45.256 123.263 44.84L124.111 45.416C123.781 45.96 123.327 46.376 122.751 46.664C122.175 46.9413 121.53 47.08 120.815 47.08ZM132.951 47L129.495 42.84L130.439 42.28L134.295 47H132.951ZM126.791 47V38.6H127.927V47H126.791ZM127.575 43.256V42.28H130.279V43.256H127.575ZM130.535 42.92L129.479 42.76L132.823 38.6H134.055L130.535 42.92ZM141.628 47V45.144L141.58 44.84V41.736C141.58 41.0213 141.377 40.472 140.972 40.088C140.577 39.704 139.985 39.512 139.196 39.512C138.652 39.512 138.134 39.6027 137.644 39.784C137.153 39.9653 136.737 40.2053 136.396 40.504L135.884 39.656C136.31 39.2933 136.822 39.016 137.42 38.824C138.017 38.6213 138.646 38.52 139.308 38.52C140.396 38.52 141.233 38.792 141.82 39.336C142.417 39.8693 142.716 40.6853 142.716 41.784V47H141.628ZM138.732 47.08C138.102 47.08 137.553 46.9787 137.084 46.776C136.625 46.5627 136.273 46.2747 136.028 45.912C135.782 45.5387 135.66 45.112 135.66 44.632C135.66 44.1947 135.761 43.8 135.964 43.448C136.177 43.0853 136.518 42.7973 136.988 42.584C137.468 42.36 138.108 42.248 138.908 42.248H141.804V43.096H138.94C138.129 43.096 137.564 43.24 137.244 43.528C136.934 43.816 136.78 44.1733 136.78 44.6C136.78 45.08 136.966 45.464 137.34 45.752C137.713 46.04 138.236 46.184 138.908 46.184C139.548 46.184 140.097 46.04 140.556 45.752C141.025 45.4533 141.366 45.0267 141.58 44.472L141.836 45.256C141.622 45.8107 141.249 46.2533 140.716 46.584C140.193 46.9147 139.532 47.08 138.732 47.08ZM148.304 47.096C147.696 47.096 147.093 47.0107 146.496 46.84C145.899 46.6693 145.371 46.408 144.912 46.056L145.28 45.208C145.685 45.5067 146.155 45.736 146.688 45.896C147.221 46.0453 147.749 46.12 148.272 46.12C148.795 46.1093 149.248 46.0347 149.632 45.896C150.016 45.7573 150.315 45.5653 150.528 45.32C150.741 45.0747 150.848 44.7973 150.848 44.488C150.848 44.04 150.645 43.6933 150.24 43.448C149.835 43.192 149.28 43.064 148.576 43.064H147.136V42.232H148.496C148.912 42.232 149.28 42.1787 149.6 42.072C149.92 41.9653 150.165 41.8107 150.336 41.608C150.517 41.4053 150.608 41.1653 150.608 40.888C150.608 40.5893 150.501 40.3333 150.288 40.12C150.085 39.9067 149.803 39.7467 149.44 39.64C149.077 39.5333 148.667 39.48 148.208 39.48C147.792 39.4907 147.36 39.5547 146.912 39.672C146.464 39.7787 146.021 39.944 145.584 40.168L145.264 39.288C145.755 39.032 146.24 38.84 146.72 38.712C147.211 38.5733 147.701 38.504 148.192 38.504C148.864 38.4827 149.467 38.5627 150 38.744C150.544 38.9253 150.976 39.1867 151.296 39.528C151.616 39.8587 151.776 40.2587 151.776 40.728C151.776 41.144 151.648 41.5067 151.392 41.816C151.136 42.1253 150.795 42.3653 150.368 42.536C149.941 42.7067 149.456 42.792 148.912 42.792L148.96 42.488C149.92 42.488 150.667 42.6747 151.2 43.048C151.744 43.4213 152.016 43.928 152.016 44.568C152.016 45.0693 151.851 45.512 151.52 45.896C151.189 46.2693 150.741 46.5627 150.176 46.776C149.621 46.9893 148.997 47.096 148.304 47.096ZM161.235 47L157.779 42.84L158.723 42.28L162.579 47H161.235ZM155.075 47V38.6H156.211V47H155.075ZM155.859 43.256V42.28H158.563V43.256H155.859ZM158.819 42.92L157.763 42.76L161.107 38.6H162.339L158.819 42.92ZM164.852 47V38.6H165.988V45.272L171.604 38.6H172.612V47H171.476V40.312L165.876 47H164.852ZM181.015 47V38.6H188.567V47H187.431V39.288L187.719 39.592H181.863L182.151 39.288V47H181.015ZM195.732 47.08C194.921 47.08 194.191 46.8987 193.54 46.536C192.9 46.1627 192.393 45.656 192.02 45.016C191.647 44.3653 191.46 43.624 191.46 42.792C191.46 41.9493 191.647 41.208 192.02 40.568C192.393 39.928 192.9 39.4267 193.54 39.064C194.18 38.7013 194.911 38.52 195.732 38.52C196.564 38.52 197.3 38.7013 197.94 39.064C198.591 39.4267 199.097 39.928 199.46 40.568C199.833 41.208 200.02 41.9493 200.02 42.792C200.02 43.624 199.833 44.3653 199.46 45.016C199.097 45.656 198.591 46.1627 197.94 46.536C197.289 46.8987 196.553 47.08 195.732 47.08ZM195.732 46.072C196.34 46.072 196.879 45.9387 197.348 45.672C197.817 45.3947 198.185 45.0107 198.452 44.52C198.729 44.0187 198.868 43.4427 198.868 42.792C198.868 42.1307 198.729 41.5547 198.452 41.064C198.185 40.5733 197.817 40.1947 197.348 39.928C196.879 39.6507 196.345 39.512 195.748 39.512C195.151 39.512 194.617 39.6507 194.148 39.928C193.679 40.1947 193.305 40.5733 193.028 41.064C192.751 41.5547 192.612 42.1307 192.612 42.792C192.612 43.4427 192.751 44.0187 193.028 44.52C193.305 45.0107 193.679 45.3947 194.148 45.672C194.617 45.9387 195.145 46.072 195.732 46.072ZM208.055 47V43.976L208.263 44.216H205.415C204.338 44.216 203.495 43.9813 202.887 43.512C202.279 43.0427 201.975 42.36 201.975 41.464C201.975 40.504 202.3 39.7893 202.951 39.32C203.602 38.84 204.471 38.6 205.559 38.6H209.095V47H208.055ZM201.911 47L204.215 43.768H205.399L203.143 47H201.911ZM208.055 43.64V39.256L208.263 39.592H205.591C204.812 39.592 204.204 39.7413 203.767 40.04C203.34 40.3387 203.127 40.824 203.127 41.496C203.127 42.744 203.922 43.368 205.511 43.368H208.263L208.055 43.64ZM212.814 47V38.6H216.526C217.475 38.6 218.222 38.7813 218.766 39.144C219.321 39.5067 219.598 40.04 219.598 40.744C219.598 41.4267 219.337 41.9547 218.814 42.328C218.291 42.6907 217.603 42.872 216.75 42.872L216.974 42.536C217.977 42.536 218.713 42.7227 219.182 43.096C219.651 43.4693 219.886 44.008 219.886 44.712C219.886 45.4373 219.619 46.0027 219.086 46.408C218.563 46.8027 217.747 47 216.638 47H212.814ZM213.918 46.104H216.59C217.305 46.104 217.843 45.992 218.206 45.768C218.579 45.5333 218.766 45.16 218.766 44.648C218.766 44.136 218.601 43.7627 218.27 43.528C217.939 43.2933 217.417 43.176 216.702 43.176H213.918V46.104ZM213.918 42.328H216.446C217.097 42.328 217.593 42.2053 217.934 41.96C218.286 41.7147 218.462 41.3573 218.462 40.888C218.462 40.4187 218.286 40.0667 217.934 39.832C217.593 39.5973 217.097 39.48 216.446 39.48H213.918V42.328ZM221.493 46.984L221.573 46.008C221.647 46.0187 221.717 46.0347 221.781 46.056C221.855 46.0667 221.919 46.072 221.973 46.072C222.314 46.072 222.586 45.944 222.789 45.688C223.002 45.432 223.162 45.0907 223.269 44.664C223.375 44.2373 223.45 43.7573 223.493 43.224C223.535 42.68 223.573 42.136 223.605 41.592L223.749 38.6H229.909V47H228.773V39.256L229.061 39.592H224.485L224.757 39.24L224.629 41.672C224.597 42.3973 224.538 43.0907 224.453 43.752C224.378 44.4133 224.255 44.9947 224.085 45.496C223.925 45.9973 223.701 46.392 223.413 46.68C223.125 46.9573 222.757 47.096 222.309 47.096C222.181 47.096 222.047 47.0853 221.909 47.064C221.781 47.0427 221.642 47.016 221.493 46.984ZM239.042 47V43.976L239.25 44.216H236.402C235.325 44.216 234.482 43.9813 233.874 43.512C233.266 43.0427 232.962 42.36 232.962 41.464C232.962 40.504 233.287 39.7893 233.938 39.32C234.589 38.84 235.458 38.6 236.546 38.6H240.082V47H239.042ZM232.898 47L235.202 43.768H236.386L234.13 47H232.898ZM239.042 43.64V39.256L239.25 39.592H236.578C235.799 39.592 235.191 39.7413 234.754 40.04C234.327 40.3387 234.114 40.824 234.114 41.496C234.114 42.744 234.909 43.368 236.498 43.368H239.25L239.042 43.64ZM247.401 47.08C246.526 47.08 245.758 46.8987 245.097 46.536C244.436 46.1627 243.918 45.656 243.545 45.016C243.172 44.3653 242.985 43.624 242.985 42.792C242.985 41.96 243.161 41.224 243.513 40.584C243.876 39.944 244.366 39.4427 244.985 39.08C245.614 38.7067 246.318 38.52 247.097 38.52C247.886 38.52 248.585 38.7013 249.193 39.064C249.812 39.416 250.297 39.9173 250.649 40.568C251.001 41.208 251.177 41.9493 251.177 42.792C251.177 42.8453 251.172 42.904 251.161 42.968C251.161 43.0213 251.161 43.08 251.161 43.144H243.849V42.296H250.553L250.105 42.632C250.105 42.024 249.972 41.4853 249.705 41.016C249.449 40.536 249.097 40.1627 248.649 39.896C248.201 39.6293 247.684 39.496 247.097 39.496C246.521 39.496 246.004 39.6293 245.545 39.896C245.086 40.1627 244.729 40.536 244.473 41.016C244.217 41.496 244.089 42.0453 244.089 42.664V42.84C244.089 43.48 244.228 44.0453 244.505 44.536C244.793 45.016 245.188 45.3947 245.689 45.672C246.201 45.9387 246.782 46.072 247.433 46.072C247.945 46.072 248.42 45.9813 248.857 45.8C249.305 45.6187 249.689 45.3413 250.009 44.968L250.649 45.704C250.276 46.152 249.806 46.4933 249.241 46.728C248.686 46.9627 248.073 47.08 247.401 47.08ZM255.397 47V39.288L255.685 39.592H252.213V38.6H259.717V39.592H256.245L256.533 39.288V47H255.397ZM264.969 47.08C264.137 47.08 263.39 46.8987 262.729 46.536C262.078 46.1627 261.566 45.656 261.193 45.016C260.819 44.3653 260.633 43.624 260.633 42.792C260.633 41.9493 260.819 41.208 261.193 40.568C261.566 39.928 262.078 39.4267 262.729 39.064C263.39 38.7013 264.137 38.52 264.969 38.52C265.683 38.52 266.329 38.6587 266.905 38.936C267.481 39.2133 267.934 39.6293 268.265 40.184L267.417 40.76C267.129 40.3333 266.771 40.0187 266.345 39.816C265.918 39.6133 265.454 39.512 264.953 39.512C264.355 39.512 263.817 39.6507 263.337 39.928C262.857 40.1947 262.478 40.5733 262.201 41.064C261.923 41.5547 261.785 42.1307 261.785 42.792C261.785 43.4533 261.923 44.0293 262.201 44.52C262.478 45.0107 262.857 45.3947 263.337 45.672C263.817 45.9387 264.355 46.072 264.953 46.072C265.454 46.072 265.918 45.9707 266.345 45.768C266.771 45.5653 267.129 45.256 267.417 44.84L268.265 45.416C267.934 45.96 267.481 46.376 266.905 46.664C266.329 46.9413 265.683 47.08 264.969 47.08ZM276.087 47V43.976L276.295 44.216H273.447C272.37 44.216 271.527 43.9813 270.919 43.512C270.311 43.0427 270.007 42.36 270.007 41.464C270.007 40.504 270.332 39.7893 270.983 39.32C271.634 38.84 272.503 38.6 273.591 38.6H277.127V47H276.087ZM269.943 47L272.247 43.768H273.431L271.175 47H269.943ZM276.087 43.64V39.256L276.295 39.592H273.623C272.844 39.592 272.236 39.7413 271.799 40.04C271.372 40.3387 271.159 40.824 271.159 41.496C271.159 42.744 271.954 43.368 273.543 43.368H276.295L276.087 43.64ZM287.77 47.096C287.162 47.096 286.559 47.0107 285.962 46.84C285.364 46.6693 284.836 46.408 284.378 46.056L284.746 45.208C285.151 45.5067 285.62 45.736 286.154 45.896C286.687 46.0453 287.215 46.12 287.738 46.12C288.26 46.1093 288.714 46.0347 289.098 45.896C289.482 45.7573 289.78 45.5653 289.994 45.32C290.207 45.0747 290.314 44.7973 290.314 44.488C290.314 44.04 290.111 43.6933 289.706 43.448C289.3 43.192 288.746 43.064 288.042 43.064H286.602V42.232H287.962C288.378 42.232 288.746 42.1787 289.066 42.072C289.386 41.9653 289.631 41.8107 289.802 41.608C289.983 41.4053 290.074 41.1653 290.074 40.888C290.074 40.5893 289.967 40.3333 289.754 40.12C289.551 39.9067 289.268 39.7467 288.906 39.64C288.543 39.5333 288.132 39.48 287.674 39.48C287.258 39.4907 286.826 39.5547 286.378 39.672C285.93 39.7787 285.487 39.944 285.05 40.168L284.73 39.288C285.22 39.032 285.706 38.84 286.186 38.712C286.676 38.5733 287.167 38.504 287.658 38.504C288.33 38.4827 288.932 38.5627 289.466 38.744C290.01 38.9253 290.442 39.1867 290.762 39.528C291.082 39.8587 291.242 40.2587 291.242 40.728C291.242 41.144 291.114 41.5067 290.858 41.816C290.602 42.1253 290.26 42.3653 289.834 42.536C289.407 42.7067 288.922 42.792 288.378 42.792L288.426 42.488C289.386 42.488 290.132 42.6747 290.666 43.048C291.21 43.4213 291.482 43.928 291.482 44.568C291.482 45.0693 291.316 45.512 290.986 45.896C290.655 46.2693 290.207 46.5627 289.642 46.776C289.087 46.9893 288.463 47.096 287.77 47.096ZM300.3 46.456V39.592H296.252L296.156 41.464C296.135 42.0293 296.098 42.584 296.044 43.128C296.002 43.672 295.922 44.1733 295.804 44.632C295.698 45.08 295.543 45.448 295.34 45.736C295.138 46.0133 294.876 46.1733 294.556 46.216L293.42 46.008C293.751 46.0187 294.023 45.9013 294.236 45.656C294.45 45.4 294.615 45.0533 294.732 44.616C294.85 44.1787 294.935 43.6827 294.988 43.128C295.042 42.5627 295.084 41.9867 295.116 41.4L295.228 38.6H301.436V46.456H300.3ZM293.068 49.032V46.008H302.748V49.032H301.676V47H294.14V49.032H293.068ZM309.042 47.08C308.168 47.08 307.4 46.8987 306.738 46.536C306.077 46.1627 305.56 45.656 305.186 45.016C304.813 44.3653 304.626 43.624 304.626 42.792C304.626 41.96 304.802 41.224 305.154 40.584C305.517 39.944 306.008 39.4427 306.626 39.08C307.256 38.7067 307.96 38.52 308.738 38.52C309.528 38.52 310.226 38.7013 310.834 39.064C311.453 39.416 311.938 39.9173 312.29 40.568C312.642 41.208 312.818 41.9493 312.818 42.792C312.818 42.8453 312.813 42.904 312.802 42.968C312.802 43.0213 312.802 43.08 312.802 43.144H305.49V42.296H312.194L311.746 42.632C311.746 42.024 311.613 41.4853 311.346 41.016C311.09 40.536 310.738 40.1627 310.29 39.896C309.842 39.6293 309.325 39.496 308.738 39.496C308.162 39.496 307.645 39.6293 307.186 39.896C306.728 40.1627 306.37 40.536 306.114 41.016C305.858 41.496 305.73 42.0453 305.73 42.664V42.84C305.73 43.48 305.869 44.0453 306.146 44.536C306.434 45.016 306.829 45.3947 307.33 45.672C307.842 45.9387 308.424 46.072 309.074 46.072C309.586 46.072 310.061 45.9813 310.498 45.8C310.946 45.6187 311.33 45.3413 311.65 44.968L312.29 45.704C311.917 46.152 311.448 46.4933 310.882 46.728C310.328 46.9627 309.714 47.08 309.042 47.08ZM319.333 47.08C318.501 47.08 317.754 46.8987 317.093 46.536C316.442 46.1627 315.93 45.656 315.557 45.016C315.184 44.3653 314.997 43.624 314.997 42.792C314.997 41.9493 315.184 41.208 315.557 40.568C315.93 39.928 316.442 39.4267 317.093 39.064C317.754 38.7013 318.501 38.52 319.333 38.52C320.048 38.52 320.693 38.6587 321.269 38.936C321.845 39.2133 322.298 39.6293 322.629 40.184L321.781 40.76C321.493 40.3333 321.136 40.0187 320.709 39.816C320.282 39.6133 319.818 39.512 319.317 39.512C318.72 39.512 318.181 39.6507 317.701 39.928C317.221 40.1947 316.842 40.5733 316.565 41.064C316.288 41.5547 316.149 42.1307 316.149 42.792C316.149 43.4533 316.288 44.0293 316.565 44.52C316.842 45.0107 317.221 45.3947 317.701 45.672C318.181 45.9387 318.72 46.072 319.317 46.072C319.818 46.072 320.282 45.9707 320.709 45.768C321.136 45.5653 321.493 45.256 321.781 44.84L322.629 45.416C322.298 45.96 321.845 46.376 321.269 46.664C320.693 46.9413 320.048 47.08 319.333 47.08ZM328.925 41.56C329.981 41.5707 330.781 41.8053 331.325 42.264C331.879 42.7227 332.157 43.384 332.157 44.248C332.157 45.144 331.858 45.832 331.261 46.312C330.674 46.792 329.821 47.0267 328.701 47.016L325.309 47V38.6H326.445V41.528L328.925 41.56ZM328.637 46.152C329.415 46.1627 330.002 46.008 330.397 45.688C330.802 45.3573 331.005 44.8773 331.005 44.248C331.005 43.6187 330.807 43.16 330.413 42.872C330.018 42.5733 329.426 42.4187 328.637 42.408L326.445 42.376V46.12L328.637 46.152Z" fill="#213457"/>
<rect x="33" y="65" width="707" height="248" rx="46" stroke="#213457" stroke-width="2"/>
<line y1="-1" x2="43.2697" y2="-1" transform="matrix(0.718541 -0.695485 0.672248 0.740326 695.477 300)" stroke="#213457" stroke-width="2"/>
<line y1="-1" x2="34.4191" y2="-1" transform="matrix(0.718541 -0.695485 0.672248 0.740326 703.225 302.938)" stroke="#213457" stroke-width="2"/>
<path d="M679.784 47V36.28L680.296 36.824H677.144V35.8H680.936V47H679.784ZM688.557 47.096C687.693 47.096 686.925 46.872 686.253 46.424C685.581 45.9653 685.053 45.3147 684.669 44.472C684.285 43.6187 684.093 42.5947 684.093 41.4C684.093 40.2053 684.285 39.1867 684.669 38.344C685.053 37.4907 685.581 36.84 686.253 36.392C686.925 35.9333 687.693 35.704 688.557 35.704C689.421 35.704 690.189 35.9333 690.861 36.392C691.533 36.84 692.061 37.4907 692.445 38.344C692.84 39.1867 693.037 40.2053 693.037 41.4C693.037 42.5947 692.84 43.6187 692.445 44.472C692.061 45.3147 691.533 45.9653 690.861 46.424C690.189 46.872 689.421 47.096 688.557 47.096ZM688.557 46.04C689.219 46.04 689.795 45.864 690.285 45.512C690.776 45.1493 691.16 44.6267 691.437 43.944C691.715 43.2507 691.853 42.4027 691.853 41.4C691.853 40.3973 691.715 39.5547 691.437 38.872C691.16 38.1787 690.776 37.656 690.285 37.304C689.795 36.9413 689.219 36.76 688.557 36.76C687.917 36.76 687.347 36.9413 686.845 37.304C686.344 37.656 685.955 38.1787 685.677 38.872C685.4 39.5547 685.261 40.3973 685.261 41.4C685.261 42.4027 685.4 43.2507 685.677 43.944C685.955 44.6267 686.344 45.1493 686.845 45.512C687.347 45.864 687.917 46.04 688.557 46.04ZM693.622 48.6L698.902 33.528H699.942L694.662 48.6H693.622ZM703.13 47V36.28L703.642 36.824H700.49V35.8H704.282V47H703.13ZM711.904 47.096C711.04 47.096 710.272 46.872 709.6 46.424C708.928 45.9653 708.4 45.3147 708.016 44.472C707.632 43.6187 707.44 42.5947 707.44 41.4C707.44 40.2053 707.632 39.1867 708.016 38.344C708.4 37.4907 708.928 36.84 709.6 36.392C710.272 35.9333 711.04 35.704 711.904 35.704C712.768 35.704 713.536 35.9333 714.208 36.392C714.88 36.84 715.408 37.4907 715.792 38.344C716.186 39.1867 716.384 40.2053 716.384 41.4C716.384 42.5947 716.186 43.6187 715.792 44.472C715.408 45.3147 714.88 45.9653 714.208 46.424C713.536 46.872 712.768 47.096 711.904 47.096ZM711.904 46.04C712.565 46.04 713.141 45.864 713.632 45.512C714.122 45.1493 714.506 44.6267 714.784 43.944C715.061 43.2507 715.2 42.4027 715.2 41.4C715.2 40.3973 715.061 39.5547 714.784 38.872C714.506 38.1787 714.122 37.656 713.632 37.304C713.141 36.9413 712.565 36.76 711.904 36.76C711.264 36.76 710.693 36.9413 710.192 37.304C709.69 37.656 709.301 38.1787 709.024 38.872C708.746 39.5547 708.608 40.3973 708.608 41.4C708.608 42.4027 708.746 43.2507 709.024 43.944C709.301 44.6267 709.69 45.1493 710.192 45.512C710.693 45.864 711.264 46.04 711.904 46.04ZM722.977 47.096C722.113 47.096 721.345 46.872 720.673 46.424C720.001 45.9653 719.473 45.3147 719.089 44.472C718.705 43.6187 718.513 42.5947 718.513 41.4C718.513 40.2053 718.705 39.1867 719.089 38.344C719.473 37.4907 720.001 36.84 720.673 36.392C721.345 35.9333 722.113 35.704 722.977 35.704C723.841 35.704 724.609 35.9333 725.281 36.392C725.953 36.84 726.481 37.4907 726.865 38.344C727.26 39.1867 727.457 40.2053 727.457 41.4C727.457 42.5947 727.26 43.6187 726.865 44.472C726.481 45.3147 725.953 45.9653 725.281 46.424C724.609 46.872 723.841 47.096 722.977 47.096ZM722.977 46.04C723.639 46.04 724.215 45.864 724.705 45.512C725.196 45.1493 725.58 44.6267 725.857 43.944C726.135 43.2507 726.273 42.4027 726.273 41.4C726.273 40.3973 726.135 39.5547 725.857 38.872C725.58 38.1787 725.196 37.656 724.705 37.304C724.215 36.9413 723.639 36.76 722.977 36.76C722.337 36.76 721.767 36.9413 721.265 37.304C720.764 37.656 720.375 38.1787 720.097 38.872C719.82 39.5547 719.681 40.3973 719.681 41.4C719.681 42.4027 719.82 43.2507 720.097 43.944C720.375 44.6267 720.764 45.1493 721.265 45.512C721.767 45.864 722.337 46.04 722.977 46.04Z" fill="#213457"/>
<path d="M6.132 20V7.94L6.708 8.552H3.162V7.4H7.428V20H6.132ZM16.3748 15.68V14.564H21.0908V15.68H16.3748Z" fill="#213457"/>
<path d="M1.702 47V46.082L6.94 40.952C7.42 40.484 7.78 40.076 8.02 39.728C8.26 39.368 8.422 39.032 8.506 38.72C8.59 38.408 8.632 38.114 8.632 37.838C8.632 37.106 8.38 36.53 7.876 36.11C7.384 35.69 6.652 35.48 5.68 35.48C4.936 35.48 4.276 35.594 3.7 35.822C3.136 36.05 2.65 36.404 2.242 36.884L1.324 36.092C1.816 35.516 2.446 35.072 3.214 34.76C3.982 34.448 4.84 34.292 5.788 34.292C6.64 34.292 7.378 34.43 8.002 34.706C8.626 34.97 9.106 35.36 9.442 35.876C9.79 36.392 9.964 36.998 9.964 37.694C9.964 38.102 9.904 38.504 9.784 38.9C9.676 39.296 9.472 39.716 9.172 40.16C8.884 40.592 8.458 41.084 7.894 41.636L3.088 46.352L2.728 45.848H10.54V47H1.702ZM18.1014 42.68V41.564H22.8174V42.68H18.1014Z" fill="#213457"/>
<path d="M0.72 100.688V99.752L7.398 91.4H8.838L2.214 99.752L1.512 99.536H11.646V100.688H0.72ZM7.83 104V100.688L7.866 99.536V96.62H9.126V104H7.83ZM18.7713 99.68V98.564H23.4873V99.68H18.7713Z" fill="#213457"/>
<path d="M742.08 42.68V41.564H746.796V42.68H742.08ZM758.362 47.108C757.45 47.108 756.586 46.964 755.77 46.676C754.966 46.376 754.318 45.98 753.826 45.488L754.456 44.462C754.864 44.882 755.41 45.23 756.094 45.506C756.79 45.782 757.546 45.92 758.362 45.92C759.406 45.92 760.204 45.692 760.756 45.236C761.32 44.78 761.602 44.168 761.602 43.4C761.602 42.632 761.326 42.02 760.774 41.564C760.234 41.108 759.376 40.88 758.2 40.88H757.3V39.926L761.188 35.048L761.368 35.552H754.348V34.4H762.448V35.318L758.56 40.196L757.93 39.782H758.416C759.928 39.782 761.056 40.118 761.8 40.79C762.556 41.462 762.934 42.326 762.934 43.382C762.934 44.09 762.766 44.726 762.43 45.29C762.094 45.854 761.584 46.298 760.9 46.622C760.228 46.946 759.382 47.108 758.362 47.108Z" fill="#213457"/>
<path d="M742.08 291.68V290.564H746.796V291.68H742.08ZM759.766 296.108C758.65 296.108 757.708 295.862 756.94 295.37C756.172 294.866 755.59 294.146 755.194 293.21C754.798 292.262 754.6 291.128 754.6 289.808C754.6 288.38 754.84 287.186 755.32 286.226C755.812 285.254 756.49 284.522 757.354 284.03C758.218 283.538 759.22 283.292 760.36 283.292C760.924 283.292 761.464 283.346 761.98 283.454C762.496 283.562 762.952 283.736 763.348 283.976L762.826 285.02C762.502 284.804 762.13 284.654 761.71 284.57C761.29 284.474 760.846 284.426 760.378 284.426C759.022 284.426 757.936 284.858 757.12 285.722C756.316 286.586 755.914 287.876 755.914 289.592C755.914 289.856 755.926 290.186 755.95 290.582C755.986 290.966 756.058 291.35 756.166 291.734L755.716 291.392C755.848 290.768 756.106 290.24 756.49 289.808C756.874 289.364 757.354 289.028 757.93 288.8C758.506 288.572 759.136 288.458 759.82 288.458C760.66 288.458 761.398 288.614 762.034 288.926C762.67 289.238 763.168 289.676 763.528 290.24C763.888 290.804 764.068 291.47 764.068 292.238C764.068 293.018 763.882 293.702 763.51 294.29C763.138 294.866 762.622 295.316 761.962 295.64C761.314 295.952 760.582 296.108 759.766 296.108ZM759.712 295.01C760.312 295.01 760.84 294.902 761.296 294.686C761.764 294.458 762.13 294.14 762.394 293.732C762.658 293.312 762.79 292.826 762.79 292.274C762.79 291.446 762.502 290.786 761.926 290.294C761.362 289.802 760.594 289.556 759.622 289.556C758.974 289.556 758.41 289.676 757.93 289.916C757.45 290.156 757.072 290.486 756.796 290.906C756.52 291.314 756.382 291.782 756.382 292.31C756.382 292.766 756.508 293.204 756.76 293.624C757.012 294.032 757.384 294.368 757.876 294.632C758.38 294.884 758.992 295.01 759.712 295.01Z" fill="#213457"/>
<path d="M243.08 99.68V98.564H247.796V99.68H243.08ZM259.578 104.108C258.678 104.108 257.82 103.964 257.004 103.676C256.188 103.376 255.54 102.98 255.06 102.488L255.69 101.462C256.086 101.882 256.626 102.23 257.31 102.506C258.006 102.782 258.756 102.92 259.56 102.92C260.628 102.92 261.438 102.686 261.99 102.218C262.554 101.738 262.836 101.114 262.836 100.346C262.836 99.806 262.704 99.344 262.44 98.96C262.188 98.564 261.756 98.258 261.144 98.042C260.532 97.826 259.692 97.718 258.624 97.718H255.942L256.59 91.4H263.484V92.552H257.112L257.778 91.922L257.22 97.214L256.554 96.566H258.912C260.184 96.566 261.204 96.722 261.972 97.034C262.74 97.346 263.292 97.784 263.628 98.348C263.976 98.9 264.15 99.548 264.15 100.292C264.15 101 263.982 101.648 263.646 102.236C263.31 102.812 262.806 103.268 262.134 103.604C261.462 103.94 260.61 104.108 259.578 104.108Z" fill="#213457"/>
<path d="M75.34 91.4H76.654V104H75.34V91.4ZM67.456 104H66.124V91.4H67.456V104ZM75.466 98.186H67.312V97.016H75.466V98.186ZM87.0092 104V101.912L86.9552 101.57V98.078C86.9552 97.274 86.7272 96.656 86.2712 96.224C85.8272 95.792 85.1612 95.576 84.2732 95.576C83.6612 95.576 83.0792 95.678 82.5272 95.882C81.9752 96.086 81.5072 96.356 81.1232 96.692L80.5472 95.738C81.0272 95.33 81.6032 95.018 82.2752 94.802C82.9472 94.574 83.6552 94.46 84.3992 94.46C85.6232 94.46 86.5652 94.766 87.2252 95.378C87.8972 95.978 88.2332 96.896 88.2332 98.132V104H87.0092ZM83.7512 104.09C83.0432 104.09 82.4252 103.976 81.8972 103.748C81.3812 103.508 80.9852 103.184 80.7092 102.776C80.4332 102.356 80.2952 101.876 80.2952 101.336C80.2952 100.844 80.4092 100.4 80.6372 100.004C80.8772 99.596 81.2612 99.272 81.7892 99.032C82.3292 98.78 83.0492 98.654 83.9492 98.654H87.2072V99.608H83.9852C83.0732 99.608 82.4372 99.77 82.0772 100.094C81.7292 100.418 81.5552 100.82 81.5552 101.3C81.5552 101.84 81.7652 102.272 82.1852 102.596C82.6052 102.92 83.1932 103.082 83.9492 103.082C84.6692 103.082 85.2872 102.92 85.8032 102.596C86.3312 102.26 86.7152 101.78 86.9552 101.156L87.2432 102.038C87.0032 102.662 86.5832 103.16 85.9832 103.532C85.3952 103.904 84.6512 104.09 83.7512 104.09ZM96.4233 104.108C95.6553 104.108 94.9713 103.982 94.3713 103.73C93.7833 103.478 93.2793 103.094 92.8593 102.578C92.4393 102.062 92.1213 101.426 91.9053 100.67C91.6893 99.902 91.5813 99.014 91.5813 98.006C91.5813 97.106 91.6653 96.32 91.8333 95.648C92.0013 94.964 92.2353 94.376 92.5353 93.884C92.8353 93.392 93.1833 92.978 93.5793 92.642C93.9873 92.294 94.4253 92.018 94.8933 91.814C95.3733 91.598 95.8653 91.436 96.3693 91.328L100.617 90.338L100.833 91.526L96.8373 92.426C96.5853 92.486 96.2793 92.57 95.9193 92.678C95.5713 92.786 95.2113 92.948 94.8393 93.164C94.4793 93.38 94.1433 93.68 93.8313 94.064C93.5193 94.448 93.2673 94.946 93.0753 95.558C92.8953 96.158 92.8053 96.908 92.8053 97.808C92.8053 98 92.8113 98.156 92.8233 98.276C92.8353 98.384 92.8473 98.504 92.8593 98.636C92.8833 98.756 92.9013 98.936 92.9133 99.176L92.3553 98.708C92.4873 97.976 92.7573 97.34 93.1653 96.8C93.5733 96.248 94.0833 95.822 94.6953 95.522C95.3193 95.21 96.0093 95.054 96.7653 95.054C97.6413 95.054 98.4213 95.246 99.1053 95.63C99.7893 96.002 100.323 96.524 100.707 97.196C101.103 97.868 101.301 98.648 101.301 99.536C101.301 100.412 101.097 101.198 100.689 101.894C100.293 102.59 99.7293 103.136 98.9973 103.532C98.2653 103.916 97.4073 104.108 96.4233 104.108ZM96.5673 103.046C97.2393 103.046 97.8333 102.896 98.3493 102.596C98.8653 102.284 99.2673 101.864 99.5553 101.336C99.8553 100.808 100.005 100.214 100.005 99.554C100.005 98.906 99.8553 98.33 99.5553 97.826C99.2673 97.322 98.8653 96.926 98.3493 96.638C97.8333 96.338 97.2333 96.188 96.5493 96.188C95.8773 96.188 95.2833 96.332 94.7673 96.62C94.2513 96.896 93.8433 97.286 93.5433 97.79C93.2553 98.294 93.1113 98.876 93.1113 99.536C93.1113 100.196 93.2553 100.79 93.5433 101.318C93.8433 101.846 94.2513 102.266 94.7673 102.578C95.2953 102.89 95.8953 103.046 96.5673 103.046ZM109.459 104.09C108.643 104.09 107.905 103.904 107.245 103.532C106.585 103.148 106.057 102.602 105.661 101.894C105.277 101.174 105.085 100.298 105.085 99.266C105.085 98.234 105.277 97.364 105.661 96.656C106.045 95.936 106.567 95.39 107.227 95.018C107.887 94.646 108.631 94.46 109.459 94.46C110.359 94.46 111.163 94.664 111.871 95.072C112.591 95.468 113.155 96.032 113.563 96.764C113.971 97.484 114.175 98.318 114.175 99.266C114.175 100.226 113.971 101.066 113.563 101.786C113.155 102.506 112.591 103.07 111.871 103.478C111.163 103.886 110.359 104.09 109.459 104.09ZM104.581 107.492V94.55H105.805V97.394L105.679 99.284L105.859 101.192V107.492H104.581ZM109.369 102.956C110.041 102.956 110.641 102.806 111.169 102.506C111.697 102.194 112.117 101.762 112.429 101.21C112.741 100.646 112.897 99.998 112.897 99.266C112.897 98.534 112.741 97.892 112.429 97.34C112.117 96.788 111.697 96.356 111.169 96.044C110.641 95.732 110.041 95.576 109.369 95.576C108.697 95.576 108.091 95.732 107.551 96.044C107.023 96.356 106.603 96.788 106.291 97.34C105.991 97.892 105.841 98.534 105.841 99.266C105.841 99.998 105.991 100.646 106.291 101.21C106.603 101.762 107.023 102.194 107.551 102.506C108.091 102.806 108.697 102.956 109.369 102.956ZM123.276 104V101.912L123.222 101.57V98.078C123.222 97.274 122.994 96.656 122.538 96.224C122.094 95.792 121.428 95.576 120.54 95.576C119.928 95.576 119.346 95.678 118.794 95.882C118.242 96.086 117.774 96.356 117.39 96.692L116.814 95.738C117.294 95.33 117.87 95.018 118.542 94.802C119.214 94.574 119.922 94.46 120.666 94.46C121.89 94.46 122.832 94.766 123.492 95.378C124.164 95.978 124.5 96.896 124.5 98.132V104H123.276ZM120.018 104.09C119.31 104.09 118.692 103.976 118.164 103.748C117.648 103.508 117.252 103.184 116.976 102.776C116.7 102.356 116.562 101.876 116.562 101.336C116.562 100.844 116.676 100.4 116.904 100.004C117.144 99.596 117.528 99.272 118.056 99.032C118.596 98.78 119.316 98.654 120.216 98.654H123.474V99.608H120.252C119.34 99.608 118.704 99.77 118.344 100.094C117.996 100.418 117.822 100.82 117.822 101.3C117.822 101.84 118.032 102.272 118.452 102.596C118.872 102.92 119.46 103.082 120.216 103.082C120.936 103.082 121.554 102.92 122.07 102.596C122.598 102.26 122.982 101.78 123.222 101.156L123.51 102.038C123.27 102.662 122.85 103.16 122.25 103.532C121.662 103.904 120.918 104.09 120.018 104.09ZM128.442 104V94.55H129.72V98.726H135.678V94.55H136.956V104H135.678V99.824H129.72V104H128.442ZM141.128 104V94.55H142.406V98.726H148.364V94.55H149.642V104H148.364V99.824H142.406V104H141.128ZM163.031 104V94.55H164.309V104H163.031ZM157.793 97.88C158.981 97.892 159.887 98.156 160.511 98.672C161.135 99.188 161.447 99.932 161.447 100.904C161.447 101.912 161.111 102.686 160.439 103.226C159.767 103.766 158.807 104.03 157.559 104.018L153.815 104V94.55H155.093V97.844L157.793 97.88ZM157.469 103.046C158.357 103.058 159.023 102.884 159.467 102.524C159.923 102.152 160.151 101.612 160.151 100.904C160.151 100.196 159.929 99.68 159.485 99.356C159.041 99.02 158.369 98.846 157.469 98.834L155.093 98.798V103.01L157.469 103.046ZM168.488 104V94.55H169.766V102.056L176.084 94.55H177.218V104H175.94V96.476L169.64 104H168.488ZM172.772 93.182C171.98 93.182 171.338 92.984 170.846 92.588C170.366 92.18 170.114 91.598 170.09 90.842H171.008C171.02 91.322 171.188 91.7 171.512 91.976C171.836 92.252 172.256 92.39 172.772 92.39C173.288 92.39 173.708 92.252 174.032 91.976C174.368 91.7 174.542 91.322 174.554 90.842H175.472C175.46 91.598 175.208 92.18 174.716 92.588C174.224 92.984 173.576 93.182 172.772 93.182ZM188.471 104V95.324L188.795 95.666H184.889V94.55H193.331V95.666H189.425L189.749 95.324V104H188.471ZM199.329 104.09C198.345 104.09 197.481 103.886 196.737 103.478C195.993 103.058 195.411 102.488 194.991 101.768C194.571 101.036 194.361 100.202 194.361 99.266C194.361 98.33 194.559 97.502 194.955 96.782C195.363 96.062 195.915 95.498 196.611 95.09C197.319 94.67 198.111 94.46 198.987 94.46C199.875 94.46 200.661 94.664 201.345 95.072C202.041 95.468 202.587 96.032 202.983 96.764C203.379 97.484 203.577 98.318 203.577 99.266C203.577 99.326 203.571 99.392 203.559 99.464C203.559 99.524 203.559 99.59 203.559 99.662H195.333V98.708H202.875L202.371 99.086C202.371 98.402 202.221 97.796 201.921 97.268C201.633 96.728 201.237 96.308 200.733 96.008C200.229 95.708 199.647 95.558 198.987 95.558C198.339 95.558 197.757 95.708 197.241 96.008C196.725 96.308 196.323 96.728 196.035 97.268C195.747 97.808 195.603 98.426 195.603 99.122V99.32C195.603 100.04 195.759 100.676 196.071 101.228C196.395 101.768 196.839 102.194 197.403 102.506C197.979 102.806 198.633 102.956 199.365 102.956C199.941 102.956 200.475 102.854 200.967 102.65C201.471 102.446 201.903 102.134 202.263 101.714L202.983 102.542C202.563 103.046 202.035 103.43 201.399 103.694C200.775 103.958 200.085 104.09 199.329 104.09ZM213.876 104L209.988 99.32L211.05 98.69L215.388 104H213.876ZM206.946 104V94.55H208.224V104H206.946ZM207.828 99.788V98.69H210.87V99.788H207.828ZM211.158 99.41L209.97 99.23L213.732 94.55H215.118L211.158 99.41ZM221.571 104.09C220.635 104.09 219.795 103.886 219.051 103.478C218.319 103.058 217.743 102.488 217.323 101.768C216.903 101.036 216.693 100.202 216.693 99.266C216.693 98.318 216.903 97.484 217.323 96.764C217.743 96.044 218.319 95.48 219.051 95.072C219.795 94.664 220.635 94.46 221.571 94.46C222.375 94.46 223.101 94.616 223.749 94.928C224.397 95.24 224.907 95.708 225.279 96.332L224.325 96.98C224.001 96.5 223.599 96.146 223.119 95.918C222.639 95.69 222.117 95.576 221.553 95.576C220.881 95.576 220.275 95.732 219.735 96.044C219.195 96.344 218.769 96.77 218.457 97.322C218.145 97.874 217.989 98.522 217.989 99.266C217.989 100.01 218.145 100.658 218.457 101.21C218.769 101.762 219.195 102.194 219.735 102.506C220.275 102.806 220.881 102.956 221.553 102.956C222.117 102.956 222.639 102.842 223.119 102.614C223.599 102.386 224.001 102.038 224.325 101.57L225.279 102.218C224.907 102.83 224.397 103.298 223.749 103.622C223.101 103.934 222.375 104.09 221.571 104.09ZM229.918 104V95.324L230.242 95.666H226.336V94.55H234.778V95.666H230.872L231.196 95.324V104H229.918Z" fill="#213457"/>
</g>
<defs>
<clipPath id="clip0_732_505">
<rect width="764" height="314" fill="white"/>
</clipPath>
</defs>
</svg>
