<svg width="265" height="224" viewBox="0 0 265 224" fill="none" xmlns="http://www.w3.org/2000/svg">
<path d="M2.07102 54.555L13.079 38.171L2.90302 23.067V22.811H13.719L19.031 31.323L24.215 22.811H34.263V23.067L24.087 38.235L35.095 54.555V54.811H24.279L18.135 45.083L12.119 54.811H2.07102V54.555Z" fill="currentColor"/>
<path d="M2.07102 212.387L13.079 196.003L2.90302 180.899V180.643H13.719L19.031 189.155L24.215 180.643H34.263V180.899L24.087 196.067L35.095 212.387V212.643H24.279L18.135 202.915L12.119 212.643H2.07102V212.387Z" fill="currentColor"/>
<path d="M229.079 212.387L240.087 196.003L229.911 180.899V180.643H240.727L246.039 189.155L251.223 180.643H261.271V180.899L251.095 196.067L262.103 212.387V212.643H251.287L245.143 202.915L239.127 212.643H229.079V212.387Z" fill="currentColor"/>
<path d="M228.079 54.555L239.087 38.171L228.911 23.067V22.811H239.727L245.039 31.323L250.223 22.811H260.271V23.067L250.095 38.235L261.103 54.555V54.811H250.287L244.143 45.083L238.127 54.811H228.079V54.555Z" fill="currentColor"/>
<path d="M38.5 217L38.5 18" stroke="currentColor"/>
<line x1="225.5" y1="217" x2="225.5" y2="18" stroke="currentColor"/>
<line x1="264.5" y1="218" x2="264.5" y2="18" stroke="currentColor"/>
<line y1="217.5" x2="264" y2="217.5" stroke="currentColor"/>
<line y1="18.5" x2="264" y2="18.5" stroke="currentColor"/>
<line y1="59.5" x2="264" y2="59.5" stroke="currentColor"/>
<line y1="175.5" x2="264" y2="175.5" stroke="currentColor"/>
</svg>
