<svg width="401" height="165" viewBox="0 0 401 165" fill="none" xmlns="http://www.w3.org/2000/svg">
<path d="M50.5 55.5H350.5V117.5H50.5V55.5Z" stroke="currentColor"/>
<path d="M178.92 37.936C178.92 27.888 185.576 21.36 195.304 21.36C204.648 21.36 210.664 27.376 210.664 36.528C210.664 37.488 210.6 38.576 210.408 39.856H188.008C188.648 44.208 191.464 46.96 195.432 46.96C198.568 46.96 201 45.168 201.512 42.544H210.856C209.96 49.776 203.624 54.64 195.24 54.64C185.384 54.64 178.92 47.856 178.92 37.936ZM195.432 28.4C192.232 28.4 189.736 30.32 188.584 33.456H201.448C201.128 30.448 198.76 28.4 195.432 28.4Z" fill="currentColor"/>
<path d="M176.92 134.936C176.92 124.888 183.576 118.36 193.304 118.36C202.648 118.36 208.664 124.376 208.664 133.528C208.664 134.488 208.6 135.576 208.408 136.856H186.008C186.648 141.208 189.464 143.96 193.432 143.96C196.568 143.96 199 142.168 199.512 139.544H208.856C207.96 146.776 201.624 151.64 193.24 151.64C183.384 151.64 176.92 144.856 176.92 134.936ZM193.432 125.4C190.232 125.4 187.736 127.32 186.584 130.456H199.448C199.128 127.448 196.76 125.4 193.432 125.4Z" fill="currentColor"/>
<path d="M32.064 68.92C42.112 68.92 48.64 75.576 48.64 85.304C48.64 94.648 42.624 100.664 33.472 100.664C32.512 100.664 31.424 100.6 30.144 100.408V78.008C25.792 78.648 23.04 81.464 23.04 85.432C23.04 88.568 24.832 91 27.456 91.512V100.856C20.224 99.96 15.36 93.624 15.36 85.24C15.36 75.384 22.144 68.92 32.064 68.92ZM41.6 85.432C41.6 82.232 39.68 79.736 36.544 78.584V91.448C39.552 91.128 41.6 88.76 41.6 85.432Z" fill="currentColor"/>
<path d="M367.936 99.08C357.888 99.08 351.36 92.424 351.36 82.696C351.36 73.352 357.376 67.336 366.528 67.336C367.488 67.336 368.576 67.4 369.856 67.592V89.992C374.208 89.352 376.96 86.536 376.96 82.568C376.96 79.432 375.168 77 372.544 76.488V67.144C379.776 68.04 384.64 74.376 384.64 82.76C384.64 92.616 377.856 99.08 367.936 99.08ZM358.4 82.568C358.4 85.768 360.32 88.264 363.456 89.416V76.552C360.448 76.872 358.4 79.24 358.4 82.568Z" fill="currentColor"/>
<rect x="14.5" y="20.5" width="371" height="132" stroke="currentColor"/>
</svg>
