<svg width="169" height="168" viewBox="0 0 169 168" fill="none" xmlns="http://www.w3.org/2000/svg">
<path d="M83.3826 45.8913C89.4599 54.6259 92.268 67.0824 92.584 79.3971C92.4215 92.1999 89.4311 103.488 83.7821 113.144C82.6796 114.543 82.0171 115.027 80.5731 115.199C74.8521 109.804 71.9491 99.5643 70.4756 90.0644C68.6934 77.0107 70.3585 64.7724 74.9539 53.4066C79.2538 44.1545 79.2538 44.1545 83.3826 45.8913Z" fill="currentColor"/>
<path d="M83.3826 45.8913C89.4599 54.6259 92.268 67.0824 92.584 79.3971C92.4215 92.1999 89.4311 103.488 83.7821 113.144C82.6796 114.543 82.0171 115.027 80.5731 115.199C74.8521 109.804 71.9491 99.5643 70.4756 90.0644C68.6934 77.0107 70.3585 64.7724 74.9539 53.4066C79.2538 44.1545 79.2538 44.1545 83.3826 45.8913Z" fill="currentColor"/>
<path d="M103.848 53.4447C106.059 62.8334 105.457 75.981 103.482 85.3193C101.303 93.7732 98.072 102.226 93.5634 107.399C93.2402 107.399 92.917 107.399 92.584 107.399C93.439 102.788 94.4407 98.3039 95.463 93.7998C97.4952 83.906 97.1115 71.2539 95.354 61.3364C95.0326 59.4396 95.0326 59.4396 95.0326 56.8703C95.9466 56.1228 96.8659 55.3951 97.7873 54.6758C98.2986 54.2684 98.81 53.861 99.3368 53.4413C101.078 52.4967 102.099 52.6777 103.848 53.4447Z" fill="currentColor"/>
<path d="M65.2775 53.5624C66.8188 54.5862 68.3114 55.7473 69.7985 56.9805C68.7938 65.526 68.7938 65.526 68.5191 67.4421C67.2135 80.9589 68.5098 93.6833 72.3101 105.69C72.3101 106.254 72.3101 106.818 72.3101 107.399C66.8447 103.111 63.4546 94.5614 61.3216 85.2874C60.0136 79.1723 59.6602 74.2486 59.6576 67.7692C59.6484 66.5729 59.6484 66.5729 59.639 65.3524C59.6337 61.1183 59.6874 57.4805 60.7565 53.5624C62.2897 52.2582 63.6739 52.8778 65.2775 53.5624Z" fill="currentColor"/>
<path d="M109.663 76.2644C112.963 75.9916 114.971 76.5393 117.927 78.8601C117.67 89.35 113.882 97.8372 109.112 104.817C104.385 110.936 98.6994 114.72 92.584 115.2C94.2591 112.394 95.9807 110.126 97.9556 107.845C103.47 100.966 106.407 91.7948 108.561 81.4558C108.766 80.491 108.972 79.5262 109.183 78.5322C109.341 77.7838 109.5 77.0354 109.663 76.2644Z" fill="currentColor"/>
<path d="M55.2603 76.2644C55.4142 77.0808 55.568 77.8972 55.7265 78.7384C58.6003 93.4347 63.0404 103.831 71.0013 112.79C71.4331 113.3 71.8649 113.809 72.3097 114.335C72.3097 114.62 72.3097 114.906 72.3097 115.2C64.8467 114.613 57.9849 108.954 52.8563 100.474C49.833 94.6911 46.5479 86.6262 47.0107 78.8601C49.961 76.5393 51.966 75.9916 55.2603 76.2644Z" fill="currentColor"/>
<path d="M49.4806 99.6001C50.0994 100.407 50.7181 101.214 51.3369 102.021C51.7252 102.525 52.1135 103.029 52.5136 103.548C53.2814 104.554 54.0445 105.571 54.8008 106.603C60.5207 114.338 66.7802 117.063 73.8773 118.965C71.4696 123.152 67.725 122.908 64.4965 123C57.5828 122.959 52.1436 119.043 46.9676 111.095C46.2984 109.744 46.2984 109.744 46.0001 107.093C46.4309 102.932 47.5307 102.002 49.4806 99.6001Z" fill="currentColor"/>
<path d="M116.441 99.5996C120.24 103.097 120.24 103.097 121.001 106.823C120.013 112.084 117.302 114.737 114.444 117.473C107.805 123.052 100.157 124.645 92.8878 121.156C92.1169 120.719 91.3484 120.269 90.5898 119.78C90.5898 119.477 90.5898 119.175 90.5898 118.863C90.9018 118.78 91.2137 118.698 91.5352 118.613C101.614 115.879 109.043 111.412 116.441 99.5996Z" fill="currentColor"/>
<path d="M116.441 99.5996C120.24 103.097 120.24 103.097 121.001 106.823C120.013 112.084 117.302 114.737 114.444 117.473C107.805 123.052 100.157 124.645 92.8878 121.156C92.1169 120.719 91.3484 120.269 90.5898 119.78C90.5898 119.477 90.5898 119.175 90.5898 118.863C90.9018 118.78 91.2137 118.698 91.5352 118.613C101.614 115.879 109.043 111.412 116.441 99.5996Z" fill="currentColor"/>
</svg>
