<svg width="169" height="168" viewBox="0 0 169 168" fill="none" xmlns="http://www.w3.org/2000/svg">
<path d="M84.4811 45.5363C94.0009 54.285 98.3996 66.7617 98.8946 79.0963C98.6399 91.9197 93.9558 103.226 85.1069 112.898C83.3798 114.299 82.342 114.783 80.08 114.956C71.1184 109.552 66.571 99.296 64.2628 89.7808C61.4712 76.706 64.0795 64.4479 71.2779 53.0638C78.0135 43.7967 78.0135 43.7967 84.4811 45.5363Z" fill="currentColor"/>
<path d="M84.4811 45.5363C94.0009 54.285 98.3996 66.7617 98.8946 79.0963C98.6399 91.9197 93.9558 103.226 85.1069 112.898C83.3798 114.299 82.342 114.783 80.08 114.956C71.1184 109.552 66.571 99.296 64.2628 89.7808C61.4712 76.706 64.0795 64.4479 71.2779 53.0638C78.0135 43.7967 78.0135 43.7967 84.4811 45.5363Z" fill="currentColor"/>
<path d="M116.538 53.1019C120.002 62.5059 119.06 75.6747 115.966 85.0281C112.552 93.4957 107.491 101.962 100.429 107.143C99.9225 107.143 99.4162 107.143 98.8945 107.143C100.234 102.525 101.803 98.0337 103.404 93.5223C106.588 83.6125 105.987 70.94 103.234 61.0064C102.73 59.1065 102.73 59.1065 102.73 56.5331C104.162 55.7845 105.602 55.0556 107.045 54.335C107.846 53.927 108.647 53.519 109.473 53.0986C112.2 52.1525 113.799 52.3338 116.538 53.1019Z" fill="currentColor"/>
<path d="M56.1219 53.2198C58.5364 54.2454 60.8745 55.4083 63.2039 56.6436C61.6301 65.2028 61.6301 65.2028 61.1998 67.122C59.1547 80.6607 61.1852 93.4056 67.1383 105.431C67.1383 105.996 67.1383 106.561 67.1383 107.143C58.5769 102.848 53.2665 94.2852 49.9253 84.9961C47.8764 78.8711 47.3228 73.9396 47.3187 67.4496C47.3043 66.2514 47.3043 66.2514 47.2895 65.029C47.2812 60.788 47.3654 57.1443 49.04 53.2198C51.4418 51.9136 53.6101 52.5342 56.1219 53.2198Z" fill="currentColor"/>
<path d="M125.648 75.9583C130.817 75.6851 133.963 76.2337 138.593 78.5582C138.191 89.0651 132.257 97.566 124.785 104.557C117.38 110.686 108.474 114.476 98.8945 114.957C101.518 112.146 104.215 109.874 107.309 107.59C115.947 100.7 120.548 91.5138 123.922 81.1581C124.243 80.1918 124.565 79.2254 124.896 78.2298C125.144 77.4802 125.392 76.7306 125.648 75.9583Z" fill="currentColor"/>
<path d="M40.4309 75.9583C40.6719 76.7761 40.9129 77.5938 41.1611 78.4363C45.6628 93.1564 52.6179 103.569 65.0884 112.543C65.7647 113.053 66.441 113.564 67.1378 114.09C67.1378 114.376 67.1378 114.662 67.1378 114.957C55.4474 114.369 44.6988 108.701 36.6651 100.207C31.9292 94.4148 26.7832 86.3369 27.5081 78.5582C32.1297 76.2337 35.2705 75.6851 40.4309 75.9583Z" fill="currentColor"/>
<path d="M31.376 99.332C32.3453 100.14 33.3145 100.948 34.2838 101.757C34.8921 102.261 35.5004 102.766 36.1271 103.286C37.3298 104.294 38.5251 105.313 39.7099 106.346C48.6698 114.094 58.4751 116.823 69.5922 118.729C65.8207 122.922 59.9549 122.677 54.8977 122.77C44.0676 122.729 35.5475 118.806 27.4395 110.845C26.3913 109.492 26.3913 109.492 25.924 106.837C26.5987 102.669 28.3216 101.737 31.376 99.332Z" fill="currentColor"/>
<path d="M136.265 99.3315C142.215 102.834 142.215 102.834 143.408 106.567C141.859 111.836 137.613 114.493 133.136 117.233C122.737 122.822 110.756 124.417 99.3691 120.923C98.1616 120.485 96.9577 120.035 95.7695 119.545C95.7695 119.241 95.7695 118.938 95.7695 118.626C96.2582 118.543 96.7468 118.461 97.2503 118.376C113.038 115.637 124.676 111.164 136.265 99.3315Z" fill="currentColor"/>
<path d="M136.265 99.3315C142.215 102.834 142.215 102.834 143.408 106.567C141.859 111.836 137.613 114.493 133.136 117.233C122.737 122.822 110.756 124.417 99.3691 120.923C98.1616 120.485 96.9577 120.035 95.7695 119.545C95.7695 119.241 95.7695 118.938 95.7695 118.626C96.2582 118.543 96.7468 118.461 97.2503 118.376C113.038 115.637 124.676 111.164 136.265 99.3315Z" fill="currentColor"/>
</svg>
