<svg width="186" height="125" viewBox="0 0 186 125" fill="none" xmlns="http://www.w3.org/2000/svg">
<path d="M92.7078 2.09908C107.781 15.9512 114.746 35.7059 115.529 55.2357C115.126 75.5395 107.709 93.4419 93.6987 108.755C90.9642 110.974 89.3209 111.74 85.7395 112.014C71.5503 103.458 64.3503 87.2186 60.6956 72.1528C56.2755 51.4511 60.4053 32.0425 71.8028 14.0176C82.4676 -0.655257 82.4676 -0.655258 92.7078 2.09908Z" fill="currentColor"/>
<path d="M92.7078 2.09908C107.781 15.9512 114.746 35.7059 115.529 55.2357C115.126 75.5395 107.709 93.4419 93.6987 108.755C90.9642 110.974 89.3209 111.74 85.7395 112.014C71.5503 103.458 64.3503 87.2186 60.6956 72.1528C56.2755 51.4511 60.4053 32.0425 71.8028 14.0176C82.4676 -0.655257 82.4676 -0.655258 92.7078 2.09908Z" fill="currentColor"/>
<path d="M143.466 14.0781C148.95 28.9677 147.458 49.8184 142.559 64.6279C137.154 78.0349 129.141 91.4394 117.959 99.6435C117.157 99.6435 116.355 99.6435 115.529 99.6435C117.65 92.3307 120.134 85.22 122.67 78.0771C127.71 62.3865 126.758 42.3217 122.399 26.5935C121.602 23.5854 121.602 23.5854 121.602 19.5108C123.869 18.3254 126.149 17.1714 128.435 16.0305C129.703 15.3845 130.971 14.7384 132.278 14.0728C136.596 12.5748 139.128 12.8618 143.466 14.0781Z" fill="currentColor"/>
<path d="M47.8057 14.2648C51.6287 15.8886 55.3306 17.7298 59.0187 19.6857C56.527 33.2378 56.527 33.2378 55.8456 36.2765C52.6076 57.7128 55.8226 77.8923 65.2482 96.9331C65.2482 97.8275 65.2482 98.7219 65.2482 99.6435C51.6928 92.8432 43.2845 79.2849 37.9943 64.5772C34.7503 54.8793 33.8738 47.071 33.8673 36.7953C33.8444 34.8981 33.8444 34.8981 33.8211 32.9626C33.8079 26.2478 33.9411 20.4786 36.5927 14.2648C40.3954 12.1966 43.8286 13.1792 47.8057 14.2648Z" fill="currentColor"/>
<path d="M157.889 50.2673C166.073 49.8347 171.055 50.7034 178.385 54.3838C177.748 71.0197 168.354 84.4795 156.522 95.5487C144.798 105.253 130.697 111.253 115.529 112.015C119.684 107.564 123.954 103.967 128.852 100.351C142.528 89.4421 149.813 74.8969 155.156 58.5003C155.665 56.9703 156.174 55.4402 156.698 53.8639C157.091 52.677 157.484 51.4901 157.889 50.2673Z" fill="currentColor"/>
<path d="M22.9623 50.2673C23.3439 51.5621 23.7255 52.8568 24.1186 54.1908C31.2462 77.4976 42.2584 93.9848 62.0034 108.193C63.0742 109.001 64.1451 109.81 65.2484 110.643C65.2484 111.095 65.2484 111.548 65.2484 112.015C46.7386 111.084 29.7198 102.11 16.9999 88.6611C9.50136 79.4901 1.35351 66.7001 2.50134 54.3838C9.81873 50.7034 14.7917 49.8347 22.9623 50.2673Z" fill="currentColor"/>
<path d="M8.62484 87.2754C10.1595 88.555 11.6941 89.8347 13.2288 91.1143C14.1919 91.9136 15.1551 92.7129 16.1474 93.5365C18.0517 95.1316 19.9442 96.7445 21.8201 98.3808C36.0066 110.648 51.5316 114.969 69.1338 117.987C63.1623 124.626 53.8748 124.239 45.8675 124.385C28.7199 124.321 15.2297 118.109 2.39205 105.505C0.732372 103.362 0.732364 103.362 -0.00755406 99.1577C1.0608 92.559 3.78864 91.084 8.62484 87.2754Z" fill="currentColor"/>
<path d="M174.697 87.2744C184.119 92.8205 184.119 92.8205 186.007 98.7304C183.556 107.073 176.833 111.281 169.744 115.619C153.278 124.467 134.309 126.994 116.279 121.461C114.368 120.767 112.461 120.054 110.58 119.278C110.58 118.798 110.58 118.318 110.58 117.824C111.354 117.693 112.127 117.563 112.925 117.428C137.921 113.092 156.349 106.008 174.697 87.2744Z" fill="currentColor"/>
<path d="M174.697 87.2744C184.119 92.8205 184.119 92.8205 186.007 98.7304C183.556 107.073 176.833 111.281 169.744 115.619C153.278 124.467 134.309 126.994 116.279 121.461C114.368 120.767 112.461 120.054 110.58 119.278C110.58 118.798 110.58 118.318 110.58 117.824C111.354 117.693 112.127 117.563 112.925 117.428C137.921 113.092 156.349 106.008 174.697 87.2744Z" fill="currentColor"/>
</svg>
