<svg width="168" height="168" viewBox="0 0 168 168" fill="none" xmlns="http://www.w3.org/2000/svg">
<path d="M83.5573 57.6097C93.077 63.5847 97.4758 72.1057 97.9708 80.5296C97.7161 89.2874 93.0319 97.0094 84.183 103.615C82.456 104.572 81.4182 104.902 79.1562 105.02C70.1946 101.33 65.6472 94.3251 63.339 87.8267C60.5474 78.8972 63.1556 70.5255 70.3541 62.7506C77.0897 56.4217 77.0897 56.4217 83.5573 57.6097Z" fill="currentColor"/>
<path d="M83.5573 57.6097C93.077 63.5847 97.4758 72.1057 97.9708 80.5296C97.7161 89.2874 93.0319 97.0094 84.183 103.615C82.456 104.572 81.4182 104.902 79.1562 105.02C70.1946 101.33 65.6472 94.3251 63.339 87.8267C60.5474 78.8972 63.1556 70.5255 70.3541 62.7506C77.0897 56.4217 77.0897 56.4217 83.5573 57.6097Z" fill="currentColor"/>
<path d="M115.615 62.7769C119.078 69.1994 118.136 78.1931 115.042 84.581C111.628 90.364 106.567 96.1459 99.505 99.6846C98.9987 99.6846 98.4924 99.6846 97.9707 99.6846C99.3101 96.5303 100.879 93.4632 102.481 90.3822C105.664 83.6142 105.063 74.9595 102.31 68.1753C101.806 66.8778 101.806 66.8778 101.806 65.1202C103.238 64.6089 104.678 64.1111 106.121 63.619C106.922 63.3404 107.723 63.0617 108.549 62.7746C111.276 62.1285 112.875 62.2523 115.615 62.7769Z" fill="currentColor"/>
<path d="M55.1981 62.8574C57.6126 63.5578 59.9507 64.352 62.28 65.1957C60.7063 71.0412 60.7063 71.0412 60.276 72.3519C58.2309 81.5983 60.2614 90.3025 66.2144 98.5155C66.2144 98.9013 66.2144 99.2871 66.2144 99.6846C57.6531 96.7514 52.3426 90.9031 49.0014 84.5592C46.9526 80.3761 46.399 77.008 46.3949 72.5757C46.3804 71.7574 46.3804 71.7574 46.3657 70.9225C46.3574 68.0261 46.4415 65.5377 48.1162 62.8574C50.5179 61.9653 52.6863 62.3892 55.1981 62.8574Z" fill="currentColor"/>
<path d="M124.724 78.3867C129.893 78.2001 133.04 78.5748 137.669 80.1623C137.267 87.338 131.333 93.1437 123.861 97.9183C116.456 102.104 107.55 104.692 97.9707 105.021C100.595 103.101 103.292 101.55 106.385 99.9899C115.023 95.2843 119.624 89.0104 122.998 81.9379C123.319 81.2779 123.641 80.618 123.972 79.938C124.22 79.4261 124.468 78.9141 124.724 78.3867Z" fill="currentColor"/>
<path d="M39.507 78.3867C39.748 78.9452 39.989 79.5036 40.2373 80.079C44.7389 90.1322 51.6941 97.2438 64.1646 103.372C64.8409 103.721 65.5172 104.07 66.214 104.429C66.214 104.624 66.214 104.82 66.214 105.021C54.5236 104.619 43.7749 100.748 35.7413 94.9474C31.0054 90.9916 25.8594 85.4748 26.5843 80.1623C31.2058 78.5748 34.3466 78.2001 39.507 78.3867Z" fill="currentColor"/>
<path d="M30.4522 94.3496C31.4215 94.9016 32.3907 95.4535 33.36 96.0055C33.9682 96.3503 34.5765 96.695 35.2033 97.0503C36.406 97.7383 37.6013 98.434 38.786 99.1398C47.746 104.431 57.5512 106.295 68.6684 107.597C64.8969 110.46 59.0311 110.293 53.9739 110.356C43.1438 110.329 34.6237 107.649 26.5157 102.213C25.4675 101.289 25.4675 101.289 25.0002 99.4749C25.6749 96.6287 27.3978 95.9924 30.4522 94.3496Z" fill="currentColor"/>
<path d="M135.339 94.3496C141.29 96.7419 141.29 96.7419 142.482 99.291C140.934 102.89 136.688 104.705 132.21 106.576C121.811 110.392 109.831 111.482 98.4433 109.095C97.2358 108.796 96.032 108.489 94.8438 108.154C94.8438 107.947 94.8438 107.74 94.8438 107.527C95.3324 107.47 95.8211 107.414 96.3245 107.356C112.112 105.486 123.75 102.43 135.339 94.3496Z" fill="currentColor"/>
<path d="M135.339 94.3496C141.29 96.7419 141.29 96.7419 142.482 99.291C140.934 102.89 136.688 104.705 132.21 106.576C121.811 110.392 109.831 111.482 98.4433 109.095C97.2358 108.796 96.032 108.489 94.8438 108.154C94.8438 107.947 94.8438 107.74 94.8438 107.527C95.3324 107.47 95.8211 107.414 96.3245 107.356C112.112 105.486 123.75 102.43 135.339 94.3496Z" fill="currentColor"/>
</svg>
