<svg width="211" height="151" viewBox="0 0 211 151" fill="none" xmlns="http://www.w3.org/2000/svg">
<path d="M100.4 7.8V5H102.4C103.58 5 104.6 4.58 104.6 3H107.4V14.2H110V17H100.8V14.2H104.4V7.08C103.92 7.68 103.16 7.8 102.4 7.8H100.4ZM113.204 15.46C113.204 14.38 113.864 13.72 114.944 13.72C116.024 13.72 116.684 14.38 116.684 15.46C116.684 16.54 116.024 17.2 114.944 17.2C113.864 17.2 113.204 16.54 113.204 15.46ZM122.383 11.1H119.583L120.483 3H129.683V5.64H122.843L122.543 8.34C123.483 7.74 124.563 7.5 125.683 7.5C128.603 7.5 130.883 9.12 130.883 12.22C130.883 15.3 128.643 17.2 125.003 17.2C121.963 17.2 119.683 15.46 119.583 13.02H122.583C122.703 14.2 123.983 14.6 125.083 14.6C126.703 14.6 127.783 13.74 127.783 12.32C127.783 10.92 126.743 10.06 125.063 10.06C123.983 10.06 122.923 10.4 122.383 11.1ZM132.287 16.92L135.727 11.8L132.547 7.08V7H135.927L137.587 9.66L139.207 7H142.347V7.08L139.167 11.82L142.607 16.92V17H139.227L137.307 13.96L135.427 17H132.287V16.92Z" fill="currentColor"/>
<path d="M17.6622 94.1806L12.5422 90.7406L7.82219 93.9206H7.74219V90.5406L10.4022 88.8806L7.74219 87.2606V84.1206H7.82219L12.5622 87.3006L17.6622 83.8606H17.7422V87.2406L14.7022 89.1606L17.7422 91.0406V94.1806H17.6622Z" fill="currentColor"/>
<mask id="path-3-inside-1_905_376" fill="currentColor">
<path d="M19 27H22V151H19V27Z"/>
</mask>
<path d="M19 27V26H18V27H19ZM19 151H18V152H19V151ZM19 28H22V26H19V28ZM22 150H19V152H22V150ZM20 151V27H18V151H20Z" fill="currentColor" mask="url(#path-3-inside-1_905_376)"/>
<mask id="path-5-inside-2_905_376" fill="currentColor">
<path d="M211 18V21L25 21V18L211 18Z"/>
</mask>
<path d="M211 18H212V17H211V18ZM25 18V17H24V18H25ZM210 18V21H212V18H210ZM26 21V18H24V21H26ZM25 19L211 19V17L25 17V19Z" fill="currentColor" mask="url(#path-5-inside-2_905_376)"/>
</svg>
