<svg width="760" height="531" viewBox="0 0 5966 4320" fill="none" xmlns="http://www.w3.org/2000/svg">
<path d="M262.143 347.185C250.362 345.325 157.147 406.297 185.257 581.566C200.347 675.658 301.302 875.232 531.072 855.46C695.734 841.29 827.088 694.188 829.875 588.127C836.542 334.493 663.548 340.124 595.087 213.806C521.885 78.7413 622.867 43.1243 595.98 19.8731C568.728 -3.69251 396.662 59.5353 367.418 180.869C328.519 342.256 404.161 519.432 336.55 531.961C258.474 546.43 273.924 349.045 262.143 347.185Z" stroke="#1A2A46" stroke-width="30" stroke-miterlimit="10" stroke-linecap="round" stroke-linejoin="round"/>
<path d="M1781.62 339.926C1804.42 391.23 2019.05 304.779 2025.15 409.217C2027.66 452.134 1997.45 470.361 1999.02 472.971C2002.15 478.185 2036.55 480.06 2033.56 525.803C2031.07 563.873 1992.53 562.131 1991.43 572.802C1990.9 577.915 2019.12 585.857 2010.89 630.106C2002.91 673.002 1952.1 667.854 1952.44 689.624C1952.77 709.814 1985.14 693.312 1978.45 736.349C1967.58 806.241 1794.4 795.376 1736.53 793.93C1597.83 790.465 1506.86 683.185 1503.16 578.562C1501.85 541.389 1513.76 467.256 1544.46 406.977C1567.41 361.92 1638.27 304.637 1663.16 266.957C1692.52 222.528 1729.43 98.0187 1780.5 78.7537C1825.78 61.6757 1839.68 143.398 1829.68 187.134C1814.46 253.68 1772.44 319.278 1781.62 339.926Z" stroke="#1A2A46" stroke-width="30" stroke-miterlimit="10" stroke-linecap="round" stroke-linejoin="round"/>
<path d="M1534.71 395.998C1410.32 354.142 1340.01 481.939 1349.92 579.046C1356.42 642.744 1388.27 813.245 1592.84 754.611" stroke="#1A2A46" stroke-width="30" stroke-miterlimit="10" stroke-linecap="round" stroke-linejoin="round"/>
<path d="M2785.98 209.677C2754.23 236.376 2759.94 399.934 2777.57 427.18C2800.94 463.299 3105.92 462.342 3129.63 426.737C3148.55 398.325 3151.05 230.221 3126.6 212.52C3093.25 188.376 2814.48 185.711 2785.98 209.677Z" stroke="#1A2A46" stroke-width="30" stroke-miterlimit="10" stroke-linecap="round" stroke-linejoin="round"/>
<path d="M2849.73 288.312L3053.19 288.658" stroke="#1A2A46" stroke-width="30" stroke-miterlimit="10" stroke-linecap="round" stroke-linejoin="round"/>
<path d="M2902.81 359.335L3009.59 357.774" stroke="#1A2A46" stroke-width="30" stroke-miterlimit="10" stroke-linecap="round" stroke-linejoin="round"/>
<path d="M3251.61 517.269C3251.61 517.269 3327.08 397.935 3332.82 377.547C3342.7 342.491 3290.9 335.486 3296.35 325.5C3304.3 310.951 3311.75 294.017 3311.75 294.017C3340.6 238.96 3259.08 208.892 3235.35 247.661C3176.9 343.116 3069.32 532.97 3026.16 609.552C3006.92 643.694 3031.04 685.257 3031.04 685.257L3004.35 731.765L3030.91 684.867C3030.91 684.867 3079.65 681.516 3095.59 657.068C3159.75 558.691 3287.34 337.757 3292.28 328.912" stroke="#1A2A46" stroke-width="30" stroke-miterlimit="10" stroke-linecap="round" stroke-linejoin="round"/>
<path d="M3219.71 287.512L3283.74 322.871" stroke="#1A2A46" stroke-width="30" stroke-miterlimit="10" stroke-linecap="round" stroke-linejoin="round"/>
<path d="M3124.04 437.679L3200.59 482.272" stroke="#1A2A46" stroke-width="30" stroke-miterlimit="10" stroke-linecap="round" stroke-linejoin="round"/>
<path d="M3218.02 270.071C3218.02 270.071 3230.45 97.1854 3205.26 71.3374C3153.65 18.3775 2674.42 24.4107 2637.8 68.4364C2629.79 78.0684 2623.29 91.2784 2618.3 122.344" stroke="#1A2A46" stroke-width="30" stroke-miterlimit="10" stroke-linecap="round" stroke-linejoin="round"/>
<path d="M2624.39 750.303C2626.83 763.257 2624.54 797.462 2648.8 809.239C2714.91 841.33 3159.51 857.276 3209.93 801.012C3223.32 786.071 3218.93 636.339 3220.58 456.549" stroke="#1A2A46" stroke-width="30" stroke-miterlimit="10" stroke-linecap="round" stroke-linejoin="round"/>
<path d="M2619.93 571.009C2620.13 601.005 2618.86 640.971 2619.54 666.701" stroke="#1A2A46" stroke-width="30" stroke-miterlimit="10" stroke-linecap="round" stroke-linejoin="round"/>
<path d="M2618.4 394.804C2618.29 428.347 2619.22 484.67 2619.22 484.67" stroke="#1A2A46" stroke-width="30" stroke-miterlimit="10" stroke-linecap="round" stroke-linejoin="round"/>
<path d="M2564.87 173.09C2565.07 220.031 2676.11 223.856 2680.65 172.025C2685.76 113.69 2564.65 120.105 2564.87 173.09Z" stroke="#1A2A46" stroke-width="30" stroke-miterlimit="10" stroke-linecap="round" stroke-linejoin="round"/>
<path d="M2562.94 357.003C2563.14 403.944 2674.17 407.768 2678.71 355.938C2683.82 297.603 2562.71 304.018 2562.94 357.003Z" stroke="#1A2A46" stroke-width="30" stroke-miterlimit="10" stroke-linecap="round" stroke-linejoin="round"/>
<path d="M2561 532.203C2561.2 579.145 2672.23 582.969 2676.77 531.138C2681.88 472.803 2560.78 479.219 2561 532.203Z" stroke="#1A2A46" stroke-width="30" stroke-miterlimit="10" stroke-linecap="round" stroke-linejoin="round"/>
<path d="M2561.97 709.34C2562.17 756.281 2673.2 760.106 2677.74 708.275C2682.85 649.94 2561.74 656.355 2561.97 709.34Z" stroke="#1A2A46" stroke-width="30" stroke-miterlimit="10" stroke-linecap="round" stroke-linejoin="round"/>
<path d="M2619.22 218.08L2620.39 303.471" stroke="#1A2A46" stroke-width="30" stroke-miterlimit="10" stroke-linecap="round" stroke-linejoin="round"/>
<path d="M3786.07 398.753C3790.66 381.619 3779.47 352.207 3804.42 330.215C3838.33 300.318 4015.53 194.499 4124.88 139.243C4166.01 118.461 4197.55 104.831 4208.25 105.084C4272.38 106.598 4593.76 298.523 4620.25 343.131C4648.27 390.297 4646.68 669.887 4606.82 728.618C4569.3 783.916 3847.27 775.651 3807.82 725.797C3777.07 686.945 3786.3 388.302 3786.3 388.302C3786.3 388.302 4179.08 634.673 4215.21 638.661C4268.02 644.49 4626.24 369.834 4626.24 369.834" stroke="#1A2A46" stroke-width="30" stroke-miterlimit="10" stroke-linecap="round" stroke-linejoin="round"/>
<path d="M3792.92 666.225L4004.74 529.266" stroke="#1A2A46" stroke-width="30" stroke-miterlimit="10" stroke-linecap="round" stroke-linejoin="round"/>
<path d="M4406.24 535.181L4623.74 663.033" stroke="#1A2A46" stroke-width="30" stroke-miterlimit="10" stroke-linecap="round" stroke-linejoin="round"/>
<path d="M4009.8 525.682C3909.94 439.476 3978.84 284.25 4078.9 267.343C4168.75 252.162 4210.69 329.688 4211.68 329.44C4213.56 328.971 4242.2 271.688 4315.65 266.872C4400.06 261.337 4520.8 374.399 4408.26 531.725" stroke="#1A2A46" stroke-width="30" stroke-miterlimit="10" stroke-linecap="round" stroke-linejoin="round"/>
<path d="M5245.43 489.61C5237.03 479.277 5190.27 474.752 5174.66 485.9C5159.23 496.923 5165.67 557.664 5175.44 562.554C5185.2 567.445 5235.23 569.355 5242.42 559.651C5250.7 548.479 5252.54 498.352 5245.43 489.61Z" stroke="#1A2A46" stroke-width="30" stroke-miterlimit="10" stroke-linecap="round" stroke-linejoin="round"/>
<path d="M5245.43 639.578C5237.03 629.246 5190.27 624.72 5174.66 635.868C5159.23 646.891 5165.67 707.633 5175.44 712.522C5185.2 717.414 5235.23 719.324 5242.42 709.619C5250.7 698.447 5252.54 648.321 5245.43 639.578Z" stroke="#1A2A46" stroke-width="30" stroke-miterlimit="10" stroke-linecap="round" stroke-linejoin="round"/>
<path d="M5409.72 490.291C5401.32 479.959 5354.55 475.433 5338.94 486.581C5323.51 497.604 5329.95 558.346 5339.72 563.236C5349.49 568.127 5399.51 570.037 5406.7 560.332C5414.99 549.161 5416.82 499.034 5409.72 490.291Z" stroke="#1A2A46" stroke-width="30" stroke-miterlimit="10" stroke-linecap="round" stroke-linejoin="round"/>
<path d="M5409.72 634.807C5401.32 624.474 5354.55 619.948 5338.94 631.096C5323.51 642.119 5329.95 702.861 5339.72 707.751C5349.49 712.642 5399.51 714.552 5406.7 704.847C5414.99 693.676 5416.82 643.549 5409.72 634.807Z" stroke="#1A2A46" stroke-width="30" stroke-miterlimit="10" stroke-linecap="round" stroke-linejoin="round"/>
<path d="M5568.55 491.655C5560.15 481.322 5513.38 476.797 5497.77 487.945C5482.34 498.968 5488.78 559.709 5498.55 564.599C5508.32 569.49 5558.34 571.4 5565.53 561.696C5573.82 550.524 5575.65 500.397 5568.55 491.655Z" stroke="#1A2A46" stroke-width="30" stroke-miterlimit="10" stroke-linecap="round" stroke-linejoin="round"/>
<path d="M5568.55 638.215C5560.15 627.882 5513.38 623.357 5497.77 634.505C5482.34 645.528 5488.78 706.27 5498.55 711.159C5508.32 716.051 5558.34 717.96 5565.53 708.256C5573.82 697.084 5575.65 646.957 5568.55 638.215Z" stroke="#1A2A46" stroke-width="30" stroke-miterlimit="10" stroke-linecap="round" stroke-linejoin="round"/>
<path d="M5740.33 498.472C5731.93 488.139 5685.16 483.613 5669.56 494.761C5654.12 505.784 5660.57 566.526 5670.33 571.416C5680.1 576.307 5730.12 578.217 5737.32 568.512C5745.6 557.341 5747.43 507.214 5740.33 498.472Z" stroke="#1A2A46" stroke-width="30" stroke-miterlimit="10" stroke-linecap="round" stroke-linejoin="round"/>
<path d="M5803.7 265.76L5094.22 265.634C5094.22 265.634 5085.64 119.214 5109.02 102.731C5156.18 69.4855 5791.46 78.0465 5797.25 106.437C5814.25 189.921 5823.28 770.358 5792.1 813.534C5763.99 852.454 5146.56 839.372 5110.08 810.219C5069.93 778.136 5094.36 262.986 5094.36 262.986" stroke="#1A2A46" stroke-width="30" stroke-miterlimit="10" stroke-linecap="round" stroke-linejoin="round"/>
<path d="M5698.59 89.8191C5688.23 -72.9398 5562.43 165.936 5674.39 163.728" stroke="#1A2A46" stroke-width="30" stroke-miterlimit="10" stroke-linecap="round" stroke-linejoin="round"/>
<path d="M5266.25 85.8949C5229.95 -67.6982 5142.34 180.913 5243.36 163.074" stroke="#1A2A46" stroke-width="30" stroke-miterlimit="10" stroke-linecap="round" stroke-linejoin="round"/>
<path d="M5094.45 758.859C5132.3 802.119 5601.8 786.493 5649.25 777.003C5663.59 774.135 5809.3 622.393 5809.3 622.393C5809.3 622.393 5698.65 613.372 5671.12 628.111C5629.23 650.527 5646.26 722.978 5646.26 764.809" stroke="#1A2A46" stroke-width="30" stroke-miterlimit="10" stroke-linecap="round" stroke-linejoin="round"/>
<path d="M5245.43 340.664C5237.03 330.331 5190.27 325.806 5174.66 336.954C5159.23 347.977 5165.67 408.718 5175.44 413.608C5185.2 418.499 5235.23 420.409 5242.42 410.705C5250.7 399.533 5252.54 349.406 5245.43 340.664Z" stroke="#1A2A46" stroke-width="30" stroke-miterlimit="10" stroke-linecap="round" stroke-linejoin="round"/>
<path d="M5409.72 340.664C5401.32 330.331 5354.55 325.806 5338.94 336.954C5323.51 347.977 5329.95 408.718 5339.72 413.608C5349.49 418.499 5399.51 420.409 5406.7 410.705C5414.99 399.533 5416.82 349.406 5409.72 340.664Z" stroke="#1A2A46" stroke-width="30" stroke-miterlimit="10" stroke-linecap="round" stroke-linejoin="round"/>
<path d="M5568.55 340.664C5560.15 330.331 5513.38 325.806 5497.77 336.954C5482.34 347.977 5488.78 408.718 5498.55 413.608C5508.32 418.499 5558.34 420.409 5565.53 410.705C5573.82 399.533 5575.65 349.406 5568.55 340.664Z" stroke="#1A2A46" stroke-width="30" stroke-miterlimit="10" stroke-linecap="round" stroke-linejoin="round"/>
<path d="M5740.33 340.664C5731.93 330.331 5685.16 325.806 5669.56 336.954C5654.12 347.977 5660.57 408.718 5670.33 413.608C5680.1 418.499 5730.12 420.409 5737.32 410.705C5745.6 399.533 5747.43 349.406 5740.33 340.664Z" stroke="#1A2A46" stroke-width="30" stroke-miterlimit="10" stroke-linecap="round" stroke-linejoin="round"/>
<path d="M435.402 1537.85C435.402 1499.19 466.742 1467.85 505.402 1467.85C544.062 1467.85 575.402 1499.19 575.402 1537.85C575.402 1576.51 544.062 1607.85 505.402 1607.85C466.742 1607.85 435.402 1576.51 435.402 1537.85Z" stroke="#1A2A46" stroke-width="30" stroke-miterlimit="10" stroke-linecap="round" stroke-linejoin="round"/>
<path d="M805.169 1298.76C862.782 1366.91 888.62 1436.91 888.62 1533.14C888.62 1749.25 713.425 1924.45 497.31 1924.45C443.518 1924.45 392.261 1913.59 345.609 1893.96" stroke="#1A2A46" stroke-width="30" stroke-miterlimit="10" stroke-linecap="round" stroke-linejoin="round"/>
<path d="M114.257 1777.71L201.379 1789.16L194.63 1702.77" stroke="#1A2A46" stroke-width="30" stroke-miterlimit="10" stroke-linecap="round" stroke-linejoin="round"/>
<path d="M803.228 1372.16L799.032 1293.22L880.844 1302.26" stroke="#1A2A46" stroke-width="30" stroke-miterlimit="10" stroke-linecap="round" stroke-linejoin="round"/>
<path d="M200.27 1787.89C141.507 1719.43 106 1630.43 106 1533.14C106 1317.02 281.196 1141.83 497.31 1141.83C556.261 1141.83 612.167 1154.86 662.303 1178.21" stroke="#1A2A46" stroke-width="30" stroke-miterlimit="10" stroke-linecap="round" stroke-linejoin="round"/>
<path d="M788.519 1523.36C789.396 1532.36 789.845 1541.49 789.845 1550.73C789.845 1704.77 664.972 1829.64 510.933 1829.64C501.931 1829.64 493.028 1829.21 484.244 1828.38" stroke="#1A2A46" stroke-width="30" stroke-miterlimit="10" stroke-linecap="round" stroke-linejoin="round"/>
<path d="M222.07 1540.78C222.07 1386.74 346.943 1261.87 500.982 1261.87" stroke="#1A2A46" stroke-width="30" stroke-miterlimit="10" stroke-linecap="round" stroke-linejoin="round"/>
<path d="M280.685 1491.6C302.37 1489.19 318.464 1494.73 346.896 1492.36C351.489 1491.98 362.985 1469.95 358.845 1465.96C346.131 1453.71 310.882 1427.49 312.068 1421.56C312.91 1417.35 379.578 1353.91 387.465 1355.35C396.346 1356.96 423.177 1392.8 431.861 1398.59C433.583 1399.74 455.503 1388.99 455.59 1388.64C455.89 1387.44 452.318 1336.49 454.825 1323.96C456.5 1315.58 526.982 1315.28 553.568 1318.6C555.596 1318.86 548.808 1384.16 555.865 1388.26C567.729 1395.15 573.91 1401.24 582.891 1396.33C592.948 1390.84 624.15 1343.35 632.41 1348.07C650.885 1358.63 702.776 1412.21 702.066 1415.05C701.381 1417.79 648.833 1463.59 652.311 1470.16C659.2 1483.18 653.46 1475.14 661.337 1489.38C666.262 1498.29 727.226 1491.56 728.857 1494.27" stroke="#1A2A46" stroke-width="30" stroke-miterlimit="10" stroke-linecap="round" stroke-linejoin="round"/>
<path d="M279.456 1492.48C279.456 1492.48 273.149 1584.79 280.038 1585.56C301.723 1587.97 317.818 1582.42 346.25 1584.79C350.842 1585.17 362.339 1607.2 358.199 1611.19C345.484 1623.45 310.235 1649.66 311.422 1655.6C312.263 1659.81 378.931 1723.24 386.819 1721.81C395.699 1720.19 422.53 1684.35 431.215 1678.56C432.936 1677.41 454.857 1688.16 454.944 1688.51C455.244 1689.71 451.672 1740.66 454.178 1753.19C455.854 1761.57 526.336 1761.87 552.922 1758.55C554.949 1758.3 548.162 1692.99 555.218 1688.89C567.083 1682 573.264 1675.91 582.245 1680.82C592.302 1686.31 623.504 1733.8 631.763 1729.08C650.239 1718.52 702.129 1664.94 701.419 1662.1C700.735 1659.36 648.186 1613.56 651.665 1606.99C658.554 1593.98 652.813 1602.01 660.691 1587.77C665.615 1578.87 726.579 1585.6 728.21 1582.88C733.182 1574.59 730.261 1507.79 730.261 1495.04" stroke="#1A2A46" stroke-width="30" stroke-miterlimit="10" stroke-linecap="round" stroke-linejoin="round"/>
<path d="M1727.4 1508.4L1834.02 1393.93" stroke="#1A2A46" stroke-width="30" stroke-miterlimit="10" stroke-linecap="round" stroke-linejoin="round"/>
<path d="M1602.33 1445.32L1662.22 1509.26" stroke="#1A2A46" stroke-width="30" stroke-miterlimit="10" stroke-linecap="round" stroke-linejoin="round"/>
<path d="M1690.68 1318.53L1693.34 1347.11" stroke="#1A2A46" stroke-width="30" stroke-miterlimit="10" stroke-linecap="round" stroke-linejoin="round"/>
<path d="M1886.91 1536.27L1916.38 1537.14" stroke="#1A2A46" stroke-width="30" stroke-miterlimit="10" stroke-linecap="round" stroke-linejoin="round"/>
<path d="M1690.81 1757.91L1690.13 1727.77" stroke="#1A2A46" stroke-width="30" stroke-miterlimit="10" stroke-linecap="round" stroke-linejoin="round"/>
<path d="M1470.31 1538.8L1499.6 1539.04" stroke="#1A2A46" stroke-width="30" stroke-miterlimit="10" stroke-linecap="round" stroke-linejoin="round"/>
<path d="M1656.65 1538.76C1656.65 1517.15 1674.17 1499.63 1695.78 1499.63C1717.39 1499.63 1734.91 1517.15 1734.91 1538.76C1734.91 1560.37 1717.39 1577.89 1695.78 1577.89C1674.17 1577.89 1656.65 1560.37 1656.65 1538.76Z" stroke="#1A2A46" stroke-width="30" stroke-miterlimit="10" stroke-linecap="round" stroke-linejoin="round"/>
<path d="M2001.17 1298.76C2058.78 1366.91 2084.62 1436.91 2084.62 1533.14C2084.62 1749.25 1909.43 1924.45 1693.31 1924.45C1639.52 1924.45 1588.26 1913.59 1541.61 1893.96" stroke="#1A2A46" stroke-width="30" stroke-miterlimit="10" stroke-linecap="round" stroke-linejoin="round"/>
<path d="M1310.26 1777.71L1397.38 1789.16L1390.63 1702.77" stroke="#1A2A46" stroke-width="30" stroke-miterlimit="10" stroke-linecap="round" stroke-linejoin="round"/>
<path d="M1999.23 1372.16L1995.03 1293.22L2076.84 1302.26" stroke="#1A2A46" stroke-width="30" stroke-miterlimit="10" stroke-linecap="round" stroke-linejoin="round"/>
<path d="M1396.27 1787.89C1337.51 1719.43 1302 1630.43 1302 1533.14C1302 1317.02 1477.2 1141.83 1693.31 1141.83C1752.26 1141.83 1808.17 1154.86 1858.3 1178.21" stroke="#1A2A46" stroke-width="30" stroke-miterlimit="10" stroke-linecap="round" stroke-linejoin="round"/>
<path d="M1418.07 1540.78C1418.07 1386.74 1542.94 1261.87 1696.98 1261.87C1851.02 1261.87 1975.9 1386.74 1975.9 1540.78C1975.9 1694.82 1851.02 1819.69 1696.98 1819.69C1542.94 1819.69 1418.07 1694.82 1418.07 1540.78Z" stroke="#1A2A46" stroke-width="30" stroke-miterlimit="10" stroke-linejoin="round"/>
<path d="M3244.05 1212.71L3291.57 1164.79" stroke="#1A2A46" stroke-width="30" stroke-miterlimit="10" stroke-linecap="round" stroke-linejoin="round"/>
<path d="M3298.58 1355.51L3369.77 1356.14" stroke="#1A2A46" stroke-width="30" stroke-miterlimit="10" stroke-linecap="round" stroke-linejoin="round"/>
<path d="M3240.28 1502.06L3286.68 1546.35" stroke="#1A2A46" stroke-width="30" stroke-miterlimit="10" stroke-linecap="round" stroke-linejoin="round"/>
<path d="M2645.17 1547.64L2689.66 1505.16" stroke="#1A2A46" stroke-width="30" stroke-miterlimit="10" stroke-linecap="round" stroke-linejoin="round"/>
<path d="M2568 1357.42L2633.31 1357.38" stroke="#1A2A46" stroke-width="30" stroke-miterlimit="10" stroke-linecap="round" stroke-linejoin="round"/>
<path d="M2644.88 1166.35L2688.82 1214.36" stroke="#1A2A46" stroke-width="30" stroke-miterlimit="10" stroke-linecap="round" stroke-linejoin="round"/>
<path d="M3252.9 1824.41C3198.52 1821.94 2756.96 1830.08 2680.83 1824.72C2635.48 1821.53 2634.05 1908.94 2678.36 1910.1C2794.32 1913.11 3234.33 1913.89 3249.21 1914.06C3302.81 1914.65 3307.06 1826.87 3252.9 1824.41Z" stroke="#1A2A46" stroke-width="30" stroke-miterlimit="10" stroke-linecap="round" stroke-linejoin="round"/>
<path d="M2748.23 1827.45C2684.23 1824.16 2688.78 1730.58 2743.72 1734.65C2861.4 1743.35 3074.66 1736.8 3201.28 1739.99C3247.12 1741.14 3254.16 1827.49 3190.87 1824.03" stroke="#1A2A46" stroke-width="30" stroke-miterlimit="10" stroke-linecap="round" stroke-linejoin="round"/>
<path d="M2789.74 1736.72C2743.28 1739.89 2743.39 1646.06 2798.16 1647.9C2853.54 1649.76 3109.45 1647.2 3132.35 1646.94C3186.87 1646.34 3182.21 1737.54 3130.85 1739.76" stroke="#1A2A46" stroke-width="30" stroke-miterlimit="10" stroke-linecap="round" stroke-linejoin="round"/>
<path d="M2862.68 1382.9C2867.76 1410.5 2814.87 1505.65 2841.48 1521.01C2868.1 1536.36 2944.37 1444.47 2969.15 1444.34C2992.37 1444.21 3073.15 1534.61 3101.13 1517.26C3129.12 1499.9 3067.65 1407.39 3073.19 1386.54C3078.84 1365.27 3176.75 1317.69 3164.99 1287.2C3153.23 1256.72 3061.85 1294.7 3039.1 1282.52C3019.36 1271.96 2996.62 1147.69 2965.05 1152.34C2933.48 1157 2929.24 1271.81 2907.8 1282.99C2884.41 1295.19 2786.7 1259.53 2774.99 1285.91C2763.29 1312.29 2857.92 1357.02 2862.68 1382.9Z" stroke="#1A2A46" stroke-width="30" stroke-miterlimit="10" stroke-linecap="round" stroke-linejoin="round"/>
<path d="M4128.93 1868.79C4188.91 1887.63 4400.68 1871.48 4395.24 1843.69C4370.24 1716.17 4449.2 1606.18 4471.88 1523.04C4513.56 1370.2 4473.44 1134.61 4165.88 1141.13C3943.75 1145.84 3894.4 1345.84 3888.6 1415.5C3886.81 1436.92 3896.7 1481.55 3889.96 1501.78C3882.59 1523.9 3830.1 1560.73 3834.23 1581.41C3839.09 1605.68 3885.84 1605.47 3890.23 1627.41C3894.31 1647.8 3905.85 1697.12 3909.11 1716.44C3913.78 1744.17 3909.21 1765.01 3932.23 1784.41C3958.87 1806.86 4061.68 1787.98 4076.23 1791.41C4115.62 1800.68 4128.69 1867.88 4128.69 1867.88" stroke="#1A2A46" stroke-width="30" stroke-miterlimit="10" stroke-linecap="round" stroke-linejoin="round"/>
<path d="M4177.73 1535.54L4148.84 1232.03L4267.73 1230.14L4241.23 1536.41L4177.73 1535.54Z" stroke="#1A2A46" stroke-width="30" stroke-miterlimit="10" stroke-linecap="round" stroke-linejoin="round"/>
<path d="M4180.59 1615.5C4180.59 1598.1 4194.69 1584 4212.09 1584C4229.49 1584 4243.59 1598.1 4243.59 1615.5C4243.59 1632.89 4229.49 1647 4212.09 1647C4194.69 1647 4180.59 1632.89 4180.59 1615.5Z" stroke="#1A2A46" stroke-width="24.7222" stroke-miterlimit="10" stroke-linejoin="round"/>
<path d="M5313.05 1258.28C5313.05 1258.28 5300.17 1183.39 5383.79 1182.41C5448.76 1181.65 5450.04 1272.46 5450.04 1283.52C5450.04 1316.79 5449.04 1674.79 5449.04 1772.52C5449.04 1827.45 5450.69 1890.83 5386.04 1905.52C5298.04 1925.52 5281.84 1861.62 5271.04 1853.52C5263.75 1848.06 5191.04 1875.52 5172.04 1801.52C5158.93 1750.47 5189.04 1708.52 5254.04 1703.52" stroke="#1A2A46" stroke-width="30" stroke-miterlimit="10" stroke-linecap="round" stroke-linejoin="round"/>
<path d="M5175.04 1736.52C5107.89 1736.52 5098.04 1594.52 5163.04 1581.52" stroke="#1A2A46" stroke-width="30" stroke-miterlimit="10" stroke-linecap="round" stroke-linejoin="round"/>
<path d="M5301.04 1494.52C5301.04 1491.04 5315.06 1594.52 5204.04 1594.52C5119.04 1594.52 5082.74 1434.11 5153.62 1426.78C5165.35 1425.56 5123.8 1394.38 5162.04 1353.52C5185 1328.99 5220.04 1341.52 5220.04 1341.52C5220.04 1341.52 5202.87 1275.25 5256.04 1257.52C5307.04 1240.52 5346.04 1276.69 5346.04 1311.52" stroke="#1A2A46" stroke-width="30" stroke-miterlimit="10" stroke-linecap="round" stroke-linejoin="round"/>
<path d="M5638.33 1255.87C5638.33 1255.87 5650.82 1180.98 5569.72 1180C5506.72 1179.25 5505.47 1270.05 5505.47 1281.12C5505.47 1284.48 5505.48 1291.17 5505.5 1300.57C5505.66 1384.14 5506.44 1682.27 5506.44 1770.12C5506.44 1825.04 5504.84 1888.42 5567.54 1903.12C5652.89 1923.12 5668.6 1859.22 5679.07 1851.12C5686.14 1845.65 5756.66 1873.12 5775.09 1799.12C5787.8 1748.06 5758.6 1706.12 5695.56 1701.12" stroke="#1A2A46" stroke-width="30" stroke-miterlimit="10" stroke-linecap="round" stroke-linejoin="round"/>
<path d="M5772.18 1734.12C5837.3 1734.12 5846.86 1592.12 5783.82 1579.12" stroke="#1A2A46" stroke-width="30" stroke-miterlimit="10" stroke-linecap="round" stroke-linejoin="round"/>
<path d="M5649.98 1492.12C5649.98 1488.64 5636.38 1592.12 5744.05 1592.12C5826.49 1592.12 5861.69 1431.7 5792.95 1424.37C5781.57 1423.16 5821.87 1391.97 5784.79 1351.12C5762.52 1326.58 5728.54 1339.12 5728.54 1339.12C5728.54 1339.12 5745.19 1272.84 5693.62 1255.12C5644.16 1238.12 5606.34 1274.28 5606.34 1309.12" stroke="#1A2A46" stroke-width="30" stroke-miterlimit="10" stroke-linecap="round" stroke-linejoin="round"/>
<path d="M338.121 2351.08C338.121 2272.86 401.533 2209.45 479.755 2209.45C557.976 2209.45 621.388 2272.86 621.388 2351.08C621.388 2429.3 557.976 2492.71 479.755 2492.71C401.533 2492.71 338.121 2429.3 338.121 2351.08Z" stroke="#1A2A46" stroke-width="30" stroke-miterlimit="10" stroke-linejoin="round"/>
<path d="M434.796 2492.11C434.017 2489.28 443.8 2553.85 434.157 2566.03C422.402 2580.87 328.971 2570.86 316.712 2590.26C292.205 2629.03 300.547 2780.99 301.541 2800.59C301.84 2806.5 213.662 2885.77 208.256 2887.99C198.986 2891.8 157.654 2878.66 139.968 2894.24C125.863 2906.67 127.48 2939.58 151.397 2944.42C172.709 2948.73 245.202 2956.53 259.386 2942.96C305.799 2898.56 375.016 2834.99 377.911 2820.38C379.475 2812.49 339.22 2654.75 321.272 2589.39" stroke="#1A2A46" stroke-width="30" stroke-miterlimit="10" stroke-linecap="round" stroke-linejoin="round"/>
<path d="M574.409 2866.45C574.409 2866.45 634.978 2643.95 650.657 2585.18" stroke="#1A2A46" stroke-width="30" stroke-miterlimit="10" stroke-linecap="round" stroke-linejoin="round"/>
<path d="M529.968 2490.72C529.968 2490.72 521.295 2559.03 530.681 2569.91C537.291 2577.57 632.208 2561.6 656.918 2585.07C687.405 2614.02 658.612 2802.82 662.121 2810.34C666.345 2819.38 739.089 2878.75 754.003 2890.31C766.428 2899.94 801.246 2889.37 813.659 2899.96C825.309 2909.9 832.525 2930.69 817.758 2943.65C806.193 2953.81 734.475 2947.28 712.264 2946.48C706.856 2946.29 591.182 2832.86 591.182 2832.86" stroke="#1A2A46" stroke-width="30" stroke-miterlimit="10" stroke-linecap="round" stroke-linejoin="round"/>
<path d="M378.837 2821.92L393.434 2876.39C393.434 2876.39 315.684 2964.45 308.264 2969.41C299.875 2975.03 158.373 2931.74 149.989 3003.99C141.22 3079.56 595.81 3087.93 595.169 3069.56C593.285 3015.54 384.327 2981.3 302.806 2969.94" stroke="#1A2A46" stroke-width="30" stroke-miterlimit="10" stroke-linecap="round" stroke-linejoin="round"/>
<path d="M603.41 3067.89C603.41 3067.89 818.366 3068.06 819.399 3009.61C821.448 2893.58 481.977 3001.37 481.977 3001.37" stroke="#1A2A46" stroke-width="30" stroke-miterlimit="10" stroke-linecap="round" stroke-linejoin="round"/>
<path d="M392.604 2876.28C392.604 2876.28 564.343 2869.95 572.779 2876.46C581.045 2882.84 647.219 2955.17 647.219 2955.17" stroke="#1A2A46" stroke-width="30" stroke-miterlimit="10" stroke-linecap="round" stroke-linejoin="round"/>
<path d="M393.371 2578.44C388.664 2674.72 573.86 2670.68 580.002 2576.6" stroke="#1A2A46" stroke-width="30" stroke-miterlimit="10" stroke-linecap="round" stroke-linejoin="round"/>
<path d="M509.088 2215.6C482.339 2267.82 437.163 2337.81 344.479 2343.25" stroke="#1A2A46" stroke-width="30" stroke-miterlimit="10" stroke-linecap="round" stroke-linejoin="round"/>
<path d="M496.752 2250.84C514.285 2274.7 572.35 2313.72 605.016 2303.18" stroke="#1A2A46" stroke-width="30" stroke-miterlimit="10" stroke-linecap="round" stroke-linejoin="round"/>
<path d="M1687.53 3056.29L1693.26 2318.85" stroke="#1A2A46" stroke-width="30" stroke-miterlimit="10" stroke-linecap="round" stroke-linejoin="round"/>
<path d="M1692.8 3007.4L1875.93 2828.88" stroke="#1A2A46" stroke-width="30" stroke-miterlimit="10" stroke-linecap="round" stroke-linejoin="round"/>
<path d="M1755 2941.75C1743.6 2929.1 1745.58 2827.96 1797.22 2785.65C1856.75 2736.87 1968.08 2747.1 1968.08 2747.1C1968.08 2747.1 1976.16 2859.34 1916.57 2912.09C1860.08 2962.1 1782.8 2972.62 1755 2941.75Z" stroke="#1A2A46" stroke-width="30" stroke-miterlimit="10" stroke-linecap="round" stroke-linejoin="round"/>
<path d="M1680.13 2902.59L1475.75 2769.68" stroke="#1A2A46" stroke-width="30" stroke-miterlimit="10" stroke-linecap="round" stroke-linejoin="round"/>
<path d="M1589.72 2838.09C1605.63 2810.24 1560.47 2755.05 1525.11 2733.36C1495.6 2715.26 1410.19 2724.51 1403.71 2734.43C1397.58 2743.8 1427.27 2826.49 1461.45 2844.75C1495.9 2863.16 1573.8 2865.94 1589.72 2838.09Z" stroke="#1A2A46" stroke-width="30" stroke-miterlimit="10" stroke-linecap="round" stroke-linejoin="round"/>
<path d="M1690.5 2804.69L1859.81 2525.96" stroke="#1A2A46" stroke-width="30" stroke-miterlimit="10" stroke-linecap="round" stroke-linejoin="round"/>
<path d="M1799.34 2633.08C1769.98 2611.62 1780.73 2545.17 1799.95 2514.3C1820.77 2480.85 1894.77 2453.77 1907.03 2460.31C1921.11 2467.83 1925.24 2539.86 1911.64 2572.03C1893.58 2614.73 1829.96 2655.46 1799.34 2633.08Z" stroke="#1A2A46" stroke-width="30" stroke-miterlimit="10" stroke-linecap="round" stroke-linejoin="round"/>
<path d="M1439.41 2508.68L1683.59 2743.65" stroke="#1A2A46" stroke-width="30" stroke-miterlimit="10" stroke-linecap="round" stroke-linejoin="round"/>
<path d="M1423.13 2616.66C1384.15 2586.88 1355.59 2459.29 1366.25 2450.54C1377.33 2441.46 1497.59 2455.53 1534.22 2486.45C1565.57 2512.92 1598.9 2620.52 1578.27 2641.65C1553.03 2667.48 1464.8 2648.48 1423.13 2616.66Z" stroke="#1A2A46" stroke-width="30" stroke-miterlimit="10" stroke-linecap="round" stroke-linejoin="round"/>
<path d="M1690.72 2512.49C1654.6 2512.05 1600.63 2432.65 1606.12 2362.79C1610.88 2302.13 1673.28 2228.89 1689.8 2231.02C1703.34 2232.76 1774.53 2294.62 1775.15 2376.03C1775.63 2439.75 1724.78 2512.9 1690.72 2512.49Z" stroke="#1A2A46" stroke-width="30" stroke-miterlimit="10" stroke-linecap="round" stroke-linejoin="round"/>
<path d="M2759.24 3025.43C2665.57 3099.97 2452.33 2849.72 2565.11 2775.31C2675.17 2702.7 2840.3 2960.93 2759.24 3025.43Z" stroke="#1A2A46" stroke-width="30" stroke-miterlimit="10" stroke-linecap="round" stroke-linejoin="round"/>
<path d="M2594.99 2847.32L2634.72 2820.36" stroke="#1A2A46" stroke-width="30" stroke-miterlimit="10" stroke-linecap="round" stroke-linejoin="round"/>
<path d="M2664.45 2777.85C2658.12 2771.78 2761.11 2681.95 2801.41 2672.55C2842.65 2662.92 2893.16 2659.46 2924.85 2704.75C2937.92 2723.44 3028.66 2669.33 3087.3 2732.16C3123.72 2771.18 3296.62 2684.63 3323.67 2728.37C3347.79 2767.37 3227.41 2812.62 3204.34 2824.73C3156.72 2849.73 3104.91 2891.8 3051.74 2903.11C2999.26 2914.28 2950.07 2912.41 2896.69 2912.88C2874.43 2913.08 2835.85 2910.22 2784.83 2935.29" stroke="#1A2A46" stroke-width="30" stroke-miterlimit="10" stroke-linecap="round" stroke-linejoin="round"/>
<path d="M2927.7 2796.52C3032.34 2798.5 3087.16 2788.94 3104.09 2741.36" stroke="#1A2A46" stroke-width="30" stroke-miterlimit="10" stroke-linecap="round" stroke-linejoin="round"/>
<path d="M2975.09 2652.35C2957.2 2632.74 2977.21 2561.78 3076.55 2558.49C3172.3 2555.32 3192.35 2636.89 3181.3 2649.52C3169.66 2662.83 2979.74 2657.45 2975.09 2652.35Z" stroke="#1A2A46" stroke-width="30" stroke-miterlimit="10" stroke-linecap="round" stroke-linejoin="round"/>
<path d="M3077.54 2552.22L3072.5 2409.84C3072.5 2409.84 3073.17 2421.46 3076.24 2400.26C3101.58 2225.25 3297.31 2274.55 3306.55 2293.1C3314.34 2308.75 3252.54 2503.92 3077 2404.97" stroke="#1A2A46" stroke-width="30" stroke-miterlimit="10" stroke-linecap="round" stroke-linejoin="round"/>
<path d="M3070.01 2423.44C3069.81 2415.33 3068.45 2407.61 3068.47 2400.14C3068.91 2231.03 2881.57 2241.21 2869.65 2255.14C2857.49 2269.35 2888.34 2488.16 3070.1 2423.7" stroke="#1A2A46" stroke-width="30" stroke-miterlimit="10" stroke-linecap="round" stroke-linejoin="round"/>
<path d="M3086.63 2402.28L3235.22 2336.39" stroke="#1A2A46" stroke-width="30" stroke-miterlimit="10" stroke-linecap="round" stroke-linejoin="round"/>
<path d="M3070.71 2410.59L2948.45 2314.22" stroke="#1A2A46" stroke-width="30" stroke-miterlimit="10" stroke-linecap="round" stroke-linejoin="round"/>
<path d="M3815.4 2568.85C3752.61 2556.39 3731.44 2500.16 3737.8 2465.5" stroke="#1A2A46" stroke-width="30" stroke-miterlimit="10" stroke-linecap="round" stroke-linejoin="round"/>
<path d="M3792.19 2625.98C3736.68 2632.45 3714.47 2611.87 3693 2582.09" stroke="#1A2A46" stroke-width="30" stroke-miterlimit="10" stroke-linecap="round" stroke-linejoin="round"/>
<path d="M3802.04 2675.82C3756.77 2687.8 3735.18 2731.06 3735.18 2764.96" stroke="#1A2A46" stroke-width="30" stroke-miterlimit="10" stroke-linecap="round" stroke-linejoin="round"/>
<path d="M4627.59 2643.63C4627.59 2429.47 4453.98 2255.86 4239.82 2255.86C4025.66 2255.86 3852.05 2429.47 3852.05 2643.63C3852.05 2857.79 4025.66 3031.4 4239.82 3031.4C4453.98 3031.4 4627.59 2857.79 4627.59 2643.63Z" stroke="#1A2A46" stroke-width="30" stroke-miterlimit="10" stroke-linejoin="round"/>
<path d="M3910.35 2453.9L3901.96 2499.22" stroke="#1A2A46" stroke-width="30" stroke-miterlimit="10" stroke-linecap="round" stroke-linejoin="round"/>
<path d="M4114.22 2449.15L4113.22 2492.59" stroke="#1A2A46" stroke-width="30" stroke-miterlimit="10" stroke-linecap="round" stroke-linejoin="round"/>
<path d="M3962.2 2600.99C4007.32 2602.07 4015.35 2666.06 3957.17 2667.53C3905.16 2668.85 3908.8 2599.72 3962.2 2600.99Z" stroke="#1A2A46" stroke-width="30" stroke-miterlimit="10" stroke-linecap="round" stroke-linejoin="round"/>
<path d="M5200.56 2501.77C5200.56 2347.26 5325.82 2222 5480.33 2222C5634.84 2222 5760.1 2347.26 5760.1 2501.77C5760.1 2656.29 5634.84 2781.54 5480.33 2781.54C5325.82 2781.54 5200.56 2656.29 5200.56 2501.77Z" stroke="#1A2A46" stroke-width="30" stroke-miterlimit="10" stroke-linejoin="round"/>
<path d="M4997 2785.48C4997 2630.97 5122.26 2505.71 5276.77 2505.71C5431.29 2505.71 5556.54 2630.97 5556.54 2785.48C5556.54 2940 5431.29 3065.25 5276.77 3065.25C5122.26 3065.25 4997 2940 4997 2785.48Z" stroke="#1A2A46" stroke-width="30" stroke-miterlimit="10" stroke-linejoin="round"/>
<path d="M5388.85 2785.48C5388.85 2630.97 5514.11 2505.71 5668.62 2505.71C5823.14 2505.71 5948.4 2630.97 5948.4 2785.48C5948.4 2940 5823.14 3065.25 5668.62 3065.25C5514.11 3065.25 5388.85 2940 5388.85 2785.48Z" stroke="#1A2A46" stroke-width="30" stroke-miterlimit="10" stroke-linejoin="round"/>
<path d="M5345.58 2363L5345.7 2396.25" stroke="#1A2A46" stroke-width="30" stroke-miterlimit="10" stroke-linecap="round" stroke-linejoin="round"/>
<path d="M5603.91 2364.67L5604.64 2396.01" stroke="#1A2A46" stroke-width="30" stroke-miterlimit="10" stroke-linecap="round" stroke-linejoin="round"/>
<path d="M5440.4 2387.88C5451.65 2412.82 5497.93 2417.04 5511.93 2389.05" stroke="#1A2A46" stroke-width="30" stroke-miterlimit="10" stroke-linecap="round" stroke-linejoin="round"/>
<path d="M15 3833.55C15 3580.88 219.83 3376.05 472.5 3376.05C725.17 3376.05 930 3580.88 930 3833.55C930 4086.22 725.17 4291.05 472.5 4291.05C219.83 4291.05 15 4086.22 15 3833.55Z" stroke="#1A2A46" stroke-width="30" stroke-miterlimit="10" stroke-linejoin="round"/>
<path d="M252.14 3606.62L252.343 3660.99" stroke="#1A2A46" stroke-width="30" stroke-miterlimit="10" stroke-linecap="round" stroke-linejoin="round"/>
<path d="M674.584 3609.35L675.769 3660.6" stroke="#1A2A46" stroke-width="30" stroke-miterlimit="10" stroke-linecap="round" stroke-linejoin="round"/>
<path d="M367.954 3700.24C411.479 3680.97 528.747 3682.89 566.448 3699.39C595.547 3712.12 561.894 3816.07 471.393 3817.96C380.239 3819.86 338.845 3713.13 367.954 3700.24Z" stroke="#1A2A46" stroke-width="30" stroke-miterlimit="10" stroke-linecap="round" stroke-linejoin="round"/>
<path d="M1257 3833.55C1257 3580.88 1461.83 3376.05 1714.5 3376.05C1967.17 3376.05 2172 3580.88 2172 3833.55C2172 4086.22 1967.17 4291.05 1714.5 4291.05C1461.83 4291.05 1257 4086.22 1257 3833.55Z" stroke="#1A2A46" stroke-width="30" stroke-miterlimit="10" stroke-linejoin="round"/>
<path d="M1494.14 3606.62L1494.34 3660.99" stroke="#1A2A46" stroke-width="30" stroke-miterlimit="10" stroke-linecap="round" stroke-linejoin="round"/>
<path d="M1916.58 3609.35L1917.77 3660.6" stroke="#1A2A46" stroke-width="30" stroke-miterlimit="10" stroke-linecap="round" stroke-linejoin="round"/>
<path d="M1649.21 3647.3C1667.6 3688.08 1743.29 3694.99 1766.17 3649.22" stroke="#1A2A46" stroke-width="30" stroke-miterlimit="10" stroke-linecap="round" stroke-linejoin="round"/>
<path d="M2499 3833.55C2499 3580.81 2703.88 3375.93 2956.62 3375.93C3209.35 3375.93 3414.23 3580.81 3414.23 3833.55C3414.23 4086.28 3209.35 4291.16 2956.62 4291.16C2703.88 4291.16 2499 4086.28 2499 3833.55Z" stroke="#1A2A46" stroke-width="30" stroke-miterlimit="10" stroke-linejoin="round"/>
<path d="M2736.2 3606.56L2736.4 3660.95" stroke="#1A2A46" stroke-width="30" stroke-miterlimit="10" stroke-linecap="round" stroke-linejoin="round"/>
<path d="M3158.75 3609.29L3159.94 3660.56" stroke="#1A2A46" stroke-width="30" stroke-miterlimit="10" stroke-linecap="round" stroke-linejoin="round"/>
<path d="M2873.25 3686.76L3022.97 3684.16" stroke="#1A2A46" stroke-width="30" stroke-miterlimit="10" stroke-linecap="round" stroke-linejoin="round"/>
<path d="M3741.23 3833.55C3741.23 3573.57 3951.99 3362.81 4211.97 3362.81C4471.95 3362.81 4682.7 3573.57 4682.7 3833.55C4682.7 4093.53 4471.95 4304.28 4211.97 4304.28C3951.99 4304.28 3741.23 4093.53 3741.23 3833.55Z" stroke="#1A2A46" stroke-width="30" stroke-miterlimit="10" stroke-linejoin="round"/>
<path d="M3985.23 3600.06L3985.44 3656" stroke="#1A2A46" stroke-width="30" stroke-miterlimit="10" stroke-linecap="round" stroke-linejoin="round"/>
<path d="M4419.89 3602.86L4421.11 3655.6" stroke="#1A2A46" stroke-width="30" stroke-miterlimit="10" stroke-linecap="round" stroke-linejoin="round"/>
<path d="M4144.78 3676.38C4163.71 3634.43 4241.59 3627.32 4265.13 3674.41" stroke="#1A2A46" stroke-width="30" stroke-miterlimit="10" stroke-linecap="round" stroke-linejoin="round"/>
<path d="M4340.09 3545.53L4430.56 3513.61" stroke="#1A2A46" stroke-width="30" stroke-miterlimit="10" stroke-linecap="round" stroke-linejoin="round"/>
<path d="M3981.68 3516.29L4076.81 3548.41" stroke="#1A2A46" stroke-width="30" stroke-miterlimit="10" stroke-linecap="round" stroke-linejoin="round"/>
<path d="M5009.7 3833.55C5009.7 3573.7 5220.35 3363.05 5480.2 3363.05C5740.05 3363.05 5950.7 3573.7 5950.7 3833.55C5950.7 4093.4 5740.05 4304.05 5480.2 4304.05C5220.35 4304.05 5009.7 4093.4 5009.7 3833.55Z" stroke="#1A2A46" stroke-width="30" stroke-miterlimit="10" stroke-linejoin="round"/>
<path d="M5253.58 3600.17L5253.79 3656.09" stroke="#1A2A46" stroke-width="30" stroke-miterlimit="10" stroke-linecap="round" stroke-linejoin="round"/>
<path d="M5688.03 3602.97L5689.25 3655.69" stroke="#1A2A46" stroke-width="30" stroke-miterlimit="10" stroke-linecap="round" stroke-linejoin="round"/>
<path d="M5413.05 3676.46C5431.97 3634.53 5509.81 3627.42 5533.34 3674.49" stroke="#1A2A46" stroke-width="30" stroke-miterlimit="10" stroke-linecap="round" stroke-linejoin="round"/>
<path d="M5644.86 3507.12C5672.4 3549.91 5713.12 3553.8 5738.35 3548.33" stroke="#1A2A46" stroke-width="30" stroke-miterlimit="10" stroke-linecap="round" stroke-linejoin="round"/>
<path d="M5316.32 3501.79C5299.32 3540.78 5258.42 3546.05 5224.35 3537.35" stroke="#1A2A46" stroke-width="30" stroke-miterlimit="10" stroke-linecap="round" stroke-linejoin="round"/>
<path d="M5229.94 3721.31C5188.82 3744.36 5213.01 3757.56 5220.36 3757.96C5228.58 3758.4 5232.25 3726.73 5230.34 3721.17" stroke="#1A2A46" stroke-width="30" stroke-miterlimit="10" stroke-linecap="round" stroke-linejoin="round"/>
</svg>
