<svg width="313" height="70" viewBox="0 0 313 70" fill="none" xmlns="http://www.w3.org/2000/svg">
<path d="M5.248 9.2H14.848V26.928H33.28V9.2H42.88V54H33.28V35.376H14.848V54H5.248V9.2ZM50.045 37.936C50.045 27.888 56.701 21.36 66.429 21.36C75.773 21.36 81.789 27.376 81.789 36.528C81.789 37.488 81.725 38.576 81.533 39.856H59.133C59.773 44.208 62.589 46.96 66.557 46.96C69.693 46.96 72.125 45.168 72.637 42.544H81.981C81.085 49.776 74.749 54.64 66.365 54.64C56.509 54.64 50.045 47.856 50.045 37.936ZM66.557 28.4C63.357 28.4 60.861 30.32 59.709 33.456H72.573C72.253 30.448 69.885 28.4 66.557 28.4ZM85.795 44.976C85.795 39.088 90.531 35.312 97.571 35.312H105.955V32.304C105.955 29.616 104.035 27.888 100.963 27.888C97.379 27.888 95.715 30.192 95.587 32.88H87.011C87.395 26.416 92.771 21.36 101.283 21.36C109.411 21.36 115.299 25.968 115.299 33.264V54H106.915L106.275 49.52C105.187 52.528 101.091 54.64 96.483 54.64C90.019 54.64 85.795 50.544 85.795 44.976ZM95.395 44.72C95.395 46.768 96.803 48.176 99.427 48.176C103.395 48.176 105.891 44.976 105.955 40.944H99.683C96.995 40.944 95.395 42.544 95.395 44.72ZM124.171 54V7.28H133.515V54H124.171ZM142.733 54V22H152.077V54H142.733ZM142.477 12.208C142.477 9.136 144.333 7.28 147.405 7.28C150.477 7.28 152.333 9.136 152.333 12.208C152.333 15.28 150.477 17.136 147.405 17.136C144.333 17.136 142.477 15.28 142.477 12.208ZM164.368 30.576H158.608V22H164.368V19.056C164.368 10.352 170.448 7.28 177.36 7.28C179.152 7.28 181.136 7.472 182.992 7.728V16.24C181.648 15.984 180.24 15.856 179.024 15.856C176.016 15.856 173.712 16.688 173.712 20.144V22H182.992V30.576H173.712V54H164.368V30.576ZM192.122 45.616C189.306 39.216 186.49 31.152 186.49 23.408V22H196.09V23.408C196.09 29.808 198.074 36.336 200.25 41.584L202.49 47.024H202.746L204.986 41.584C207.162 36.336 209.146 29.808 209.146 23.408V22H218.362V23.408C218.362 31.152 215.546 39.216 212.73 45.616L203.514 66.8H193.338V66.544L199.674 54H195.77L192.122 45.616Z" fill="currentColor"/>
<path d="M267.541 4.66052C273.617 8.50169 276.425 13.9796 276.74 19.3952C276.578 25.0254 273.588 29.9897 267.941 34.236C266.839 34.8512 266.176 35.0638 264.732 35.1397C259.013 32.767 256.111 28.264 254.638 24.0863C252.856 18.3457 254.52 12.9638 259.115 7.9655C263.414 3.89675 263.414 3.89675 267.541 4.66052Z" fill="currentColor"/>
<path d="M288.001 7.98253C290.212 12.1114 289.61 17.8932 287.636 21.9999C285.457 25.7176 282.227 29.4346 277.719 31.7096C277.396 31.7096 277.073 31.7096 276.74 31.7096C277.595 29.6818 278.596 27.71 279.619 25.7293C281.65 21.3783 281.267 15.8144 279.51 11.453C279.188 10.6189 279.188 10.6189 279.188 9.48901C280.102 9.1603 281.021 8.84028 281.942 8.52392C282.453 8.34477 282.965 8.16563 283.491 7.98106C285.232 7.56567 286.253 7.64526 288.001 7.98253Z" fill="currentColor"/>
<path d="M249.44 8.03429C250.981 8.48455 252.473 8.99513 253.96 9.53749C252.956 13.2955 252.956 13.2955 252.681 14.1381C251.376 20.0823 252.672 25.6781 256.471 30.958C256.471 31.206 256.471 31.4541 256.471 31.7096C251.007 29.8239 247.618 26.0642 245.485 21.9858C244.178 19.2966 243.824 17.1314 243.822 14.2819C243.812 13.7559 243.812 13.7559 243.803 13.2191C243.798 11.3571 243.851 9.75736 244.92 8.03429C246.453 7.46078 247.837 7.73326 249.44 8.03429Z" fill="currentColor"/>
<path d="M293.815 18.0175C297.114 17.8975 299.122 18.1384 302.077 19.159C301.82 23.7721 298.033 27.5044 293.264 30.5739C288.538 33.265 282.854 34.9287 276.74 35.1399C278.415 33.9059 280.136 32.9084 282.11 31.9057C287.623 28.8806 290.56 24.8472 292.713 20.3005C292.918 19.8762 293.124 19.4519 293.335 19.0148C293.493 18.6857 293.652 18.3566 293.815 18.0175Z" fill="currentColor"/>
<path d="M239.426 18.0175C239.58 18.3765 239.734 18.7355 239.892 19.1055C242.765 25.5684 247.204 30.1403 255.163 34.0801C255.595 34.3043 256.027 34.5285 256.471 34.7594C256.471 34.885 256.471 35.0105 256.471 35.1399C249.01 34.8817 242.15 32.3933 237.023 28.664C234 26.1209 230.716 22.5742 231.179 19.159C234.128 18.1384 236.133 17.8975 239.426 18.0175Z" fill="currentColor"/>
<path d="M234.614 28.2798C235.233 28.6346 235.852 28.9895 236.47 29.3443C236.858 29.566 237.247 29.7876 237.647 30.016C238.414 30.4583 239.177 30.9055 239.933 31.3593C245.652 34.761 251.91 35.9591 259.005 36.796C256.598 38.637 252.854 38.5296 249.627 38.5702C242.715 38.5523 237.277 36.83 232.102 33.3347C231.433 32.7406 231.433 32.7406 231.135 31.5747C231.565 29.7449 232.665 29.3359 234.614 28.2798Z" fill="currentColor"/>
<path d="M300.591 28.2793C304.389 29.8172 304.389 29.8172 305.15 31.456C304.162 33.7694 301.452 34.9362 298.595 36.1392C291.957 38.5927 284.311 39.2933 277.043 37.759C276.273 37.5667 275.504 37.3691 274.746 37.154C274.746 37.0208 274.746 36.8877 274.746 36.7506C275.058 36.7144 275.37 36.6781 275.691 36.6408C285.767 35.4384 293.195 33.4742 300.591 28.2793Z" fill="currentColor"/>
</svg>
