<svg width="313" height="71" viewBox="0 0 313 71" fill="none" xmlns="http://www.w3.org/2000/svg">
<path d="M5.248 9.7H14.848V27.428H33.28V9.7H42.88V54.5H33.28V35.876H14.848V54.5H5.248V9.7ZM50.045 38.436C50.045 28.388 56.701 21.86 66.429 21.86C75.773 21.86 81.789 27.876 81.789 37.028C81.789 37.988 81.725 39.076 81.533 40.356H59.133C59.773 44.708 62.589 47.46 66.557 47.46C69.693 47.46 72.125 45.668 72.637 43.044H81.981C81.085 50.276 74.749 55.14 66.365 55.14C56.509 55.14 50.045 48.356 50.045 38.436ZM66.557 28.9C63.357 28.9 60.861 30.82 59.709 33.956H72.573C72.253 30.948 69.885 28.9 66.557 28.9ZM85.795 45.476C85.795 39.588 90.531 35.812 97.571 35.812H105.955V32.804C105.955 30.116 104.035 28.388 100.963 28.388C97.379 28.388 95.715 30.692 95.587 33.38H87.011C87.395 26.916 92.771 21.86 101.283 21.86C109.411 21.86 115.299 26.468 115.299 33.764V54.5H106.915L106.275 50.02C105.187 53.028 101.091 55.14 96.483 55.14C90.019 55.14 85.795 51.044 85.795 45.476ZM95.395 45.22C95.395 47.268 96.803 48.676 99.427 48.676C103.395 48.676 105.891 45.476 105.955 41.444H99.683C96.995 41.444 95.395 43.044 95.395 45.22ZM124.171 54.5V7.78H133.515V54.5H124.171ZM142.733 54.5V22.5H152.077V54.5H142.733ZM142.477 12.708C142.477 9.636 144.333 7.78 147.405 7.78C150.477 7.78 152.333 9.636 152.333 12.708C152.333 15.78 150.477 17.636 147.405 17.636C144.333 17.636 142.477 15.78 142.477 12.708ZM164.368 31.076H158.608V22.5H164.368V19.556C164.368 10.852 170.448 7.78 177.36 7.78C179.152 7.78 181.136 7.972 182.992 8.228V16.74C181.648 16.484 180.24 16.356 179.024 16.356C176.016 16.356 173.712 17.188 173.712 20.644V22.5H182.992V31.076H173.712V54.5H164.368V31.076ZM192.122 46.116C189.306 39.716 186.49 31.652 186.49 23.908V22.5H196.09V23.908C196.09 30.308 198.074 36.836 200.25 42.084L202.49 47.524H202.746L204.986 42.084C207.162 36.836 209.146 30.308 209.146 23.908V22.5H218.362V23.908C218.362 31.652 215.546 39.716 212.73 46.116L203.514 67.3H193.338V67.044L199.674 54.5H195.77L192.122 46.116Z" fill="currentColor"/>
<path d="M267.541 7.49079C273.617 13.2525 276.425 21.4694 276.74 29.5928C276.578 38.0381 273.588 45.4845 267.941 51.854C266.839 52.7768 266.176 53.0958 264.732 53.2095C259.013 49.6506 256.111 42.896 254.638 36.6294C252.856 28.0186 254.52 19.9456 259.115 12.4482C263.414 6.34513 263.414 6.34513 267.541 7.49079Z" fill="currentColor"/>
<path d="M288.001 12.4735C290.212 18.6668 289.61 27.3396 287.636 33.4996C285.457 39.0761 282.227 44.6517 277.719 48.0642C277.396 48.0642 277.073 48.0642 276.74 48.0642C277.595 45.0225 278.596 42.0648 279.619 39.0937C281.65 32.5673 281.267 24.2214 279.51 17.6793C279.188 16.4281 279.188 16.4281 279.188 14.7333C280.102 14.2402 281.021 13.7602 281.942 13.2856C282.453 13.0169 282.965 12.7482 283.491 12.4713C285.232 11.8483 286.253 11.9676 288.001 12.4735Z" fill="currentColor"/>
<path d="M249.44 12.5512C250.981 13.2266 252.473 13.9925 253.96 14.806C252.956 20.443 252.956 20.443 252.681 21.7069C251.376 30.6233 252.672 39.0168 256.471 46.9368C256.471 47.3088 256.471 47.6809 256.471 48.0642C251.007 45.2356 247.618 39.5961 245.485 33.4785C244.178 29.4447 243.824 26.1968 243.822 21.9227C243.812 21.1335 243.812 21.1335 243.803 20.3285C243.798 17.5355 243.851 15.1358 244.92 12.5512C246.453 11.6909 247.837 12.0997 249.44 12.5512Z" fill="currentColor"/>
<path d="M293.815 27.5262C297.114 27.3463 299.122 27.7076 302.077 29.2385C301.82 36.1581 298.033 41.7567 293.264 46.3609C288.538 50.3975 282.854 52.8931 276.74 53.2098C278.415 51.3588 280.136 49.8626 282.11 48.3585C287.623 43.8208 290.56 37.7708 292.713 30.9507C292.918 30.3143 293.124 29.6779 293.335 29.0222C293.493 28.5285 293.652 28.0348 293.815 27.5262Z" fill="currentColor"/>
<path d="M239.426 27.5262C239.58 28.0648 239.734 28.6033 239.892 29.1582C242.765 38.8526 247.204 45.7104 255.163 51.6202C255.595 51.9564 256.027 52.2927 256.471 52.6391C256.471 52.8274 256.471 53.0158 256.471 53.2098C249.01 52.8226 242.15 49.0899 237.023 43.496C234 39.6813 230.716 34.3614 231.179 29.2385C234.128 27.7076 236.133 27.3463 239.426 27.5262Z" fill="currentColor"/>
<path d="M234.614 42.9194C235.233 43.4517 235.852 43.984 236.47 44.5162C236.858 44.8487 237.247 45.1812 237.647 45.5237C238.414 46.1872 239.177 46.8581 239.933 47.5387C245.652 52.6413 251.91 54.4385 259.005 55.6937C256.598 58.4552 252.854 58.2942 249.627 58.355C242.715 58.3283 237.277 55.7447 232.102 50.5018C231.433 49.6107 231.433 49.6107 231.135 47.8619C231.565 45.1171 232.665 44.5036 234.614 42.9194Z" fill="currentColor"/>
<path d="M300.591 42.9189C304.389 45.2258 304.389 45.2258 305.15 47.684C304.162 51.1541 301.452 52.9043 298.595 54.7087C291.957 58.389 284.311 59.44 277.043 57.1386C276.273 56.8501 275.504 56.5536 274.746 56.2309C274.746 56.0312 274.746 55.8316 274.746 55.6258C275.058 55.5715 275.37 55.5172 275.691 55.4613C285.767 53.6576 293.195 50.7113 300.591 42.9189Z" fill="currentColor"/>
</svg>
