<svg width="313" height="64" viewBox="0 0 313 64" fill="none" xmlns="http://www.w3.org/2000/svg">
<path d="M3.936 7.9H11.136V21.196H24.96V7.9H32.16V41.5H24.96V27.532H11.136V41.5H3.936V7.9ZM37.5338 29.452C37.5338 21.916 42.5258 17.02 49.8218 17.02C56.8298 17.02 61.3418 21.532 61.3418 28.396C61.3418 29.116 61.2938 29.932 61.1498 30.892H44.3498C44.8298 34.156 46.9418 36.22 49.9178 36.22C52.2698 36.22 54.0938 34.876 54.4778 32.908H61.4858C60.8138 38.332 56.0618 41.98 49.7738 41.98C42.3818 41.98 37.5338 36.892 37.5338 29.452ZM49.9178 22.3C47.5178 22.3 45.6458 23.74 44.7818 26.092H54.4298C54.1898 23.836 52.4138 22.3 49.9178 22.3ZM64.3463 34.732C64.3463 30.316 67.8983 27.484 73.1783 27.484H79.4663V25.228C79.4663 23.212 78.0263 21.916 75.7223 21.916C73.0343 21.916 71.7863 23.644 71.6903 25.66H65.2583C65.5463 20.812 69.5783 17.02 75.9623 17.02C82.0583 17.02 86.4743 20.476 86.4743 25.948V41.5H80.1863L79.7063 38.14C78.8903 40.396 75.8183 41.98 72.3623 41.98C67.5143 41.98 64.3463 38.908 64.3463 34.732ZM71.5463 34.54C71.5463 36.076 72.6023 37.132 74.5703 37.132C77.5463 37.132 79.4183 34.732 79.4663 31.708H74.7623C72.7463 31.708 71.5463 32.908 71.5463 34.54ZM93.1279 41.5V6.46H100.136V41.5H93.1279ZM107.05 41.5V17.5H114.058V41.5H107.05ZM106.858 10.156C106.858 7.852 108.25 6.46 110.554 6.46C112.858 6.46 114.25 7.852 114.25 10.156C114.25 12.46 112.858 13.852 110.554 13.852C108.25 13.852 106.858 12.46 106.858 10.156ZM123.276 23.932H118.956V17.5H123.276V15.292C123.276 8.764 127.836 6.46 133.02 6.46C134.364 6.46 135.852 6.604 137.244 6.796V13.18C136.236 12.988 135.18 12.892 134.268 12.892C132.012 12.892 130.284 13.516 130.284 16.108V17.5H137.244V23.932H130.284V41.5H123.276V23.932ZM144.092 35.212C141.98 30.412 139.868 24.364 139.868 18.556V17.5H147.068V18.556C147.068 23.356 148.556 28.252 150.188 32.188L151.868 36.268H152.06L153.74 32.188C155.372 28.252 156.86 23.356 156.86 18.556V17.5H163.772V18.556C163.772 24.364 161.66 30.412 159.548 35.212L152.636 51.1H145.004V50.908L149.756 41.5H146.828L144.092 35.212Z" fill="currentColor"/>
<path d="M267.541 7.49079C273.617 13.2525 276.425 21.4694 276.74 29.5928C276.578 38.0381 273.588 45.4845 267.941 51.854C266.839 52.7768 266.176 53.0958 264.732 53.2095C259.013 49.6506 256.111 42.896 254.638 36.6294C252.856 28.0186 254.52 19.9456 259.115 12.4482C263.414 6.34513 263.414 6.34513 267.541 7.49079Z" fill="currentColor"/>
<path d="M288.001 12.4735C290.212 18.6668 289.61 27.3396 287.636 33.4996C285.457 39.0761 282.227 44.6517 277.719 48.0642C277.396 48.0642 277.073 48.0642 276.74 48.0642C277.595 45.0225 278.596 42.0648 279.619 39.0937C281.65 32.5673 281.267 24.2214 279.51 17.6793C279.188 16.4281 279.188 16.4281 279.188 14.7333C280.102 14.2402 281.021 13.7602 281.942 13.2856C282.453 13.0169 282.965 12.7482 283.491 12.4713C285.232 11.8483 286.253 11.9676 288.001 12.4735Z" fill="currentColor"/>
<path d="M249.44 12.5512C250.981 13.2266 252.473 13.9925 253.96 14.806C252.956 20.443 252.956 20.443 252.681 21.7069C251.376 30.6233 252.672 39.0168 256.471 46.9368C256.471 47.3088 256.471 47.6809 256.471 48.0642C251.007 45.2356 247.618 39.5961 245.485 33.4785C244.178 29.4447 243.824 26.1968 243.822 21.9227C243.812 21.1335 243.812 21.1335 243.803 20.3285C243.798 17.5355 243.851 15.1358 244.92 12.5512C246.453 11.6909 247.837 12.0997 249.44 12.5512Z" fill="currentColor"/>
<path d="M293.815 27.5262C297.114 27.3463 299.122 27.7076 302.077 29.2385C301.82 36.1581 298.033 41.7567 293.264 46.3609C288.538 50.3975 282.854 52.8931 276.74 53.2098C278.415 51.3588 280.136 49.8626 282.11 48.3585C287.623 43.8208 290.56 37.7708 292.713 30.9507C292.918 30.3143 293.124 29.6779 293.335 29.0222C293.493 28.5285 293.652 28.0348 293.815 27.5262Z" fill="currentColor"/>
<path d="M239.426 27.5262C239.58 28.0648 239.734 28.6033 239.892 29.1582C242.765 38.8526 247.204 45.7104 255.163 51.6202C255.595 51.9564 256.027 52.2927 256.471 52.6391C256.471 52.8274 256.471 53.0158 256.471 53.2098C249.01 52.8226 242.15 49.0899 237.023 43.496C234 39.6813 230.716 34.3614 231.179 29.2385C234.128 27.7076 236.133 27.3463 239.426 27.5262Z" fill="currentColor"/>
<path d="M234.614 42.9194C235.233 43.4517 235.852 43.984 236.47 44.5162C236.858 44.8487 237.247 45.1812 237.647 45.5237C238.414 46.1872 239.177 46.8581 239.933 47.5387C245.652 52.6413 251.91 54.4385 259.005 55.6937C256.598 58.4552 252.854 58.2942 249.627 58.355C242.715 58.3283 237.277 55.7447 232.102 50.5018C231.433 49.6107 231.433 49.6107 231.135 47.8619C231.565 45.1171 232.665 44.5036 234.614 42.9194Z" fill="currentColor"/>
<path d="M300.591 42.9189C304.389 45.2258 304.389 45.2258 305.15 47.684C304.162 51.1541 301.452 52.9043 298.595 54.7087C291.957 58.389 284.311 59.44 277.043 57.1386C276.273 56.8501 275.504 56.5536 274.746 56.2309C274.746 56.0312 274.746 55.8316 274.746 55.6258C275.058 55.5715 275.37 55.5172 275.691 55.4613C285.767 53.6576 293.195 50.7113 300.591 42.9189Z" fill="currentColor"/>
</svg>
