<svg width="356" height="107" viewBox="0 0 356 107" fill="none" xmlns="http://www.w3.org/2000/svg">
<mask id="path-1-inside-1_904_374" fill="currentColor">
<path d="M20 27H23V82H20V27Z"/>
</mask>
<path d="M20 27H23V82H20V27Z" fill="currentColor"/>
<path d="M20 27V26H19V27H20ZM20 82H19V83H20V82ZM20 28H23V26H20V28ZM23 81H20V83H23V81ZM21 82V27H19V82H21Z" fill="currentColor" mask="url(#path-1-inside-1_904_374)"/>
<path d="M12.78 75.8V72.8C14.16 72.72 14.6 71.38 14.6 70.16C14.6 68.54 13.82 67.52 12.56 67.52C11.22 67.52 10.76 68.66 10.76 70.1V72.38H8.56L5.64 69.32L5.64 75.2H3L3 65.02H5.2L8.46 68.46C8.68 65.96 10.18 64.42 12.56 64.42C15.38 64.42 17.2 66.6 17.2 70.12C17.2 73.08 15.92 75.72 12.78 75.8ZM15.46 61.7961C14.38 61.7961 13.72 61.1361 13.72 60.0561C13.72 58.9761 14.38 58.3161 15.46 58.3161C16.54 58.3161 17.2 58.9761 17.2 60.0561C17.2 61.1361 16.54 61.7961 15.46 61.7961ZM12.22 50.7572C12.22 53.8572 10.54 55.8372 7.78 55.8372C4.78 55.8372 2.8 53.5172 2.8 50.2172C2.8 46.1372 5.78 44.1772 9.72 44.1772C14.32 44.1772 17.2 46.8372 17.2 50.6772C17.2 53.7772 15.34 55.5372 13.08 55.8372V52.8372C13.86 52.6372 14.6 51.9372 14.6 50.6372C14.6 48.5172 12.68 47.2772 10.78 47.1772V47.2572C11.76 48.1172 12.22 49.4572 12.22 50.7572ZM5.4 50.0772C5.4 51.6972 6.28 52.7372 7.6 52.7372C8.92 52.7372 9.66 51.7572 9.66 50.1972C9.66 48.5572 8.86 47.5772 7.52 47.5772C6.22 47.5772 5.4 48.4972 5.4 50.0772ZM16.92 42.7133L11.8 39.2733L7.08 42.4533H7L7 39.0733L9.66 37.4133L7 35.7933V32.6533H7.08L11.82 35.8333L16.92 32.3933H17V35.7733L13.96 37.6933L17 39.5733V42.7133H16.92Z" fill="currentColor"/>
<path d="M348.5 73.2H346.1L337 66.38V62.76H345.86V61.16H348.5V62.76H351V65.76H348.5V73.2ZM345.86 69.72V65.76H340.58L345.86 69.72ZM349.46 58.7961C348.38 58.7961 347.72 58.1361 347.72 57.0561C347.72 55.9761 348.38 55.3161 349.46 55.3161C350.54 55.3161 351.2 55.9761 351.2 57.0561C351.2 58.1361 350.54 58.7961 349.46 58.7961ZM346.78 52.9172V49.9172C348.16 49.8372 348.6 48.4972 348.6 47.2772C348.6 45.6572 347.82 44.6372 346.56 44.6372C345.22 44.6372 344.76 45.7772 344.76 47.2172V49.4972H342.56L339.64 46.4372V52.3172H337V42.1372H339.2L342.46 45.5772C342.68 43.0772 344.18 41.5372 346.56 41.5372C349.38 41.5372 351.2 43.7172 351.2 47.2372C351.2 50.1972 349.92 52.8372 346.78 52.9172ZM350.92 39.7133L345.8 36.2733L341.08 39.4533H341V36.0733L343.66 34.4133L341 32.7933V29.6533H341.08L345.82 32.8333L350.92 29.3933H351V32.7733L347.96 34.6933L351 36.5733V39.7133H350.92Z" fill="currentColor"/>
<path d="M242.4 16.92L245.84 11.8L242.66 7.08V7H246.04L247.7 9.66L249.32 7H252.46V7.08L249.28 11.82L252.72 16.92V17H249.34L247.42 13.96L245.54 17H242.4V16.92Z" fill="currentColor"/>
<path d="M273.42 102.2C269.32 102.2 267.28 99.2 267.28 95.4C267.28 90.66 269.86 87.8 273.7 87.8C276.8 87.8 278.44 89.66 278.74 91.92H275.74C275.54 91.14 274.96 90.4 273.66 90.4C271.54 90.4 270.38 92.32 270.28 94.22H270.36C271.22 93.24 272.52 92.78 274.02 92.78C276.92 92.78 278.94 94.5 278.94 97.32C278.94 100.26 276.7 102.2 273.42 102.2ZM273.26 95.34C271.66 95.34 270.68 96.14 270.68 97.46C270.68 98.78 271.66 99.6 273.26 99.6C274.86 99.6 275.84 98.78 275.84 97.46C275.84 96.14 274.86 95.34 273.26 95.34ZM281.204 100.46C281.204 99.38 281.864 98.72 282.944 98.72C284.024 98.72 284.684 99.38 284.684 100.46C284.684 101.54 284.024 102.2 282.944 102.2C281.864 102.2 281.204 101.54 281.204 100.46ZM287.283 99.8L293.263 94.96C294.403 94.04 295.183 93.32 295.183 92.22C295.183 90.98 294.183 90.4 292.963 90.4C291.403 90.4 290.483 91.38 290.483 92.96H287.483C287.483 89.9 289.523 87.8 293.023 87.8C296.003 87.8 298.283 89.34 298.283 92.22C298.283 94.14 297.263 95.54 295.083 97.04L292.083 99.12V99.2H298.483V102H287.283V99.8ZM300.287 101.92L303.727 96.8L300.547 92.08V92H303.927L305.587 94.66L307.207 92H310.347V92.08L307.167 96.82L310.607 101.92V102H307.227L305.307 98.96L303.427 102H300.287V101.92Z" fill="currentColor"/>
<path d="M98.4 7.8V5H100.4C101.58 5 102.6 4.58 102.6 3H105.4V14.2H108V17H98.8V14.2H102.4V7.08C101.92 7.68 101.16 7.8 100.4 7.8H98.4ZM117.004 17.2C113.284 17.2 111.004 15.5 111.004 12.92C111.004 11.36 111.844 10.14 113.204 9.5C112.144 8.92 111.504 7.88 111.504 6.6C111.504 4.3 113.584 2.8 117.004 2.8C120.424 2.8 122.504 4.3 122.504 6.6C122.504 7.88 121.864 8.92 120.804 9.5C122.164 10.14 123.004 11.36 123.004 12.92C123.004 15.5 120.724 17.2 117.004 17.2ZM117.004 10.68C115.204 10.68 114.104 11.42 114.104 12.62C114.104 13.84 115.204 14.6 117.004 14.6C118.804 14.6 119.904 13.84 119.904 12.62C119.904 11.42 118.804 10.68 117.004 10.68ZM117.024 5.4C115.524 5.4 114.604 5.94 114.604 6.88C114.604 7.82 115.524 8.44 117.024 8.44C118.504 8.44 119.404 7.82 119.404 6.88C119.404 5.94 118.504 5.4 117.024 5.4ZM125.208 15.46C125.208 14.38 125.868 13.72 126.948 13.72C128.028 13.72 128.688 14.38 128.688 15.46C128.688 16.54 128.028 17.2 126.948 17.2C125.868 17.2 125.208 16.54 125.208 15.46ZM130.687 14.5V12.1L137.507 3H141.127V11.86H142.727V14.5H141.127V17H138.127V14.5H130.687ZM134.167 11.86H138.127V6.58L134.167 11.86ZM145.291 14.8L151.271 9.96C152.411 9.04 153.191 8.32 153.191 7.22C153.191 5.98 152.191 5.4 150.971 5.4C149.411 5.4 148.491 6.38 148.491 7.96H145.491C145.491 4.9 147.531 2.8 151.031 2.8C154.011 2.8 156.291 4.34 156.291 7.22C156.291 9.14 155.271 10.54 153.091 12.04L150.091 14.12V14.2H156.491V17H145.291V14.8ZM158.295 16.92L161.735 11.8L158.555 7.08V7H161.935L163.595 9.66L165.215 7H168.355V7.08L165.175 11.82L168.615 16.92V17H165.235L163.315 13.96L161.435 17H158.295V16.92Z" fill="currentColor"/>
<mask id="path-8-inside-2_904_374" fill="currentColor">
<path d="M327 85V82H253V85H327Z"/>
</mask>
<path d="M327 85V82H253V85H327Z" fill="currentColor"/>
<path d="M327 85H328V86H327V85ZM253 85V86H252V85H253ZM326 85V82H328V85H326ZM254 82V85H252V82H254ZM253 84H327V86H253V84Z" fill="currentColor" mask="url(#path-8-inside-2_904_374)"/>
<mask id="path-10-inside-3_904_374" fill="currentColor">
<path d="M27 20H241V23H27V20Z"/>
</mask>
<path d="M27 20H241V23H27V20Z" fill="currentColor"/>
<path d="M27 20V19H26V20H27ZM241 20H242V19H241V20ZM27 21H241V19H27V21ZM240 20V23H242V20H240ZM28 23V20H26V23H28Z" fill="currentColor" mask="url(#path-10-inside-3_904_374)"/>
<mask id="path-12-inside-4_904_374" fill="currentColor">
<path d="M334 26H331V78H334V26Z"/>
</mask>
<path d="M334 26H331V78H334V26Z" fill="currentColor"/>
<path d="M334 26V25H335V26H334ZM334 78H335V79H334V78ZM334 27H331V25H334V27ZM331 77H334V79H331V77ZM333 78V26H335V78H333Z" fill="currentColor" mask="url(#path-12-inside-4_904_374)"/>
<line x1="242" y1="21.5" x2="253" y2="21.5" stroke="currentColor" stroke-width="3"/>
</svg>
