<svg width="313" height="70" viewBox="0 0 313 70" fill="none" xmlns="http://www.w3.org/2000/svg">
<mask id="path-1-outside-1_608_624" maskUnits="userSpaceOnUse" x="4" y="6" width="216" height="62" fill="black">
<rect fill="currentColor" x="4" y="6" width="216" height="62"/>
<path d="M5.248 9.2H14.848V26.928H33.28V9.2H42.88V54H33.28V35.376H14.848V54H5.248V9.2ZM50.045 37.936C50.045 27.888 56.701 21.36 66.429 21.36C75.773 21.36 81.789 27.376 81.789 36.528C81.789 37.488 81.725 38.576 81.533 39.856H59.133C59.773 44.208 62.589 46.96 66.557 46.96C69.693 46.96 72.125 45.168 72.637 42.544H81.981C81.085 49.776 74.749 54.64 66.365 54.64C56.509 54.64 50.045 47.856 50.045 37.936ZM66.557 28.4C63.357 28.4 60.861 30.32 59.709 33.456H72.573C72.253 30.448 69.885 28.4 66.557 28.4ZM85.795 44.976C85.795 39.088 90.531 35.312 97.571 35.312H105.955V32.304C105.955 29.616 104.035 27.888 100.963 27.888C97.379 27.888 95.715 30.192 95.587 32.88H87.011C87.395 26.416 92.771 21.36 101.283 21.36C109.411 21.36 115.299 25.968 115.299 33.264V54H106.915L106.275 49.52C105.187 52.528 101.091 54.64 96.483 54.64C90.019 54.64 85.795 50.544 85.795 44.976ZM95.395 44.72C95.395 46.768 96.803 48.176 99.427 48.176C103.395 48.176 105.891 44.976 105.955 40.944H99.683C96.995 40.944 95.395 42.544 95.395 44.72ZM124.171 54V7.28H133.515V54H124.171ZM142.733 54V22H152.077V54H142.733ZM142.477 12.208C142.477 9.136 144.333 7.28 147.405 7.28C150.477 7.28 152.333 9.136 152.333 12.208C152.333 15.28 150.477 17.136 147.405 17.136C144.333 17.136 142.477 15.28 142.477 12.208ZM164.368 30.576H158.608V22H164.368V19.056C164.368 10.352 170.448 7.28 177.36 7.28C179.152 7.28 181.136 7.472 182.992 7.728V16.24C181.648 15.984 180.24 15.856 179.024 15.856C176.016 15.856 173.712 16.688 173.712 20.144V22H182.992V30.576H173.712V54H164.368V30.576ZM192.122 45.616C189.306 39.216 186.49 31.152 186.49 23.408V22H196.09V23.408C196.09 29.808 198.074 36.336 200.25 41.584L202.49 47.024H202.746L204.986 41.584C207.162 36.336 209.146 29.808 209.146 23.408V22H218.362V23.408C218.362 31.152 215.546 39.216 212.73 45.616L203.514 66.8H193.338V66.544L199.674 54H195.77L192.122 45.616Z"/>
</mask>
<path d="M5.248 9.2V8.2H4.248V9.2H5.248ZM14.848 9.2H15.848V8.2H14.848V9.2ZM14.848 26.928H13.848V27.928H14.848V26.928ZM33.28 26.928V27.928H34.28V26.928H33.28ZM33.28 9.2V8.2H32.28V9.2H33.28ZM42.88 9.2H43.88V8.2H42.88V9.2ZM42.88 54V55H43.88V54H42.88ZM33.28 54H32.28V55H33.28V54ZM33.28 35.376H34.28V34.376H33.28V35.376ZM14.848 35.376V34.376H13.848V35.376H14.848ZM14.848 54V55H15.848V54H14.848ZM5.248 54H4.248V55H5.248V54ZM5.248 10.2H14.848V8.2H5.248V10.2ZM13.848 9.2V26.928H15.848V9.2H13.848ZM14.848 27.928H33.28V25.928H14.848V27.928ZM34.28 26.928V9.2H32.28V26.928H34.28ZM33.28 10.2H42.88V8.2H33.28V10.2ZM41.88 9.2V54H43.88V9.2H41.88ZM42.88 53H33.28V55H42.88V53ZM34.28 54V35.376H32.28V54H34.28ZM33.28 34.376H14.848V36.376H33.28V34.376ZM13.848 35.376V54H15.848V35.376H13.848ZM14.848 53H5.248V55H14.848V53ZM6.248 54V9.2H4.248V54H6.248ZM81.533 39.856V40.856H82.3942L82.5219 40.0043L81.533 39.856ZM59.133 39.856V38.856H57.9752L58.1436 40.0015L59.133 39.856ZM72.637 42.544V41.544H71.8133L71.6555 42.3525L72.637 42.544ZM81.981 42.544L82.9734 42.667L83.1125 41.544H81.981V42.544ZM59.709 33.456L58.7703 33.1112L58.2763 34.456H59.709V33.456ZM72.573 33.456V34.456H73.685L73.5674 33.3502L72.573 33.456ZM51.045 37.936C51.045 33.138 52.6297 29.2609 55.2971 26.5861C57.9648 23.911 61.7936 22.36 66.429 22.36V20.36C61.3364 20.36 56.9732 22.073 53.8809 25.1739C50.7883 28.2751 49.045 32.686 49.045 37.936H51.045ZM66.429 22.36C70.8828 22.36 74.4543 23.7896 76.9091 26.2223C79.3632 28.6543 80.789 32.1759 80.789 36.528H82.789C82.789 31.7281 81.2068 27.6657 78.3169 24.8017C75.4277 21.9384 71.3192 20.36 66.429 20.36V22.36ZM80.789 36.528C80.789 37.4412 80.7283 38.4795 80.5441 39.7077L82.5219 40.0043C82.7217 38.6725 82.789 37.5348 82.789 36.528H80.789ZM81.533 38.856H59.133V40.856H81.533V38.856ZM58.1436 40.0015C58.4896 42.3541 59.4355 44.3475 60.9035 45.7605C62.3798 47.1814 64.3285 47.96 66.557 47.96V45.96C64.8175 45.96 63.3742 45.3626 62.2905 44.3195C61.1985 43.2685 60.4164 41.7099 60.1224 39.7105L58.1436 40.0015ZM66.557 47.96C70.0661 47.96 72.9961 45.9254 73.6185 42.7355L71.6555 42.3525C71.2539 44.4106 69.3199 45.96 66.557 45.96V47.96ZM72.637 43.544H81.981V41.544H72.637V43.544ZM80.9886 42.421C80.1685 49.0401 74.3659 53.64 66.365 53.64V55.64C75.1321 55.64 82.0015 50.5119 82.9734 42.667L80.9886 42.421ZM66.365 53.64C61.6743 53.64 57.8646 52.031 55.2268 49.3117C52.5859 46.5893 51.045 42.6762 51.045 37.936H49.045C49.045 43.1158 50.7361 47.5547 53.7912 50.7043C56.8494 53.857 61.1997 55.64 66.365 55.64V53.64ZM66.557 27.4C62.887 27.4 60.0486 29.6314 58.7703 33.1112L60.6477 33.8008C61.6734 31.0086 63.827 29.4 66.557 29.4V27.4ZM59.709 34.456H72.573V32.456H59.709V34.456ZM73.5674 33.3502C73.1878 29.7821 70.3426 27.4 66.557 27.4V29.4C69.4274 29.4 71.3182 31.1139 71.5786 33.5618L73.5674 33.3502ZM105.955 35.312V36.312H106.955V35.312H105.955ZM95.587 32.88V33.88H96.5405L96.5859 32.9276L95.587 32.88ZM87.011 32.88L86.0128 32.8207L85.9498 33.88H87.011V32.88ZM115.299 54V55H116.299V54H115.299ZM106.915 54L105.925 54.1414L106.048 55H106.915V54ZM106.275 49.52L107.265 49.3786L105.335 49.1799L106.275 49.52ZM105.955 40.944L106.955 40.9599L106.971 39.944H105.955V40.944ZM86.795 44.976C86.795 42.3246 87.8498 40.1966 89.6743 38.7116C91.5184 37.2105 94.2211 36.312 97.571 36.312V34.312C93.8809 34.312 90.6956 35.3015 88.4117 37.1604C86.1082 39.0354 84.795 41.7394 84.795 44.976H86.795ZM97.571 36.312H105.955V34.312H97.571V36.312ZM106.955 35.312V32.304H104.955V35.312H106.955ZM106.955 32.304C106.955 30.7082 106.377 29.3197 105.275 28.3406C104.186 27.3726 102.681 26.888 100.963 26.888V28.888C102.317 28.888 103.308 29.2674 103.947 29.8354C104.573 30.3923 104.955 31.2118 104.955 32.304H106.955ZM100.963 26.888C98.9446 26.888 97.3569 27.5441 96.2594 28.6816C95.1751 29.8053 94.661 31.3031 94.5881 32.8324L96.5859 32.9276C96.641 31.7689 97.0229 30.7707 97.6986 30.0704C98.361 29.3839 99.3974 28.888 100.963 28.888V26.888ZM95.587 31.88H87.011V33.88H95.587V31.88ZM88.0092 32.9393C88.3561 27.1011 93.1967 22.36 101.283 22.36V20.36C92.3453 20.36 86.4339 25.7309 86.0128 32.8207L88.0092 32.9393ZM101.283 22.36C105.165 22.36 108.428 23.4603 110.701 25.3456C112.956 27.2166 114.299 29.9087 114.299 33.264H116.299C116.299 29.3233 114.698 26.0634 111.977 23.8064C109.274 21.5636 105.529 20.36 101.283 20.36V22.36ZM114.299 33.264V54H116.299V33.264H114.299ZM115.299 53H106.915V55H115.299V53ZM107.905 53.8586L107.265 49.3786L105.285 49.6614L105.925 54.1414L107.905 53.8586ZM105.335 49.1799C104.902 50.3773 103.828 51.4926 102.237 52.3211C100.656 53.1442 98.6411 53.64 96.483 53.64V55.64C98.9329 55.64 101.27 55.0798 103.161 54.0949C105.042 53.1154 106.56 51.6707 107.215 49.8601L105.335 49.1799ZM96.483 53.64C93.4635 53.64 91.0458 52.686 89.3932 51.1611C87.7451 49.6403 86.795 47.4958 86.795 44.976H84.795C84.795 48.0242 85.9569 50.7117 88.0368 52.6309C90.1122 54.546 93.0385 55.64 96.483 55.64V53.64ZM94.395 44.72C94.395 45.9835 94.8368 47.1356 95.7605 47.9615C96.672 48.7765 97.9426 49.176 99.427 49.176V47.176C98.2874 47.176 97.542 46.8715 97.0935 46.4705C96.6572 46.0804 96.395 45.5045 96.395 44.72H94.395ZM99.427 49.176C101.702 49.176 103.594 48.2493 104.911 46.7262C106.216 45.2175 106.92 43.1721 106.955 40.9599L104.955 40.9281C104.926 42.7479 104.35 44.3185 103.399 45.4178C102.46 46.5027 101.12 47.176 99.427 47.176V49.176ZM105.955 39.944H99.683V41.944H105.955V39.944ZM99.683 39.944C98.1413 39.944 96.812 40.4053 95.8567 41.2775C94.8954 42.1553 94.395 43.3761 94.395 44.72H96.395C96.395 43.8879 96.6946 43.2207 97.2053 42.7545C97.722 42.2826 98.5367 41.944 99.683 41.944V39.944ZM124.171 54H123.171V55H124.171V54ZM124.171 7.28V6.28H123.171V7.28H124.171ZM133.514 7.28H134.514V6.28H133.514V7.28ZM133.514 54V55H134.514V54H133.514ZM125.171 54V7.28H123.171V54H125.171ZM124.171 8.28H133.514V6.28H124.171V8.28ZM132.514 7.28V54H134.514V7.28H132.514ZM133.514 53H124.171V55H133.514V53ZM142.733 54H141.733V55H142.733V54ZM142.733 22V21H141.733V22H142.733ZM152.077 22H153.077V21H152.077V22ZM152.077 54V55H153.077V54H152.077ZM143.733 54V22H141.733V54H143.733ZM142.733 23H152.077V21H142.733V23ZM151.077 22V54H153.077V22H151.077ZM152.077 53H142.733V55H152.077V53ZM143.477 12.208C143.477 10.8743 143.876 9.91931 144.496 9.2991C145.116 8.6789 146.071 8.28 147.405 8.28V6.28C145.667 6.28 144.158 6.8091 143.082 7.88489C142.006 8.96069 141.477 10.4697 141.477 12.208H143.477ZM147.405 8.28C148.739 8.28 149.694 8.6789 150.314 9.2991C150.934 9.91931 151.333 10.8743 151.333 12.208H153.333C153.333 10.4697 152.804 8.96069 151.728 7.88489C150.652 6.8091 149.143 6.28 147.405 6.28V8.28ZM151.333 12.208C151.333 13.5417 150.934 14.4967 150.314 15.1169C149.694 15.7371 148.739 16.136 147.405 16.136V18.136C149.143 18.136 150.652 17.6069 151.728 16.5311C152.804 15.4553 153.333 13.9463 153.333 12.208H151.333ZM147.405 16.136C146.071 16.136 145.116 15.7371 144.496 15.1169C143.876 14.4967 143.477 13.5417 143.477 12.208H141.477C141.477 13.9463 142.006 15.4553 143.082 16.5311C144.158 17.6069 145.667 18.136 147.405 18.136V16.136ZM164.367 30.576H165.367V29.576H164.367V30.576ZM158.607 30.576H157.607V31.576H158.607V30.576ZM158.607 22V21H157.607V22H158.607ZM164.367 22V23H165.367V22H164.367ZM182.992 7.728H183.992V6.85646L183.128 6.73738L182.992 7.728ZM182.992 16.24L182.804 17.2223L183.992 17.4485V16.24H182.992ZM173.712 22H172.712V23H173.712V22ZM182.992 22H183.992V21H182.992V22ZM182.992 30.576V31.576H183.992V30.576H182.992ZM173.712 30.576V29.576H172.712V30.576H173.712ZM173.712 54V55H174.712V54H173.712ZM164.367 54H163.367V55H164.367V54ZM164.367 29.576H158.607V31.576H164.367V29.576ZM159.607 30.576V22H157.607V30.576H159.607ZM158.607 23H164.367V21H158.607V23ZM165.367 22V19.056H163.367V22H165.367ZM165.367 19.056C165.367 14.9616 166.783 12.3304 168.886 10.6931C171.031 9.02288 174.03 8.28 177.359 8.28V6.28C173.777 6.28 170.28 7.07312 167.657 9.11493C164.992 11.1896 163.367 14.4464 163.367 19.056H165.367ZM177.359 8.28C179.088 8.28 181.022 8.46576 182.855 8.71862L183.128 6.73738C181.249 6.47824 179.215 6.28 177.359 6.28V8.28ZM181.992 7.728V16.24H183.992V7.728H181.992ZM183.179 15.2577C181.774 14.9901 180.303 14.856 179.023 14.856V16.856C180.176 16.856 181.521 16.9779 182.804 17.2223L183.179 15.2577ZM179.023 14.856C177.469 14.856 175.889 15.0624 174.682 15.8741C173.39 16.7424 172.712 18.1672 172.712 20.144H174.712C174.712 18.6648 175.185 17.9456 175.797 17.5339C176.494 17.0656 177.57 16.856 179.023 16.856V14.856ZM172.712 20.144V22H174.712V20.144H172.712ZM173.712 23H182.992V21H173.712V23ZM181.992 22V30.576H183.992V22H181.992ZM182.992 29.576H173.712V31.576H182.992V29.576ZM172.712 30.576V54H174.712V30.576H172.712ZM173.712 53H164.367V55H173.712V53ZM165.367 54V30.576H163.367V54H165.367ZM192.122 45.616L193.039 45.217L193.037 45.2133L192.122 45.616ZM186.49 22V21H185.49V22H186.49ZM196.09 22H197.09V21H196.09V22ZM200.25 41.584L201.175 41.2032L201.174 41.201L200.25 41.584ZM202.49 47.024L201.565 47.4048L201.82 48.024H202.49V47.024ZM202.746 47.024V48.024H203.416L203.671 47.4048L202.746 47.024ZM204.986 41.584L204.062 41.201L204.061 41.2033L204.986 41.584ZM209.146 22V21H208.146V22H209.146ZM218.362 22H219.362V21H218.362V22ZM212.73 45.616L211.815 45.2133L211.813 45.2171L212.73 45.616ZM203.514 66.8V67.8H204.169L204.431 67.1989L203.514 66.8ZM193.338 66.8H192.338V67.8H193.338V66.8ZM193.338 66.544L192.445 66.0931L192.338 66.3058V66.544H193.338ZM199.674 54L200.567 54.4509L201.299 53H199.674V54ZM195.77 54L194.853 54.399L195.115 55H195.77V54ZM193.037 45.2133C190.236 38.8468 187.49 30.9386 187.49 23.408H185.49C185.49 31.3654 188.376 39.5852 191.207 46.0187L193.037 45.2133ZM187.49 23.408V22H185.49V23.408H187.49ZM186.49 23H196.09V21H186.49V23ZM195.09 22V23.408H197.09V22H195.09ZM195.09 23.408C195.09 29.996 197.127 36.6639 199.326 41.967L201.174 41.201C199.021 36.0081 197.09 29.62 197.09 23.408H195.09ZM199.325 41.9647L201.565 47.4048L203.415 46.6432L201.175 41.2033L199.325 41.9647ZM202.49 48.024H202.746V46.024H202.49V48.024ZM203.671 47.4048L205.911 41.9647L204.061 41.2033L201.821 46.6432L203.671 47.4048ZM205.91 41.967C208.109 36.6639 210.146 29.996 210.146 23.408H208.146C208.146 29.62 206.215 36.0081 204.062 41.201L205.91 41.967ZM210.146 23.408V22H208.146V23.408H210.146ZM209.146 23H218.362V21H209.146V23ZM217.362 22V23.408H219.362V22H217.362ZM217.362 23.408C217.362 30.9386 214.616 38.8468 211.815 45.2133L213.645 46.0187C216.476 39.5852 219.362 31.3654 219.362 23.408H217.362ZM211.813 45.2171L202.597 66.4011L204.431 67.1989L213.647 46.0149L211.813 45.2171ZM203.514 65.8H193.338V67.8H203.514V65.8ZM194.338 66.8V66.544H192.338V66.8H194.338ZM194.231 66.9949L200.567 54.4509L198.781 53.5491L192.445 66.0931L194.231 66.9949ZM199.674 53H195.77V55H199.674V53ZM196.687 53.601L193.039 45.217L191.205 46.015L194.853 54.399L196.687 53.601Z" fill="currentColor" mask="url(#path-1-outside-1_608_624)"/>
<path d="M267.541 6.99079C273.617 12.7525 276.425 20.9694 276.74 29.0928C276.578 37.5381 273.588 44.9845 267.941 51.354C266.839 52.2768 266.176 52.5958 264.732 52.7095C259.013 49.1506 256.111 42.396 254.638 36.1294C252.856 27.5186 254.52 19.4456 259.115 11.9482C263.414 5.84513 263.414 5.84513 267.541 6.99079Z" fill="currentColor"/>
<path d="M288.001 11.9735C290.212 18.1668 289.61 26.8396 287.636 32.9996C285.457 38.5761 282.227 44.1517 277.719 47.5642C277.396 47.5642 277.073 47.5642 276.74 47.5642C277.595 44.5225 278.596 41.5648 279.619 38.5937C281.65 32.0673 281.267 23.7214 279.51 17.1793C279.188 15.9281 279.188 15.9281 279.188 14.2333C280.102 13.7402 281.021 13.2602 281.942 12.7856C282.453 12.5169 282.965 12.2482 283.491 11.9713C285.232 11.3483 286.253 11.4676 288.001 11.9735Z" fill="currentColor"/>
<path d="M249.44 12.0512C250.981 12.7266 252.473 13.4925 253.96 14.306C252.956 19.943 252.956 19.943 252.681 21.2069C251.376 30.1233 252.672 38.5168 256.471 46.4368C256.471 46.8088 256.471 47.1809 256.471 47.5642C251.007 44.7356 247.618 39.0961 245.485 32.9785C244.178 28.9447 243.824 25.6968 243.822 21.4227C243.812 20.6335 243.812 20.6335 243.803 19.8285C243.798 17.0355 243.851 14.6358 244.92 12.0512C246.453 11.1909 247.837 11.5997 249.44 12.0512Z" fill="currentColor"/>
<path d="M293.815 27.0262C297.114 26.8463 299.122 27.2076 302.077 28.7385C301.82 35.6581 298.033 41.2567 293.264 45.8609C288.538 49.8975 282.854 52.3931 276.74 52.7098C278.415 50.8588 280.136 49.3626 282.11 47.8585C287.623 43.3208 290.56 37.2708 292.713 30.4507C292.918 29.8143 293.124 29.1779 293.335 28.5222C293.493 28.0285 293.652 27.5348 293.815 27.0262Z" fill="currentColor"/>
<path d="M239.426 27.0262C239.58 27.5648 239.734 28.1033 239.892 28.6582C242.765 38.3526 247.204 45.2104 255.163 51.1202C255.595 51.4564 256.027 51.7927 256.471 52.1391C256.471 52.3274 256.471 52.5158 256.471 52.7098C249.01 52.3226 242.15 48.5899 237.023 42.996C234 39.1813 230.716 33.8614 231.179 28.7385C234.128 27.2076 236.133 26.8463 239.426 27.0262Z" fill="currentColor"/>
<path d="M234.614 42.4194C235.233 42.9517 235.852 43.484 236.47 44.0162C236.858 44.3487 237.247 44.6812 237.647 45.0237C238.414 45.6872 239.177 46.3581 239.933 47.0387C245.652 52.1413 251.91 53.9385 259.005 55.1937C256.598 57.9552 252.854 57.7942 249.627 57.855C242.715 57.8283 237.277 55.2447 232.102 50.0018C231.433 49.1107 231.433 49.1107 231.135 47.3619C231.565 44.6171 232.665 44.0036 234.614 42.4194Z" fill="currentColor"/>
<path d="M300.591 42.4189C304.389 44.7258 304.389 44.7258 305.15 47.184C304.162 50.6541 301.452 52.4043 298.595 54.2087C291.957 57.889 284.311 58.94 277.043 56.6386C276.273 56.3501 275.504 56.0536 274.746 55.7309C274.746 55.5312 274.746 55.3316 274.746 55.1258C275.058 55.0715 275.37 55.0172 275.691 54.9613C285.767 53.1576 293.195 50.2113 300.591 42.4189Z" fill="currentColor"/>
</svg>
